%TF.GenerationSoftware,KiCad,Pcbnew,8.0.3*%
%TF.CreationDate,2025-04-27T14:59:32+02:00*%
%TF.ProjectId,FPGA_Audio_Board,46504741-5f41-4756-9469-6f5f426f6172,rev?*%
%TF.SameCoordinates,Original*%
%TF.FileFunction,Soldermask,Top*%
%TF.FilePolarity,Negative*%
%FSLAX46Y46*%
G04 Gerber Fmt 4.6, Leading zero omitted, Abs format (unit mm)*
G04 Created by KiCad (PCBNEW 8.0.3) date 2025-04-27 14:59:32*
%MOMM*%
%LPD*%
G01*
G04 APERTURE LIST*
G04 Aperture macros list*
%AMRoundRect*
0 Rectangle with rounded corners*
0 $1 Rounding radius*
0 $2 $3 $4 $5 $6 $7 $8 $9 X,Y pos of 4 corners*
0 Add a 4 corners polygon primitive as box body*
4,1,4,$2,$3,$4,$5,$6,$7,$8,$9,$2,$3,0*
0 Add four circle primitives for the rounded corners*
1,1,$1+$1,$2,$3*
1,1,$1+$1,$4,$5*
1,1,$1+$1,$6,$7*
1,1,$1+$1,$8,$9*
0 Add four rect primitives between the rounded corners*
20,1,$1+$1,$2,$3,$4,$5,0*
20,1,$1+$1,$4,$5,$6,$7,0*
20,1,$1+$1,$6,$7,$8,$9,0*
20,1,$1+$1,$8,$9,$2,$3,0*%
G04 Aperture macros list end*
%ADD10RoundRect,0.243750X-0.243750X-0.456250X0.243750X-0.456250X0.243750X0.456250X-0.243750X0.456250X0*%
%ADD11R,0.500000X0.600000*%
%ADD12RoundRect,0.250000X-0.250000X-0.475000X0.250000X-0.475000X0.250000X0.475000X-0.250000X0.475000X0*%
%ADD13C,2.000000*%
%ADD14R,1.700000X1.700000*%
%ADD15O,1.700000X1.700000*%
%ADD16RoundRect,0.250000X-0.262500X-0.450000X0.262500X-0.450000X0.262500X0.450000X-0.262500X0.450000X0*%
%ADD17RoundRect,0.375000X-0.625000X-0.375000X0.625000X-0.375000X0.625000X0.375000X-0.625000X0.375000X0*%
%ADD18RoundRect,0.500000X-0.500000X-1.400000X0.500000X-1.400000X0.500000X1.400000X-0.500000X1.400000X0*%
%ADD19R,3.000000X3.000000*%
%ADD20C,3.000000*%
%ADD21C,0.500000*%
%ADD22C,0.300000*%
G04 APERTURE END LIST*
D10*
%TO.C,D1*%
X146390000Y-92125000D03*
X148265000Y-92125000D03*
%TD*%
D11*
%TO.C,X1*%
X159057500Y-109600000D03*
X159057500Y-110700000D03*
X159857500Y-110700000D03*
X159857500Y-109600000D03*
%TD*%
D12*
%TO.C,C1*%
X141907500Y-74510000D03*
X143807500Y-74510000D03*
%TD*%
D13*
%TO.C,SW2*%
X160057500Y-102000000D03*
X166557500Y-102000000D03*
X160057500Y-106500000D03*
X166557500Y-106500000D03*
%TD*%
D14*
%TO.C,AUDIO_OUT_HEADER1*%
X126457500Y-75330000D03*
D15*
X126457500Y-77870000D03*
%TD*%
D16*
%TO.C,R1*%
X146375000Y-95120000D03*
X148200000Y-95120000D03*
%TD*%
D12*
%TO.C,C6*%
X141907500Y-89560000D03*
X143807500Y-89560000D03*
%TD*%
D17*
%TO.C,U3*%
X132557500Y-91555000D03*
X132557500Y-93855000D03*
D18*
X138857500Y-93855000D03*
D17*
X132557500Y-96155000D03*
%TD*%
D14*
%TO.C,SW_HEADER1*%
X121807500Y-75330000D03*
D15*
X121807500Y-77870000D03*
X121807500Y-80410000D03*
X121807500Y-82950000D03*
X121807500Y-85490000D03*
X121807500Y-88030000D03*
X121807500Y-90570000D03*
X121807500Y-93110000D03*
X121807500Y-95650000D03*
X121807500Y-98190000D03*
X121807500Y-100730000D03*
X121807500Y-103270000D03*
X121807500Y-105810000D03*
X121807500Y-108350000D03*
X121807500Y-110890000D03*
X121807500Y-113430000D03*
%TD*%
D12*
%TO.C,C5*%
X141907500Y-86550000D03*
X143807500Y-86550000D03*
%TD*%
D16*
%TO.C,R2*%
X162175000Y-110000000D03*
X164000000Y-110000000D03*
%TD*%
D19*
%TO.C,J1*%
X148317500Y-77530000D03*
D20*
X153397500Y-77530000D03*
%TD*%
D21*
%TO.C,U4*%
X133007500Y-102200000D03*
X133807500Y-102200000D03*
X134607500Y-102200000D03*
X135407500Y-102200000D03*
X136207500Y-102200000D03*
X137007500Y-102200000D03*
X137807500Y-102200000D03*
X138607500Y-102200000D03*
X139407500Y-102200000D03*
X140207500Y-102200000D03*
X141007500Y-102200000D03*
X141807500Y-102200000D03*
X142607500Y-102200000D03*
X143407500Y-102200000D03*
X144207500Y-102200000D03*
X145007500Y-102200000D03*
X145807500Y-102200000D03*
X146607500Y-102200000D03*
X133007500Y-103000000D03*
X133807500Y-103000000D03*
X134607500Y-103000000D03*
X135407500Y-103000000D03*
X136207500Y-103000000D03*
X137007500Y-103000000D03*
X137807500Y-103000000D03*
X138607500Y-103000000D03*
X139407500Y-103000000D03*
X140207500Y-103000000D03*
X141007500Y-103000000D03*
X141807500Y-103000000D03*
X142607500Y-103000000D03*
X143407500Y-103000000D03*
X144207500Y-103000000D03*
X145007500Y-103000000D03*
X145807500Y-103000000D03*
D22*
X146607500Y-103000000D03*
D21*
X133007500Y-103800000D03*
X133807500Y-103800000D03*
X134607500Y-103800000D03*
X135407500Y-103800000D03*
X136207500Y-103800000D03*
X137007500Y-103800000D03*
X137807500Y-103800000D03*
X138607500Y-103800000D03*
X139407500Y-103800000D03*
X140207500Y-103800000D03*
X141007500Y-103800000D03*
X141807500Y-103800000D03*
X142607500Y-103800000D03*
X143407500Y-103800000D03*
X144207500Y-103800000D03*
X145007500Y-103800000D03*
X145807500Y-103800000D03*
X146607500Y-103800000D03*
X133007500Y-104600000D03*
X133807500Y-104600000D03*
X134607500Y-104600000D03*
X135407500Y-104600000D03*
X136207500Y-104600000D03*
X137007500Y-104600000D03*
X137807500Y-104600000D03*
D22*
X138607500Y-104600000D03*
D21*
X139407500Y-104600000D03*
X140207500Y-104600000D03*
X141007500Y-104600000D03*
X141807500Y-104600000D03*
X142607500Y-104600000D03*
X143407500Y-104600000D03*
X144207500Y-104600000D03*
X145007500Y-104600000D03*
X145807500Y-104600000D03*
X146607500Y-104600000D03*
X133007500Y-105400000D03*
X133807500Y-105400000D03*
X134607500Y-105400000D03*
X135407500Y-105400000D03*
X136207500Y-105400000D03*
X137007500Y-105400000D03*
D22*
X137807500Y-105400000D03*
D21*
X138607500Y-105400000D03*
D22*
X139407500Y-105400000D03*
D21*
X140207500Y-105400000D03*
X141007500Y-105400000D03*
X141807500Y-105400000D03*
X142607500Y-105400000D03*
X143407500Y-105400000D03*
X144207500Y-105400000D03*
X145007500Y-105400000D03*
X145807500Y-105400000D03*
X146607500Y-105400000D03*
X133007500Y-106200000D03*
X133807500Y-106200000D03*
X134607500Y-106200000D03*
X135407500Y-106200000D03*
X136207500Y-106200000D03*
X137007500Y-106200000D03*
X137807500Y-106200000D03*
X138607500Y-106200000D03*
X139407500Y-106200000D03*
X140207500Y-106200000D03*
X141007500Y-106200000D03*
X141807500Y-106200000D03*
X142607500Y-106200000D03*
X143407500Y-106200000D03*
X144207500Y-106200000D03*
X145007500Y-106200000D03*
X145807500Y-106200000D03*
X146607500Y-106200000D03*
X133007500Y-107000000D03*
X133807500Y-107000000D03*
X134607500Y-107000000D03*
X135407500Y-107000000D03*
X136207500Y-107000000D03*
X137007500Y-107000000D03*
X137807500Y-107000000D03*
X138607500Y-107000000D03*
X139407500Y-107000000D03*
X140207500Y-107000000D03*
X141007500Y-107000000D03*
X141807500Y-107000000D03*
X142607500Y-107000000D03*
X143407500Y-107000000D03*
X144207500Y-107000000D03*
X145007500Y-107000000D03*
X145807500Y-107000000D03*
X146607500Y-107000000D03*
X133007500Y-107800000D03*
X133807500Y-107800000D03*
X134607500Y-107800000D03*
X135407500Y-107800000D03*
X136207500Y-107800000D03*
X137007500Y-107800000D03*
X137807500Y-107800000D03*
X138607500Y-107800000D03*
X139407500Y-107800000D03*
X140207500Y-107800000D03*
X141007500Y-107800000D03*
X141807500Y-107800000D03*
X142607500Y-107800000D03*
X143407500Y-107800000D03*
X144207500Y-107800000D03*
X145007500Y-107800000D03*
X145807500Y-107800000D03*
X146607500Y-107800000D03*
X133007500Y-108600000D03*
X133807500Y-108600000D03*
X134607500Y-108600000D03*
X135407500Y-108600000D03*
X136207500Y-108600000D03*
X137007500Y-108600000D03*
X137807500Y-108600000D03*
X138607500Y-108600000D03*
X139407500Y-108600000D03*
X140207500Y-108600000D03*
X141007500Y-108600000D03*
X141807500Y-108600000D03*
X142607500Y-108600000D03*
X143407500Y-108600000D03*
X144207500Y-108600000D03*
X145007500Y-108600000D03*
X145807500Y-108600000D03*
X146607500Y-108600000D03*
X133007500Y-109400000D03*
X133807500Y-109400000D03*
X134607500Y-109400000D03*
X135407500Y-109400000D03*
X136207500Y-109400000D03*
X137007500Y-109400000D03*
X137807500Y-109400000D03*
X138607500Y-109400000D03*
X139407500Y-109400000D03*
X140207500Y-109400000D03*
X141007500Y-109400000D03*
X141807500Y-109400000D03*
X142607500Y-109400000D03*
X143407500Y-109400000D03*
X144207500Y-109400000D03*
X145007500Y-109400000D03*
X145807500Y-109400000D03*
X146607500Y-109400000D03*
X133007500Y-110200000D03*
X133807500Y-110200000D03*
X134607500Y-110200000D03*
X135407500Y-110200000D03*
X136207500Y-110200000D03*
X137007500Y-110200000D03*
X137807500Y-110200000D03*
X138607500Y-110200000D03*
X139407500Y-110200000D03*
X140207500Y-110200000D03*
X141007500Y-110200000D03*
X141807500Y-110200000D03*
X142607500Y-110200000D03*
X143407500Y-110200000D03*
X144207500Y-110200000D03*
X145007500Y-110200000D03*
X145807500Y-110200000D03*
X146607500Y-110200000D03*
X133007500Y-111000000D03*
X133807500Y-111000000D03*
X134607500Y-111000000D03*
X135407500Y-111000000D03*
X136207500Y-111000000D03*
X137007500Y-111000000D03*
X137807500Y-111000000D03*
X138607500Y-111000000D03*
X139407500Y-111000000D03*
X140207500Y-111000000D03*
X141007500Y-111000000D03*
X141807500Y-111000000D03*
X142607500Y-111000000D03*
X143407500Y-111000000D03*
X144207500Y-111000000D03*
X145007500Y-111000000D03*
X145807500Y-111000000D03*
X146607500Y-111000000D03*
X133007500Y-111800000D03*
X133807500Y-111800000D03*
X134607500Y-111800000D03*
X135407500Y-111800000D03*
X136207500Y-111800000D03*
X137007500Y-111800000D03*
X137807500Y-111800000D03*
X138607500Y-111800000D03*
X139407500Y-111800000D03*
X140207500Y-111800000D03*
X141007500Y-111800000D03*
X141807500Y-111800000D03*
X142607500Y-111800000D03*
X143407500Y-111800000D03*
X144207500Y-111800000D03*
X145007500Y-111800000D03*
X145807500Y-111800000D03*
X146607500Y-111800000D03*
X133007500Y-112600000D03*
X133807500Y-112600000D03*
X134607500Y-112600000D03*
X135407500Y-112600000D03*
X136207500Y-112600000D03*
X137007500Y-112600000D03*
X137807500Y-112600000D03*
X138607500Y-112600000D03*
X139407500Y-112600000D03*
X140207500Y-112600000D03*
X141007500Y-112600000D03*
X141807500Y-112600000D03*
X142607500Y-112600000D03*
X143407500Y-112600000D03*
X144207500Y-112600000D03*
X145007500Y-112600000D03*
X145807500Y-112600000D03*
X146607500Y-112600000D03*
X133007500Y-113400000D03*
X133807500Y-113400000D03*
X134607500Y-113400000D03*
X135407500Y-113400000D03*
X136207500Y-113400000D03*
X137007500Y-113400000D03*
X137807500Y-113400000D03*
X138607500Y-113400000D03*
X139407500Y-113400000D03*
X140207500Y-113400000D03*
X141007500Y-113400000D03*
X141807500Y-113400000D03*
X142607500Y-113400000D03*
X143407500Y-113400000D03*
X144207500Y-113400000D03*
X145007500Y-113400000D03*
X145807500Y-113400000D03*
X146607500Y-113400000D03*
X133007500Y-114200000D03*
X133807500Y-114200000D03*
X134607500Y-114200000D03*
X135407500Y-114200000D03*
X136207500Y-114200000D03*
X137007500Y-114200000D03*
X137807500Y-114200000D03*
X138607500Y-114200000D03*
X139407500Y-114200000D03*
X140207500Y-114200000D03*
X141007500Y-114200000D03*
X141807500Y-114200000D03*
X142607500Y-114200000D03*
X143407500Y-114200000D03*
X144207500Y-114200000D03*
D22*
X145007500Y-114200000D03*
D21*
X145807500Y-114200000D03*
X146607500Y-114200000D03*
X133007500Y-115000000D03*
X133807500Y-115000000D03*
X134607500Y-115000000D03*
X135407500Y-115000000D03*
X136207500Y-115000000D03*
X137007500Y-115000000D03*
X137807500Y-115000000D03*
X138607500Y-115000000D03*
X139407500Y-115000000D03*
X140207500Y-115000000D03*
X141007500Y-115000000D03*
X141807500Y-115000000D03*
X142607500Y-115000000D03*
X143407500Y-115000000D03*
X144207500Y-115000000D03*
X145007500Y-115000000D03*
X145807500Y-115000000D03*
X146607500Y-115000000D03*
X133007500Y-115800000D03*
X133807500Y-115800000D03*
X134607500Y-115800000D03*
X135407500Y-115800000D03*
X136207500Y-115800000D03*
X137007500Y-115800000D03*
X137807500Y-115800000D03*
X138607500Y-115800000D03*
X139407500Y-115800000D03*
X140207500Y-115800000D03*
X141007500Y-115800000D03*
X141807500Y-115800000D03*
X142607500Y-115800000D03*
X143407500Y-115800000D03*
X144207500Y-115800000D03*
X145007500Y-115800000D03*
X145807500Y-115800000D03*
X146607500Y-115800000D03*
%TD*%
D17*
%TO.C,U2*%
X132557500Y-83230000D03*
X132557500Y-85530000D03*
D18*
X138857500Y-85530000D03*
D17*
X132557500Y-87830000D03*
%TD*%
D12*
%TO.C,C2*%
X141907500Y-77520000D03*
X143807500Y-77520000D03*
%TD*%
D13*
%TO.C,SW1*%
X147107500Y-84080000D03*
X153607500Y-84080000D03*
X147107500Y-88580000D03*
X153607500Y-88580000D03*
%TD*%
D14*
%TO.C,JTAG1*%
X153157500Y-102300000D03*
D15*
X155697500Y-102300000D03*
X153157500Y-104840000D03*
X155697500Y-104840000D03*
X153157500Y-107380000D03*
X155697500Y-107380000D03*
%TD*%
D12*
%TO.C,C3*%
X141907500Y-80530000D03*
X143807500Y-80530000D03*
%TD*%
D17*
%TO.C,U1*%
X132557500Y-74905000D03*
X132557500Y-77205000D03*
D18*
X138857500Y-77205000D03*
D17*
X132557500Y-79505000D03*
%TD*%
D12*
%TO.C,C4*%
X141907500Y-83540000D03*
X143807500Y-83540000D03*
%TD*%
M02*
