M48
; DRILL file {KiCad 8.0.3} date 2025-04-27T15:03:23+0200
; FORMAT={-:-/ absolute / metric / decimal}
; #@! TF.CreationDate,2025-04-27T15:03:23+02:00
; #@! TF.GenerationSoftware,Kicad,Pcbnew,8.0.3
; #@! TF.FileFunction,Plated,1,4,PTH
FMAT,2
METRIC
; #@! TA.AperFunction,Plated,PTH,ViaDrill
T1C0.200
; #@! TA.AperFunction,Plated,PTH,ViaDrill
T2C0.300
; #@! TA.AperFunction,Plated,PTH,ComponentDrill
T3C1.000
; #@! TA.AperFunction,Plated,PTH,ComponentDrill
T4C1.100
; #@! TA.AperFunction,Plated,PTH,ComponentDrill
T5C1.520
%
G90
G05
T1
X138.316Y-114.79
X138.519Y-114.333
X138.607Y-107.8
X139.053Y-108.027
X140.055Y-111.153
X140.468Y-105.506
X142.0Y-108.5
X142.157Y-105.214
X143.0Y-120.0
X143.5Y-120.0
X147.5Y-114.5
X147.558Y-114.0
T2
X117.5Y-93.5
X117.5Y-103.5
X118.5Y-100.5
X123.5Y-112.5
X126.0Y-116.5
X126.5Y-99.0
X131.0Y-106.6
X132.981Y-108.5
X133.0Y-104.5
X133.5Y-90.5
X133.916Y-106.092
X133.916Y-110.308
X133.916Y-114.092
X134.0Y-82.5
X134.005Y-102.487
X134.185Y-105.0
X134.499Y-103.908
X134.499Y-111.908
X134.716Y-107.908
X134.716Y-115.692
X135.299Y-105.292
X135.299Y-113.508
X135.516Y-109.292
X136.099Y-106.892
X136.099Y-111.108
X136.316Y-114.892
X136.316Y-103.108
X136.585Y-107.4
X136.899Y-104.708
X136.899Y-112.708
X137.0Y-108.5
X137.699Y-111.108
X137.808Y-109.4
X137.892Y-108.75
X137.916Y-111.908
X137.916Y-102.308
X137.916Y-114.092
X137.921Y-110.079
X138.0Y-106.5
X138.499Y-103.908
X138.499Y-105.292
X138.716Y-115.692
X138.773Y-99.4
X138.873Y-109.531
X139.007Y-105.777
X139.276Y-111.697
X139.299Y-113.508
X139.55Y-116.5
X140.099Y-106.092
X140.099Y-107.692
X140.099Y-102.892
X140.316Y-114.892
X140.5Y-96.5
X140.666Y-116.903
X140.899Y-108.708
X140.99Y-106.9
X140.994Y-104.7
X141.0Y-117.5
X141.007Y-105.4
X141.116Y-115.108
X141.407Y-104.177
X141.808Y-106.2
X141.808Y-110.2
X141.843Y-110.942
X141.876Y-109.376
X141.916Y-107.692
X141.916Y-114.308
X141.94Y-115.266
X142.0Y-112.0
X142.005Y-102.487
X142.499Y-103.692
X142.499Y-115.692
X142.5Y-99.0
X142.5Y-108.0
X142.542Y-111.065
X142.716Y-111.692
X142.766Y-113.663
X142.885Y-105.665
X143.007Y-114.623
X143.299Y-113.292
X143.516Y-105.508
X143.516Y-109.292
X143.566Y-120.566
X143.954Y-113.088
X144.099Y-110.892
X144.099Y-114.892
X144.299Y-108.46
X144.316Y-103.108
X144.316Y-106.892
X144.5Y-80.5
X144.5Y-86.5
X144.899Y-104.492
X144.899Y-108.708
X144.899Y-112.708
X144.999Y-110.45
X145.0Y-82.5
X145.0Y-88.98
X145.284Y-113.57
X145.507Y-114.407
X145.699Y-110.092
X145.916Y-102.308
X145.916Y-106.308
X146.0Y-113.5
X146.206Y-116.272
X146.499Y-107.908
X146.5Y-103.5
X146.5Y-115.693
X147.5Y-112.0
X147.5Y-113.0
X148.0Y-99.0
X148.5Y-104.0
X148.5Y-112.0
X157.5Y-111.0
X160.0Y-110.85
X161.0Y-111.65
T3
X121.807Y-75.33
X121.807Y-77.87
X121.807Y-80.41
X121.807Y-82.95
X121.807Y-85.49
X121.807Y-88.03
X121.807Y-90.57
X121.807Y-93.11
X121.807Y-95.65
X121.807Y-98.19
X121.807Y-100.73
X121.807Y-103.27
X121.807Y-105.81
X121.807Y-108.35
X121.807Y-110.89
X121.807Y-113.43
X126.457Y-75.33
X126.457Y-77.87
X153.157Y-102.3
X153.157Y-104.84
X153.157Y-107.38
X155.697Y-102.3
X155.697Y-104.84
X155.697Y-107.38
T4
X147.107Y-84.08
X147.107Y-88.58
X153.607Y-84.08
X153.607Y-88.58
X160.058Y-102.0
X160.058Y-106.5
X166.558Y-102.0
X166.558Y-106.5
T5
X148.317Y-77.53
X153.397Y-77.53
M30
