%TF.GenerationSoftware,KiCad,Pcbnew,8.0.3*%
%TF.CreationDate,2025-04-27T14:59:32+02:00*%
%TF.ProjectId,FPGA_Audio_Board,46504741-5f41-4756-9469-6f5f426f6172,rev?*%
%TF.SameCoordinates,Original*%
%TF.FileFunction,Copper,L2,Inr*%
%TF.FilePolarity,Positive*%
%FSLAX46Y46*%
G04 Gerber Fmt 4.6, Leading zero omitted, Abs format (unit mm)*
G04 Created by KiCad (PCBNEW 8.0.3) date 2025-04-27 14:59:32*
%MOMM*%
%LPD*%
G01*
G04 APERTURE LIST*
%TA.AperFunction,ComponentPad*%
%ADD10C,2.000000*%
%TD*%
%TA.AperFunction,ComponentPad*%
%ADD11R,1.700000X1.700000*%
%TD*%
%TA.AperFunction,ComponentPad*%
%ADD12O,1.700000X1.700000*%
%TD*%
%TA.AperFunction,ComponentPad*%
%ADD13R,3.000000X3.000000*%
%TD*%
%TA.AperFunction,ComponentPad*%
%ADD14C,3.000000*%
%TD*%
%TA.AperFunction,ViaPad*%
%ADD15C,0.600000*%
%TD*%
%TA.AperFunction,ViaPad*%
%ADD16C,0.400000*%
%TD*%
%TA.AperFunction,ViaPad*%
%ADD17C,0.500000*%
%TD*%
G04 APERTURE END LIST*
D10*
%TO.N,GND*%
%TO.C,SW2*%
X160057500Y-102000000D03*
X166557500Y-102000000D03*
%TO.N,RESET*%
X160057500Y-106500000D03*
X166557500Y-106500000D03*
%TD*%
D11*
%TO.N,AUD_PWM*%
%TO.C,AUDIO_OUT_HEADER1*%
X126457500Y-75330000D03*
D12*
%TO.N,AUD_SD*%
X126457500Y-77870000D03*
%TD*%
D11*
%TO.N,SW_0*%
%TO.C,SW_HEADER1*%
X121807500Y-75330000D03*
D12*
%TO.N,SW_1*%
X121807500Y-77870000D03*
%TO.N,SW_2*%
X121807500Y-80410000D03*
%TO.N,SW_3*%
X121807500Y-82950000D03*
%TO.N,SW_4*%
X121807500Y-85490000D03*
%TO.N,SW_5*%
X121807500Y-88030000D03*
%TO.N,SW_6*%
X121807500Y-90570000D03*
%TO.N,SW_7*%
X121807500Y-93110000D03*
%TO.N,SW_8*%
X121807500Y-95650000D03*
%TO.N,SW_9*%
X121807500Y-98190000D03*
%TO.N,SW_10*%
X121807500Y-100730000D03*
%TO.N,SW_11*%
X121807500Y-103270000D03*
%TO.N,SW_12*%
X121807500Y-105810000D03*
%TO.N,SW_13*%
X121807500Y-108350000D03*
%TO.N,SW_14*%
X121807500Y-110890000D03*
%TO.N,SW_15*%
X121807500Y-113430000D03*
%TD*%
D13*
%TO.N,/POWER/+5V_IN*%
%TO.C,J1*%
X148317500Y-77530000D03*
D14*
%TO.N,GND*%
X153397500Y-77530000D03*
%TD*%
D10*
%TO.N,/POWER/+5V_IN*%
%TO.C,SW1*%
X147107500Y-84080000D03*
X153607500Y-84080000D03*
%TO.N,Net-(SW1-B)*%
X147107500Y-88580000D03*
X153607500Y-88580000D03*
%TD*%
D11*
%TO.N,TDI*%
%TO.C,JTAG1*%
X153157500Y-102300000D03*
D12*
%TO.N,3V3*%
X155697500Y-102300000D03*
%TO.N,TDO*%
X153157500Y-104840000D03*
%TO.N,GND*%
X155697500Y-104840000D03*
%TO.N,TCK*%
X153157500Y-107380000D03*
%TO.N,TMS*%
X155697500Y-107380000D03*
%TD*%
D15*
%TO.N,GND*%
X133000000Y-104500000D03*
%TO.N,1V8*%
X140500000Y-96500000D03*
%TO.N,GND*%
X144500000Y-86500000D03*
X133500000Y-90500000D03*
D16*
%TO.N,1V0*%
X140054988Y-111152512D03*
%TO.N,GND*%
X142000000Y-108500000D03*
D15*
X146500000Y-103500000D03*
D16*
X139053000Y-108027006D03*
D15*
%TO.N,1V8*%
X141842856Y-110942463D03*
X141876129Y-109375736D03*
X141915950Y-107691550D03*
X141807500Y-106200000D03*
%TO.N,GND*%
X142000000Y-112000000D03*
X137000000Y-108500000D03*
D16*
%TO.N,1V0*%
X138607500Y-107800000D03*
D15*
%TO.N,TMS*%
X148500000Y-104000000D03*
D16*
X142157500Y-105213603D03*
D15*
%TO.N,TDI*%
X148000000Y-99000000D03*
X142500000Y-99000000D03*
X141007500Y-105400000D03*
%TO.N,CLK100MHZ*%
X160000000Y-110850000D03*
D16*
X147557500Y-114000000D03*
D15*
X146205999Y-116272212D03*
X140665952Y-116902953D03*
X139550000Y-116500000D03*
X131000000Y-106600000D03*
X134184995Y-105000000D03*
%TO.N,TDO*%
X142885202Y-105665479D03*
D16*
%TO.N,TCK*%
X140467874Y-105506330D03*
D15*
%TO.N,1V0*%
X138773185Y-99400000D03*
X139007499Y-105777494D03*
%TO.N,GND*%
X142500000Y-108000000D03*
X141807500Y-110200000D03*
%TO.N,1V0*%
X137891709Y-108750105D03*
X138873346Y-109531081D03*
X137920907Y-110079093D03*
X139275830Y-111697356D03*
%TO.N,GND*%
X142005111Y-102486724D03*
X137807500Y-109400000D03*
%TO.N,SW_0*%
X144298526Y-108459706D03*
%TO.N,SW_1*%
X144999251Y-110450060D03*
%TO.N,SW_2*%
X143565686Y-120565686D03*
X142542336Y-111065162D03*
X148500000Y-112000000D03*
%TO.N,GND*%
X134005111Y-102486724D03*
D16*
%TO.N,SW_8*%
X138519499Y-114332967D03*
D15*
X123500000Y-112500000D03*
D16*
%TO.N,SW_9*%
X138315636Y-114789522D03*
D15*
X126000000Y-116500000D03*
%TO.N,SW_12*%
X136584995Y-107400000D03*
%TO.N,SW_11*%
X117500000Y-103500000D03*
D16*
X143000000Y-120000000D03*
D15*
X143007499Y-114622505D03*
%TO.N,SW_4*%
X146000000Y-113500000D03*
D16*
X147500000Y-114500000D03*
D15*
%TO.N,SW_13*%
X141939963Y-115266187D03*
%TO.N,3V3*%
X146500000Y-115692503D03*
%TO.N,GND*%
X142499047Y-115691550D03*
X134715952Y-115691550D03*
%TO.N,3V3*%
X144899050Y-112708451D03*
X144099050Y-114891548D03*
X141915951Y-114308450D03*
X138715952Y-115691550D03*
X139299050Y-113508452D03*
X136315950Y-114891548D03*
X134499050Y-111908452D03*
X133915952Y-114091550D03*
X146499050Y-107908452D03*
X142715950Y-111691550D03*
X145699050Y-110091548D03*
X143515952Y-109291550D03*
X144315952Y-106891550D03*
X142499047Y-103691550D03*
X140099050Y-102891548D03*
X145915951Y-102308450D03*
X144899050Y-104491549D03*
X140099048Y-107691550D03*
X140990005Y-106899784D03*
X138499050Y-105291549D03*
X140099048Y-106091550D03*
X137915951Y-102308450D03*
X135515952Y-109291550D03*
X136899049Y-104708450D03*
X136099048Y-106891550D03*
X133915950Y-106091550D03*
X132981268Y-108499511D03*
X134499050Y-103908452D03*
%TO.N,1V0*%
X140899050Y-108708452D03*
X137915950Y-111908451D03*
%TO.N,GND*%
X135299050Y-105291550D03*
X136315951Y-103108450D03*
X138499050Y-103908452D03*
X140994377Y-104700121D03*
X143515950Y-105508450D03*
X145915951Y-106308450D03*
X144899050Y-108708452D03*
X144099050Y-110891548D03*
X143299049Y-113291550D03*
X137915952Y-114091550D03*
X140315952Y-114891550D03*
X135299050Y-113508451D03*
X136099050Y-111108452D03*
X137699050Y-111108452D03*
X134715951Y-107908450D03*
X133915951Y-110308450D03*
X144315950Y-103108451D03*
%TO.N,3V3*%
X136899050Y-112708451D03*
%TO.N,SW_14*%
X141115952Y-115108450D03*
X141000000Y-117500000D03*
%TO.N,SW_10*%
X145284268Y-113569504D03*
X147500000Y-113000000D03*
X118500000Y-100500000D03*
%TO.N,SW_3*%
X143954235Y-113088221D03*
X147500000Y-112000000D03*
D16*
%TO.N,SW_7*%
X143500000Y-120000000D03*
D15*
X142765807Y-113663243D03*
X117500000Y-93500000D03*
%TO.N,AUD_SD*%
X141407500Y-104177495D03*
X126500000Y-99000000D03*
%TO.N,GND*%
X145000000Y-88980000D03*
%TO.N,CLK100MHZ*%
X161000000Y-111650000D03*
%TO.N,GND*%
X145507500Y-114407107D03*
X157500000Y-111000000D03*
X144500000Y-80500000D03*
X145000000Y-82500000D03*
X134000000Y-82500000D03*
D17*
X138000000Y-106500000D03*
%TD*%
%TA.AperFunction,Conductor*%
%TO.N,GND*%
G36*
X169943039Y-73019685D02*
G01*
X169988794Y-73072489D01*
X170000000Y-73124000D01*
X170000000Y-117876000D01*
X169980315Y-117943039D01*
X169927511Y-117988794D01*
X169876000Y-118000000D01*
X141561674Y-118000000D01*
X141494635Y-117980315D01*
X141448880Y-117927511D01*
X141438936Y-117858353D01*
X141463298Y-117800514D01*
X141468665Y-117793518D01*
X141480861Y-117777625D01*
X141536330Y-117643709D01*
X141555250Y-117500000D01*
X141536330Y-117356291D01*
X141480861Y-117222375D01*
X141392621Y-117107379D01*
X141277625Y-117019139D01*
X141277622Y-117019138D01*
X141271177Y-117014192D01*
X141272973Y-117011851D01*
X141234520Y-116971538D01*
X141222856Y-116911081D01*
X141221202Y-116911081D01*
X141221202Y-116902953D01*
X141208772Y-116808541D01*
X141202282Y-116759244D01*
X141146813Y-116625328D01*
X141058573Y-116510332D01*
X140943577Y-116422092D01*
X140943576Y-116422091D01*
X140943574Y-116422090D01*
X140809664Y-116366624D01*
X140809662Y-116366623D01*
X140809661Y-116366623D01*
X140731153Y-116356287D01*
X140665953Y-116347703D01*
X140665951Y-116347703D01*
X140522243Y-116366623D01*
X140522239Y-116366624D01*
X140388328Y-116422091D01*
X140388326Y-116422092D01*
X140292298Y-116495777D01*
X140227129Y-116520971D01*
X140158684Y-116506932D01*
X140108694Y-116458118D01*
X140093873Y-116413586D01*
X140086330Y-116356292D01*
X140086328Y-116356287D01*
X140082772Y-116347703D01*
X140051503Y-116272211D01*
X145650749Y-116272211D01*
X145650749Y-116272212D01*
X145669669Y-116415920D01*
X145669670Y-116415924D01*
X145725136Y-116549834D01*
X145725137Y-116549836D01*
X145725138Y-116549837D01*
X145813378Y-116664833D01*
X145928374Y-116753073D01*
X145928375Y-116753073D01*
X145928376Y-116753074D01*
X145943272Y-116759244D01*
X146062290Y-116808542D01*
X146189279Y-116825260D01*
X146205998Y-116827462D01*
X146205999Y-116827462D01*
X146206000Y-116827462D01*
X146220976Y-116825490D01*
X146349708Y-116808542D01*
X146483624Y-116753073D01*
X146598620Y-116664833D01*
X146686860Y-116549837D01*
X146742329Y-116415921D01*
X146761249Y-116272212D01*
X146760276Y-116264825D01*
X146771039Y-116195793D01*
X146807726Y-116150266D01*
X146892621Y-116085124D01*
X146980861Y-115970128D01*
X147036330Y-115836212D01*
X147055250Y-115692503D01*
X147055124Y-115691549D01*
X147047446Y-115633227D01*
X147036330Y-115548794D01*
X146980861Y-115414878D01*
X146892621Y-115299882D01*
X146777625Y-115211642D01*
X146777624Y-115211641D01*
X146777622Y-115211640D01*
X146643712Y-115156174D01*
X146643710Y-115156173D01*
X146643709Y-115156173D01*
X146571854Y-115146713D01*
X146500001Y-115137253D01*
X146499999Y-115137253D01*
X146356291Y-115156173D01*
X146356287Y-115156174D01*
X146222377Y-115211640D01*
X146107379Y-115299882D01*
X146019137Y-115414880D01*
X145963671Y-115548790D01*
X145963670Y-115548794D01*
X145944750Y-115692502D01*
X145945723Y-115699893D01*
X145934955Y-115768928D01*
X145898270Y-115814450D01*
X145813380Y-115879589D01*
X145725136Y-115994589D01*
X145669670Y-116128499D01*
X145669669Y-116128503D01*
X145650749Y-116272211D01*
X140051503Y-116272211D01*
X140033141Y-116227879D01*
X140030862Y-116222377D01*
X140030861Y-116222376D01*
X140030861Y-116222375D01*
X139942621Y-116107379D01*
X139827625Y-116019139D01*
X139827624Y-116019138D01*
X139827622Y-116019137D01*
X139693712Y-115963671D01*
X139693710Y-115963670D01*
X139693709Y-115963670D01*
X139621854Y-115954210D01*
X139550001Y-115944750D01*
X139549999Y-115944750D01*
X139498474Y-115951533D01*
X139406291Y-115963670D01*
X139406290Y-115963670D01*
X139398234Y-115964731D01*
X139397988Y-115962864D01*
X139338524Y-115961445D01*
X139280664Y-115922279D01*
X139253164Y-115858048D01*
X139253348Y-115827154D01*
X139271202Y-115691550D01*
X139252282Y-115547841D01*
X139210429Y-115446798D01*
X139196814Y-115413927D01*
X139196813Y-115413926D01*
X139196813Y-115413925D01*
X139108573Y-115298929D01*
X138993577Y-115210689D01*
X138993576Y-115210688D01*
X138993574Y-115210687D01*
X138859664Y-115155221D01*
X138859662Y-115155220D01*
X138859661Y-115155220D01*
X138847554Y-115153626D01*
X138822399Y-115150314D01*
X138758503Y-115122046D01*
X138749535Y-115108450D01*
X140560702Y-115108450D01*
X140574287Y-115211640D01*
X140579622Y-115252158D01*
X140579623Y-115252162D01*
X140635089Y-115386072D01*
X140635090Y-115386074D01*
X140635091Y-115386075D01*
X140723331Y-115501071D01*
X140838327Y-115589311D01*
X140838328Y-115589311D01*
X140838329Y-115589312D01*
X140882965Y-115607800D01*
X140972243Y-115644780D01*
X141099232Y-115661498D01*
X141115951Y-115663700D01*
X141115952Y-115663700D01*
X141115953Y-115663700D01*
X141130929Y-115661728D01*
X141259661Y-115644780D01*
X141381887Y-115594152D01*
X141451355Y-115586684D01*
X141513834Y-115617959D01*
X141527706Y-115633219D01*
X141547342Y-115658808D01*
X141662338Y-115747048D01*
X141796254Y-115802517D01*
X141923243Y-115819235D01*
X141939962Y-115821437D01*
X141939963Y-115821437D01*
X141939964Y-115821437D01*
X141954940Y-115819465D01*
X142083672Y-115802517D01*
X142217588Y-115747048D01*
X142332584Y-115658808D01*
X142420824Y-115543812D01*
X142476293Y-115409896D01*
X142495213Y-115266187D01*
X142484073Y-115181573D01*
X142494838Y-115112540D01*
X142541218Y-115060284D01*
X142608487Y-115041398D01*
X142675287Y-115061878D01*
X142682486Y-115067004D01*
X142729874Y-115103366D01*
X142729875Y-115103366D01*
X142729876Y-115103367D01*
X142742148Y-115108450D01*
X142863790Y-115158835D01*
X142990779Y-115175553D01*
X143007498Y-115177755D01*
X143007499Y-115177755D01*
X143007500Y-115177755D01*
X143022476Y-115175783D01*
X143151208Y-115158835D01*
X143285124Y-115103366D01*
X143388973Y-115023678D01*
X143454137Y-114998486D01*
X143522582Y-115012524D01*
X143572573Y-115061337D01*
X143579017Y-115074603D01*
X143613907Y-115158835D01*
X143618189Y-115169173D01*
X143706429Y-115284169D01*
X143821425Y-115372409D01*
X143955341Y-115427878D01*
X144082330Y-115444596D01*
X144099049Y-115446798D01*
X144099050Y-115446798D01*
X144099051Y-115446798D01*
X144114027Y-115444826D01*
X144242759Y-115427878D01*
X144376675Y-115372409D01*
X144491671Y-115284169D01*
X144579911Y-115169173D01*
X144635380Y-115035257D01*
X144654300Y-114891548D01*
X144635380Y-114747839D01*
X144593529Y-114646800D01*
X144579912Y-114613925D01*
X144579911Y-114613924D01*
X144579911Y-114613923D01*
X144491671Y-114498927D01*
X144376675Y-114410687D01*
X144376674Y-114410686D01*
X144376672Y-114410685D01*
X144242762Y-114355219D01*
X144242760Y-114355218D01*
X144242759Y-114355218D01*
X144141107Y-114341835D01*
X144099051Y-114336298D01*
X144099049Y-114336298D01*
X143955341Y-114355218D01*
X143955337Y-114355219D01*
X143821427Y-114410685D01*
X143783943Y-114439448D01*
X143717577Y-114490372D01*
X143652410Y-114515566D01*
X143583965Y-114501528D01*
X143533975Y-114452714D01*
X143527531Y-114439448D01*
X143488361Y-114344882D01*
X143488360Y-114344881D01*
X143488360Y-114344880D01*
X143400120Y-114229884D01*
X143285124Y-114141644D01*
X143285121Y-114141643D01*
X143285119Y-114141641D01*
X143278085Y-114137580D01*
X143279214Y-114135623D01*
X143233934Y-114099135D01*
X143211869Y-114032841D01*
X143229148Y-113965142D01*
X143237408Y-113952935D01*
X143246668Y-113940868D01*
X143302137Y-113806952D01*
X143321057Y-113663243D01*
X143302652Y-113523449D01*
X143313417Y-113454417D01*
X143359797Y-113402161D01*
X143427065Y-113383275D01*
X143493866Y-113403755D01*
X143523966Y-113431779D01*
X143561614Y-113480842D01*
X143676610Y-113569082D01*
X143676611Y-113569082D01*
X143676612Y-113569083D01*
X143717445Y-113585996D01*
X143810526Y-113624551D01*
X143937515Y-113641269D01*
X143954234Y-113643471D01*
X143954235Y-113643471D01*
X143954236Y-113643471D01*
X143969212Y-113641499D01*
X144097944Y-113624551D01*
X144231860Y-113569082D01*
X144346856Y-113480842D01*
X144435096Y-113365846D01*
X144477345Y-113263844D01*
X144521182Y-113209445D01*
X144587476Y-113187379D01*
X144639354Y-113196738D01*
X144698459Y-113221220D01*
X144752862Y-113265061D01*
X144774927Y-113331355D01*
X144765568Y-113383232D01*
X144747938Y-113425795D01*
X144729074Y-113569082D01*
X144729018Y-113569504D01*
X144746057Y-113698929D01*
X144747938Y-113713212D01*
X144747939Y-113713216D01*
X144803405Y-113847126D01*
X144803406Y-113847128D01*
X144803407Y-113847129D01*
X144891647Y-113962125D01*
X145006643Y-114050365D01*
X145006644Y-114050365D01*
X145006645Y-114050366D01*
X145019919Y-114055864D01*
X145140559Y-114105834D01*
X145267548Y-114122552D01*
X145284267Y-114124754D01*
X145284268Y-114124754D01*
X145284269Y-114124754D01*
X145299245Y-114122782D01*
X145427977Y-114105834D01*
X145561893Y-114050365D01*
X145620180Y-114005638D01*
X145685347Y-113980444D01*
X145743118Y-113989453D01*
X145856291Y-114036330D01*
X145983280Y-114053048D01*
X145999999Y-114055250D01*
X146000000Y-114055250D01*
X146000001Y-114055250D01*
X146014977Y-114053278D01*
X146143709Y-114036330D01*
X146277625Y-113980861D01*
X146392621Y-113892621D01*
X146480861Y-113777625D01*
X146536330Y-113643709D01*
X146555250Y-113500000D01*
X146536330Y-113356291D01*
X146484362Y-113230827D01*
X146480862Y-113222377D01*
X146480861Y-113222376D01*
X146480861Y-113222375D01*
X146392621Y-113107379D01*
X146277625Y-113019139D01*
X146277624Y-113019138D01*
X146277622Y-113019137D01*
X146143712Y-112963671D01*
X146143710Y-112963670D01*
X146143709Y-112963670D01*
X146064198Y-112953202D01*
X146000001Y-112944750D01*
X145999999Y-112944750D01*
X145856291Y-112963670D01*
X145856287Y-112963671D01*
X145722376Y-113019138D01*
X145722374Y-113019139D01*
X145664086Y-113063865D01*
X145598916Y-113089059D01*
X145541150Y-113080051D01*
X145484856Y-113056733D01*
X145430456Y-113012895D01*
X145408390Y-112946601D01*
X145417749Y-112894724D01*
X145435380Y-112852160D01*
X145454300Y-112708451D01*
X145435380Y-112564742D01*
X145397050Y-112472204D01*
X145379912Y-112430828D01*
X145379911Y-112430827D01*
X145379911Y-112430826D01*
X145291671Y-112315830D01*
X145176675Y-112227590D01*
X145176674Y-112227589D01*
X145176672Y-112227588D01*
X145042762Y-112172122D01*
X145042760Y-112172121D01*
X145042759Y-112172121D01*
X144970904Y-112162661D01*
X144899051Y-112153201D01*
X144899049Y-112153201D01*
X144755341Y-112172121D01*
X144755337Y-112172122D01*
X144621427Y-112227588D01*
X144506429Y-112315830D01*
X144418188Y-112430827D01*
X144375940Y-112532824D01*
X144332099Y-112587227D01*
X144265805Y-112609292D01*
X144213927Y-112599932D01*
X144097947Y-112551892D01*
X144097945Y-112551891D01*
X144097944Y-112551891D01*
X143979749Y-112536330D01*
X143954236Y-112532971D01*
X143954234Y-112532971D01*
X143810526Y-112551891D01*
X143810522Y-112551892D01*
X143676612Y-112607358D01*
X143561614Y-112695600D01*
X143473372Y-112810598D01*
X143417906Y-112944508D01*
X143417905Y-112944512D01*
X143398985Y-113088220D01*
X143398985Y-113088221D01*
X143417389Y-113228011D01*
X143406624Y-113297047D01*
X143360244Y-113349303D01*
X143292975Y-113368188D01*
X143226174Y-113347708D01*
X143196075Y-113319684D01*
X143174739Y-113291879D01*
X143158428Y-113270622D01*
X143043432Y-113182382D01*
X143043431Y-113182381D01*
X143043429Y-113182380D01*
X142909519Y-113126914D01*
X142909517Y-113126913D01*
X142909516Y-113126913D01*
X142837661Y-113117453D01*
X142765808Y-113107993D01*
X142765806Y-113107993D01*
X142622098Y-113126913D01*
X142622094Y-113126914D01*
X142488184Y-113182380D01*
X142373186Y-113270622D01*
X142284944Y-113385620D01*
X142229478Y-113519530D01*
X142229477Y-113519535D01*
X142210025Y-113667280D01*
X142181758Y-113731177D01*
X142123433Y-113769647D01*
X142068051Y-113770642D01*
X142067717Y-113773181D01*
X142059660Y-113772120D01*
X141921557Y-113753938D01*
X141915952Y-113753200D01*
X141915950Y-113753200D01*
X141772242Y-113772120D01*
X141772238Y-113772121D01*
X141638328Y-113827587D01*
X141523330Y-113915829D01*
X141435088Y-114030827D01*
X141379622Y-114164737D01*
X141379621Y-114164741D01*
X141360701Y-114308449D01*
X141360701Y-114308452D01*
X141376715Y-114430090D01*
X141365949Y-114499125D01*
X141319569Y-114551381D01*
X141252301Y-114570266D01*
X141237591Y-114569214D01*
X141115954Y-114553200D01*
X141115951Y-114553200D01*
X140972243Y-114572120D01*
X140972239Y-114572121D01*
X140838329Y-114627587D01*
X140723331Y-114715829D01*
X140635089Y-114830827D01*
X140579623Y-114964737D01*
X140579622Y-114964741D01*
X140560702Y-115108450D01*
X138749535Y-115108450D01*
X138720032Y-115063721D01*
X138719202Y-114993856D01*
X138725792Y-114975863D01*
X138752333Y-114917748D01*
X138770769Y-114789522D01*
X138770769Y-114789520D01*
X138770769Y-114780653D01*
X138772894Y-114780653D01*
X138781129Y-114723326D01*
X138812735Y-114681104D01*
X138817544Y-114676936D01*
X138817548Y-114676934D01*
X138902381Y-114579030D01*
X138956196Y-114461193D01*
X138974632Y-114332967D01*
X138956196Y-114204741D01*
X138950564Y-114192410D01*
X138940620Y-114123254D01*
X138969643Y-114059697D01*
X139028421Y-114021922D01*
X139098290Y-114021920D01*
X139110811Y-114026337D01*
X139155341Y-114044782D01*
X139268630Y-114059697D01*
X139299049Y-114063702D01*
X139299050Y-114063702D01*
X139299051Y-114063702D01*
X139314027Y-114061730D01*
X139442759Y-114044782D01*
X139576675Y-113989313D01*
X139691671Y-113901073D01*
X139779911Y-113786077D01*
X139835380Y-113652161D01*
X139854300Y-113508452D01*
X139835380Y-113364743D01*
X139785691Y-113244781D01*
X139779912Y-113230829D01*
X139779911Y-113230828D01*
X139779911Y-113230827D01*
X139691671Y-113115831D01*
X139576675Y-113027591D01*
X139576674Y-113027590D01*
X139576672Y-113027589D01*
X139442762Y-112972123D01*
X139442760Y-112972122D01*
X139442759Y-112972122D01*
X139370904Y-112962662D01*
X139299051Y-112953202D01*
X139299049Y-112953202D01*
X139155341Y-112972122D01*
X139155337Y-112972123D01*
X139021427Y-113027589D01*
X138906429Y-113115831D01*
X138818187Y-113230829D01*
X138762721Y-113364739D01*
X138762720Y-113364743D01*
X138743800Y-113508451D01*
X138743800Y-113508452D01*
X138762720Y-113652160D01*
X138762721Y-113652164D01*
X138796850Y-113734560D01*
X138804319Y-113804029D01*
X138773043Y-113866508D01*
X138712954Y-113902160D01*
X138647355Y-113900989D01*
X138584273Y-113882467D01*
X138584271Y-113882467D01*
X138454727Y-113882467D01*
X138454725Y-113882467D01*
X138330434Y-113918961D01*
X138330431Y-113918962D01*
X138330430Y-113918963D01*
X138296350Y-113940865D01*
X138221449Y-113989000D01*
X138136617Y-114086904D01*
X138136616Y-114086905D01*
X138082801Y-114204741D01*
X138064366Y-114332967D01*
X138064366Y-114341835D01*
X138062244Y-114341835D01*
X138053996Y-114399181D01*
X138022413Y-114441373D01*
X138017584Y-114445557D01*
X137932756Y-114543454D01*
X137932753Y-114543460D01*
X137878938Y-114661296D01*
X137860503Y-114789522D01*
X137878938Y-114917747D01*
X137932753Y-115035583D01*
X137932754Y-115035585D01*
X138017587Y-115133489D01*
X138126567Y-115203526D01*
X138173338Y-115217259D01*
X138232116Y-115255032D01*
X138261142Y-115318587D01*
X138251199Y-115387746D01*
X138236787Y-115411713D01*
X138235093Y-115413919D01*
X138235090Y-115413926D01*
X138179623Y-115547837D01*
X138179622Y-115547841D01*
X138164369Y-115663700D01*
X138160702Y-115691550D01*
X138176882Y-115814450D01*
X138179622Y-115835258D01*
X138179623Y-115835262D01*
X138235089Y-115969172D01*
X138235090Y-115969174D01*
X138235091Y-115969175D01*
X138323331Y-116084171D01*
X138438327Y-116172411D01*
X138438328Y-116172411D01*
X138438329Y-116172412D01*
X138468495Y-116184907D01*
X138572243Y-116227880D01*
X138699232Y-116244598D01*
X138715951Y-116246800D01*
X138715952Y-116246800D01*
X138715953Y-116246800D01*
X138767477Y-116240016D01*
X138859661Y-116227880D01*
X138859661Y-116227879D01*
X138867718Y-116226819D01*
X138867964Y-116228690D01*
X138927402Y-116230097D01*
X138985271Y-116269251D01*
X139012784Y-116333475D01*
X139012602Y-116364399D01*
X138994750Y-116499997D01*
X138994750Y-116500000D01*
X139013670Y-116643708D01*
X139013671Y-116643712D01*
X139069137Y-116777622D01*
X139069138Y-116777624D01*
X139069139Y-116777625D01*
X139157379Y-116892621D01*
X139272375Y-116980861D01*
X139406291Y-117036330D01*
X139533280Y-117053048D01*
X139549999Y-117055250D01*
X139550000Y-117055250D01*
X139550001Y-117055250D01*
X139564977Y-117053278D01*
X139693709Y-117036330D01*
X139827625Y-116980861D01*
X139923653Y-116907175D01*
X139988821Y-116881981D01*
X140057266Y-116896019D01*
X140107256Y-116944832D01*
X140122078Y-116989364D01*
X140125039Y-117011851D01*
X140128261Y-117036328D01*
X140129622Y-117046661D01*
X140129623Y-117046665D01*
X140185089Y-117180575D01*
X140185090Y-117180577D01*
X140185091Y-117180578D01*
X140273331Y-117295574D01*
X140388327Y-117383814D01*
X140388329Y-117383814D01*
X140394775Y-117388761D01*
X140392981Y-117391098D01*
X140431444Y-117431440D01*
X140443089Y-117491873D01*
X140444750Y-117491873D01*
X140444750Y-117500000D01*
X140463670Y-117643708D01*
X140463671Y-117643712D01*
X140519138Y-117777623D01*
X140519139Y-117777625D01*
X140536702Y-117800514D01*
X140561896Y-117865684D01*
X140547857Y-117934128D01*
X140499043Y-117984118D01*
X140438326Y-118000000D01*
X119624000Y-118000000D01*
X119556961Y-117980315D01*
X119511206Y-117927511D01*
X119500000Y-117876000D01*
X119500000Y-116499999D01*
X125444750Y-116499999D01*
X125444750Y-116500000D01*
X125463670Y-116643708D01*
X125463671Y-116643712D01*
X125519137Y-116777622D01*
X125519138Y-116777624D01*
X125519139Y-116777625D01*
X125607379Y-116892621D01*
X125722375Y-116980861D01*
X125856291Y-117036330D01*
X125983280Y-117053048D01*
X125999999Y-117055250D01*
X126000000Y-117055250D01*
X126000001Y-117055250D01*
X126014977Y-117053278D01*
X126143709Y-117036330D01*
X126277625Y-116980861D01*
X126392621Y-116892621D01*
X126480861Y-116777625D01*
X126536330Y-116643709D01*
X126555250Y-116500000D01*
X126536330Y-116356291D01*
X126483141Y-116227879D01*
X126480862Y-116222377D01*
X126480861Y-116222376D01*
X126480861Y-116222375D01*
X126392621Y-116107379D01*
X126277625Y-116019139D01*
X126277624Y-116019138D01*
X126277622Y-116019137D01*
X126143712Y-115963671D01*
X126143710Y-115963670D01*
X126143709Y-115963670D01*
X126071854Y-115954210D01*
X126000001Y-115944750D01*
X125999999Y-115944750D01*
X125856291Y-115963670D01*
X125856287Y-115963671D01*
X125722377Y-116019137D01*
X125607379Y-116107379D01*
X125519137Y-116222377D01*
X125463671Y-116356287D01*
X125463670Y-116356291D01*
X125444750Y-116499999D01*
X119500000Y-116499999D01*
X119500000Y-114891548D01*
X135760700Y-114891548D01*
X135771800Y-114975863D01*
X135779620Y-115035256D01*
X135779621Y-115035260D01*
X135835087Y-115169170D01*
X135835088Y-115169171D01*
X135835089Y-115169173D01*
X135923329Y-115284169D01*
X136038325Y-115372409D01*
X136172241Y-115427878D01*
X136299230Y-115444596D01*
X136315949Y-115446798D01*
X136315950Y-115446798D01*
X136315951Y-115446798D01*
X136330927Y-115444826D01*
X136459659Y-115427878D01*
X136593575Y-115372409D01*
X136708571Y-115284169D01*
X136796811Y-115169173D01*
X136852280Y-115035257D01*
X136871200Y-114891548D01*
X136852280Y-114747839D01*
X136810429Y-114646800D01*
X136796812Y-114613925D01*
X136796811Y-114613924D01*
X136796811Y-114613923D01*
X136708571Y-114498927D01*
X136593575Y-114410687D01*
X136593574Y-114410686D01*
X136593572Y-114410685D01*
X136459662Y-114355219D01*
X136459660Y-114355218D01*
X136459659Y-114355218D01*
X136358007Y-114341835D01*
X136315951Y-114336298D01*
X136315949Y-114336298D01*
X136172241Y-114355218D01*
X136172237Y-114355219D01*
X136038327Y-114410685D01*
X135923329Y-114498927D01*
X135835087Y-114613925D01*
X135779621Y-114747835D01*
X135779620Y-114747839D01*
X135760700Y-114891548D01*
X119500000Y-114891548D01*
X119500000Y-113429999D01*
X120702285Y-113429999D01*
X120702285Y-113430000D01*
X120721102Y-113633082D01*
X120776917Y-113829247D01*
X120776922Y-113829260D01*
X120867827Y-114011821D01*
X120990737Y-114174581D01*
X121141458Y-114311980D01*
X121141460Y-114311982D01*
X121180732Y-114336298D01*
X121314863Y-114419348D01*
X121505044Y-114493024D01*
X121705524Y-114530500D01*
X121705526Y-114530500D01*
X121909474Y-114530500D01*
X121909476Y-114530500D01*
X122109956Y-114493024D01*
X122300137Y-114419348D01*
X122473541Y-114311981D01*
X122624264Y-114174579D01*
X122686965Y-114091550D01*
X133360702Y-114091550D01*
X133371633Y-114174581D01*
X133379622Y-114235258D01*
X133379623Y-114235262D01*
X133435089Y-114369172D01*
X133435090Y-114369174D01*
X133435091Y-114369175D01*
X133523331Y-114484171D01*
X133638327Y-114572411D01*
X133638328Y-114572411D01*
X133638329Y-114572412D01*
X133654307Y-114579030D01*
X133772243Y-114627880D01*
X133899232Y-114644598D01*
X133915951Y-114646800D01*
X133915952Y-114646800D01*
X133915953Y-114646800D01*
X133930929Y-114644828D01*
X134059661Y-114627880D01*
X134193577Y-114572411D01*
X134308573Y-114484171D01*
X134396813Y-114369175D01*
X134452282Y-114235259D01*
X134471202Y-114091550D01*
X134470590Y-114086905D01*
X134465780Y-114050365D01*
X134452282Y-113947841D01*
X134403161Y-113829250D01*
X134396814Y-113813927D01*
X134396813Y-113813926D01*
X134396813Y-113813925D01*
X134308573Y-113698929D01*
X134193577Y-113610689D01*
X134193576Y-113610688D01*
X134193574Y-113610687D01*
X134059664Y-113555221D01*
X134059662Y-113555220D01*
X134059661Y-113555220D01*
X133987806Y-113545760D01*
X133915953Y-113536300D01*
X133915951Y-113536300D01*
X133772243Y-113555220D01*
X133772239Y-113555221D01*
X133638329Y-113610687D01*
X133523331Y-113698929D01*
X133435089Y-113813927D01*
X133379623Y-113947837D01*
X133379622Y-113947841D01*
X133361314Y-114086905D01*
X133360702Y-114091550D01*
X122686965Y-114091550D01*
X122747173Y-114011821D01*
X122838082Y-113829250D01*
X122893897Y-113633083D01*
X122912715Y-113430000D01*
X122909251Y-113392622D01*
X122893897Y-113226917D01*
X122888926Y-113209445D01*
X122838082Y-113030750D01*
X122834275Y-113023105D01*
X122751210Y-112856287D01*
X122747173Y-112848179D01*
X122652170Y-112722375D01*
X122624262Y-112685418D01*
X122473541Y-112548019D01*
X122473539Y-112548017D01*
X122395988Y-112500000D01*
X122944750Y-112500000D01*
X122958884Y-112607360D01*
X122963670Y-112643708D01*
X122963671Y-112643712D01*
X123019137Y-112777622D01*
X123019138Y-112777624D01*
X123019139Y-112777625D01*
X123107379Y-112892621D01*
X123222375Y-112980861D01*
X123356291Y-113036330D01*
X123483280Y-113053048D01*
X123499999Y-113055250D01*
X123500000Y-113055250D01*
X123500001Y-113055250D01*
X123514977Y-113053278D01*
X123643709Y-113036330D01*
X123777625Y-112980861D01*
X123892621Y-112892621D01*
X123980861Y-112777625D01*
X124009514Y-112708450D01*
X136343800Y-112708450D01*
X136343800Y-112708451D01*
X136362720Y-112852159D01*
X136362721Y-112852163D01*
X136418187Y-112986073D01*
X136418188Y-112986075D01*
X136418189Y-112986076D01*
X136506429Y-113101072D01*
X136621425Y-113189312D01*
X136621426Y-113189312D01*
X136621427Y-113189313D01*
X136666063Y-113207801D01*
X136755341Y-113244781D01*
X136882330Y-113261499D01*
X136899049Y-113263701D01*
X136899050Y-113263701D01*
X136899051Y-113263701D01*
X136914027Y-113261729D01*
X137042759Y-113244781D01*
X137176675Y-113189312D01*
X137291671Y-113101072D01*
X137379911Y-112986076D01*
X137435380Y-112852160D01*
X137454300Y-112708451D01*
X137435380Y-112564742D01*
X137411395Y-112506838D01*
X137403927Y-112437370D01*
X137435202Y-112374891D01*
X137495291Y-112339239D01*
X137565116Y-112341733D01*
X137601444Y-112361012D01*
X137638323Y-112389311D01*
X137638324Y-112389311D01*
X137638325Y-112389312D01*
X137772241Y-112444781D01*
X137899230Y-112461499D01*
X137915949Y-112463701D01*
X137915950Y-112463701D01*
X137915951Y-112463701D01*
X137930927Y-112461729D01*
X138059659Y-112444781D01*
X138193575Y-112389312D01*
X138308571Y-112301072D01*
X138396811Y-112186076D01*
X138452280Y-112052160D01*
X138471200Y-111908451D01*
X138452280Y-111764742D01*
X138424368Y-111697356D01*
X138720580Y-111697356D01*
X138738735Y-111835258D01*
X138739500Y-111841064D01*
X138739501Y-111841068D01*
X138794967Y-111974978D01*
X138794968Y-111974980D01*
X138794969Y-111974981D01*
X138883209Y-112089977D01*
X138998205Y-112178217D01*
X138998206Y-112178217D01*
X138998207Y-112178218D01*
X139017181Y-112186077D01*
X139132121Y-112233686D01*
X139259110Y-112250404D01*
X139275829Y-112252606D01*
X139275830Y-112252606D01*
X139275831Y-112252606D01*
X139290807Y-112250634D01*
X139419539Y-112233686D01*
X139553455Y-112178217D01*
X139668451Y-112089977D01*
X139756691Y-111974981D01*
X139812160Y-111841065D01*
X139830056Y-111705131D01*
X139858323Y-111641236D01*
X139916647Y-111602765D01*
X139981400Y-111601994D01*
X139981436Y-111601750D01*
X139983005Y-111601975D01*
X139986512Y-111601934D01*
X139987930Y-111602341D01*
X139990215Y-111603012D01*
X139990216Y-111603012D01*
X140119761Y-111603012D01*
X140119761Y-111603011D01*
X140244057Y-111566516D01*
X140353037Y-111496479D01*
X140437870Y-111398575D01*
X140491685Y-111280738D01*
X140510121Y-111152512D01*
X140491685Y-111024286D01*
X140454317Y-110942462D01*
X141287606Y-110942462D01*
X141287606Y-110942463D01*
X141306526Y-111086171D01*
X141306527Y-111086175D01*
X141361993Y-111220085D01*
X141361994Y-111220087D01*
X141361995Y-111220088D01*
X141450235Y-111335084D01*
X141565231Y-111423324D01*
X141565232Y-111423324D01*
X141565233Y-111423325D01*
X141609869Y-111441813D01*
X141699147Y-111478793D01*
X141826136Y-111495511D01*
X141842855Y-111497713D01*
X141842856Y-111497713D01*
X141842857Y-111497713D01*
X141857833Y-111495741D01*
X141986565Y-111478793D01*
X142001942Y-111472423D01*
X142071409Y-111464952D01*
X142133889Y-111496225D01*
X142169543Y-111556313D01*
X142172335Y-111603168D01*
X142160700Y-111691547D01*
X142160700Y-111691550D01*
X142179620Y-111835258D01*
X142179621Y-111835262D01*
X142235087Y-111969172D01*
X142235088Y-111969174D01*
X142235089Y-111969175D01*
X142323329Y-112084171D01*
X142438325Y-112172411D01*
X142438326Y-112172411D01*
X142438327Y-112172412D01*
X142471929Y-112186330D01*
X142572241Y-112227880D01*
X142699230Y-112244598D01*
X142715949Y-112246800D01*
X142715950Y-112246800D01*
X142715951Y-112246800D01*
X142730927Y-112244828D01*
X142859659Y-112227880D01*
X142993575Y-112172411D01*
X143108571Y-112084171D01*
X143173158Y-112000000D01*
X146944750Y-112000000D01*
X146961978Y-112130861D01*
X146963670Y-112143708D01*
X146963671Y-112143712D01*
X147019137Y-112277622D01*
X147019138Y-112277624D01*
X147019139Y-112277625D01*
X147107379Y-112392621D01*
X147116711Y-112399782D01*
X147119113Y-112401625D01*
X147160316Y-112458053D01*
X147164470Y-112527799D01*
X147130257Y-112588719D01*
X147119113Y-112598375D01*
X147107381Y-112607377D01*
X147107380Y-112607378D01*
X147107379Y-112607379D01*
X147079503Y-112643708D01*
X147019137Y-112722377D01*
X146963671Y-112856287D01*
X146963670Y-112856291D01*
X146946584Y-112986073D01*
X146944750Y-113000000D01*
X146958056Y-113101071D01*
X146963670Y-113143708D01*
X146963671Y-113143712D01*
X147019137Y-113277622D01*
X147019138Y-113277624D01*
X147019139Y-113277625D01*
X147107379Y-113392621D01*
X147222375Y-113480861D01*
X147222377Y-113480861D01*
X147228823Y-113485808D01*
X147227214Y-113487904D01*
X147266415Y-113529018D01*
X147279637Y-113597625D01*
X147253669Y-113662490D01*
X147249913Y-113667038D01*
X147174620Y-113753932D01*
X147174617Y-113753938D01*
X147120802Y-113871774D01*
X147102367Y-114000000D01*
X147120802Y-114128225D01*
X147120804Y-114128232D01*
X147124706Y-114136775D01*
X147134649Y-114205933D01*
X147119907Y-114245462D01*
X147120802Y-114245871D01*
X147063302Y-114371774D01*
X147044867Y-114500000D01*
X147063302Y-114628225D01*
X147103310Y-114715829D01*
X147117118Y-114746063D01*
X147201951Y-114843967D01*
X147310931Y-114914004D01*
X147435225Y-114950499D01*
X147435227Y-114950500D01*
X147435228Y-114950500D01*
X147564773Y-114950500D01*
X147564773Y-114950499D01*
X147689069Y-114914004D01*
X147798049Y-114843967D01*
X147882882Y-114746063D01*
X147936697Y-114628226D01*
X147955133Y-114500000D01*
X147936697Y-114371774D01*
X147932793Y-114363225D01*
X147922850Y-114294067D01*
X147937594Y-114254539D01*
X147936698Y-114254130D01*
X147959957Y-114203200D01*
X147994197Y-114128226D01*
X148012633Y-114000000D01*
X147994197Y-113871774D01*
X147940382Y-113753937D01*
X147855549Y-113656033D01*
X147837255Y-113644276D01*
X147791501Y-113591473D01*
X147781557Y-113522314D01*
X147810582Y-113458759D01*
X147828803Y-113441590D01*
X147892621Y-113392621D01*
X147980861Y-113277625D01*
X148036330Y-113143709D01*
X148055250Y-113000000D01*
X148036330Y-112856291D01*
X147980861Y-112722375D01*
X147892621Y-112607379D01*
X147880886Y-112598374D01*
X147839685Y-112541950D01*
X147835529Y-112472204D01*
X147869740Y-112411283D01*
X147880876Y-112401632D01*
X147892621Y-112392621D01*
X147901625Y-112380886D01*
X147958050Y-112339685D01*
X148027796Y-112335529D01*
X148088717Y-112369740D01*
X148098367Y-112380876D01*
X148107379Y-112392621D01*
X148222375Y-112480861D01*
X148356291Y-112536330D01*
X148474494Y-112551892D01*
X148499999Y-112555250D01*
X148500000Y-112555250D01*
X148500001Y-112555250D01*
X148514977Y-112553278D01*
X148643709Y-112536330D01*
X148777625Y-112480861D01*
X148892621Y-112392621D01*
X148980861Y-112277625D01*
X149036330Y-112143709D01*
X149055250Y-112000000D01*
X149036330Y-111856291D01*
X148980861Y-111722375D01*
X148892621Y-111607379D01*
X148777625Y-111519139D01*
X148777624Y-111519138D01*
X148777622Y-111519137D01*
X148643712Y-111463671D01*
X148643710Y-111463670D01*
X148643709Y-111463670D01*
X148571854Y-111454210D01*
X148500001Y-111444750D01*
X148499999Y-111444750D01*
X148356291Y-111463670D01*
X148356287Y-111463671D01*
X148222377Y-111519137D01*
X148173929Y-111556313D01*
X148107379Y-111607379D01*
X148107378Y-111607380D01*
X148107377Y-111607381D01*
X148098375Y-111619113D01*
X148041947Y-111660316D01*
X147972201Y-111664470D01*
X147911281Y-111630257D01*
X147901625Y-111619113D01*
X147899782Y-111616711D01*
X147892621Y-111607379D01*
X147777625Y-111519139D01*
X147777624Y-111519138D01*
X147777622Y-111519137D01*
X147643712Y-111463671D01*
X147643710Y-111463670D01*
X147643709Y-111463670D01*
X147571854Y-111454210D01*
X147500001Y-111444750D01*
X147499999Y-111444750D01*
X147356291Y-111463670D01*
X147356287Y-111463671D01*
X147222377Y-111519137D01*
X147107379Y-111607379D01*
X147019137Y-111722377D01*
X146963671Y-111856287D01*
X146963670Y-111856291D01*
X146954279Y-111927625D01*
X146944750Y-112000000D01*
X143173158Y-112000000D01*
X143196811Y-111969175D01*
X143252280Y-111835259D01*
X143271200Y-111691550D01*
X143252280Y-111547841D01*
X143196811Y-111413925D01*
X143196810Y-111413924D01*
X143196810Y-111413923D01*
X143104193Y-111293224D01*
X143078998Y-111228055D01*
X143079628Y-111201557D01*
X143097586Y-111065162D01*
X143078666Y-110921453D01*
X143023197Y-110787537D01*
X142934957Y-110672541D01*
X142819961Y-110584301D01*
X142819960Y-110584300D01*
X142819958Y-110584299D01*
X142686048Y-110528833D01*
X142686046Y-110528832D01*
X142686045Y-110528832D01*
X142614190Y-110519372D01*
X142542337Y-110509912D01*
X142542335Y-110509912D01*
X142398627Y-110528832D01*
X142341030Y-110552689D01*
X142271561Y-110560157D01*
X142218092Y-110536502D01*
X142120482Y-110461602D01*
X142120479Y-110461601D01*
X142092616Y-110450060D01*
X144444001Y-110450060D01*
X144461674Y-110584301D01*
X144462921Y-110593768D01*
X144462922Y-110593772D01*
X144518388Y-110727682D01*
X144518389Y-110727684D01*
X144518390Y-110727685D01*
X144606630Y-110842681D01*
X144721626Y-110930921D01*
X144855542Y-110986390D01*
X144982531Y-111003108D01*
X144999250Y-111005310D01*
X144999251Y-111005310D01*
X144999252Y-111005310D01*
X145014228Y-111003338D01*
X145142960Y-110986390D01*
X145276876Y-110930921D01*
X145382334Y-110850000D01*
X159444750Y-110850000D01*
X159462706Y-110986390D01*
X159463670Y-110993708D01*
X159463671Y-110993712D01*
X159519137Y-111127622D01*
X159519138Y-111127624D01*
X159519139Y-111127625D01*
X159607379Y-111242621D01*
X159722375Y-111330861D01*
X159856291Y-111386330D01*
X159983280Y-111403048D01*
X159999999Y-111405250D01*
X160000000Y-111405250D01*
X160000001Y-111405250D01*
X160014977Y-111403278D01*
X160143709Y-111386330D01*
X160277625Y-111330861D01*
X160289730Y-111321571D01*
X160354897Y-111296376D01*
X160423342Y-111310412D01*
X160473333Y-111359225D01*
X160488999Y-111427315D01*
X160479780Y-111467397D01*
X160463670Y-111506290D01*
X160463670Y-111506291D01*
X160451025Y-111602341D01*
X160444750Y-111650000D01*
X160460809Y-111771981D01*
X160463670Y-111793708D01*
X160463671Y-111793712D01*
X160519137Y-111927622D01*
X160519138Y-111927624D01*
X160519139Y-111927625D01*
X160607379Y-112042621D01*
X160722375Y-112130861D01*
X160722376Y-112130861D01*
X160722377Y-112130862D01*
X160767013Y-112149350D01*
X160856291Y-112186330D01*
X160983280Y-112203048D01*
X160999999Y-112205250D01*
X161000000Y-112205250D01*
X161000001Y-112205250D01*
X161014977Y-112203278D01*
X161143709Y-112186330D01*
X161277625Y-112130861D01*
X161392621Y-112042621D01*
X161480861Y-111927625D01*
X161536330Y-111793709D01*
X161555250Y-111650000D01*
X161536330Y-111506291D01*
X161498071Y-111413925D01*
X161480862Y-111372377D01*
X161480861Y-111372376D01*
X161480861Y-111372375D01*
X161392621Y-111257379D01*
X161277625Y-111169139D01*
X161277624Y-111169138D01*
X161277622Y-111169137D01*
X161143712Y-111113671D01*
X161143710Y-111113670D01*
X161143709Y-111113670D01*
X161071854Y-111104210D01*
X161000001Y-111094750D01*
X160999999Y-111094750D01*
X160856291Y-111113670D01*
X160856287Y-111113671D01*
X160722376Y-111169138D01*
X160722375Y-111169138D01*
X160710265Y-111178431D01*
X160645095Y-111203623D01*
X160576651Y-111189583D01*
X160526662Y-111140768D01*
X160511001Y-111072676D01*
X160520218Y-111032607D01*
X160536330Y-110993709D01*
X160555250Y-110850000D01*
X160536330Y-110706291D01*
X160485800Y-110584299D01*
X160480862Y-110572377D01*
X160480861Y-110572376D01*
X160480861Y-110572375D01*
X160392621Y-110457379D01*
X160277625Y-110369139D01*
X160277624Y-110369138D01*
X160277622Y-110369137D01*
X160143712Y-110313671D01*
X160143710Y-110313670D01*
X160143709Y-110313670D01*
X160071854Y-110304210D01*
X160000001Y-110294750D01*
X159999999Y-110294750D01*
X159856291Y-110313670D01*
X159856287Y-110313671D01*
X159722377Y-110369137D01*
X159607379Y-110457379D01*
X159519137Y-110572377D01*
X159463671Y-110706287D01*
X159463670Y-110706291D01*
X159445714Y-110842681D01*
X159444750Y-110850000D01*
X145382334Y-110850000D01*
X145391872Y-110842681D01*
X145480112Y-110727685D01*
X145486792Y-110711555D01*
X145530629Y-110657152D01*
X145596922Y-110635084D01*
X145617529Y-110636065D01*
X145699050Y-110646798D01*
X145842759Y-110627878D01*
X145976675Y-110572409D01*
X146091671Y-110484169D01*
X146179911Y-110369173D01*
X146235380Y-110235257D01*
X146254300Y-110091548D01*
X146235380Y-109947839D01*
X146179911Y-109813923D01*
X146091671Y-109698927D01*
X145976675Y-109610687D01*
X145976674Y-109610686D01*
X145976672Y-109610685D01*
X145842762Y-109555219D01*
X145842760Y-109555218D01*
X145842759Y-109555218D01*
X145770904Y-109545758D01*
X145699051Y-109536298D01*
X145699049Y-109536298D01*
X145555341Y-109555218D01*
X145555337Y-109555219D01*
X145421427Y-109610685D01*
X145306429Y-109698927D01*
X145218186Y-109813926D01*
X145211504Y-109830059D01*
X145167661Y-109884461D01*
X145101366Y-109906523D01*
X145080759Y-109905541D01*
X145052725Y-109901850D01*
X144999252Y-109894810D01*
X144999250Y-109894810D01*
X144855542Y-109913730D01*
X144855538Y-109913731D01*
X144721628Y-109969197D01*
X144606630Y-110057439D01*
X144518388Y-110172437D01*
X144462922Y-110306347D01*
X144462921Y-110306351D01*
X144444001Y-110450060D01*
X142092616Y-110450060D01*
X141986568Y-110406134D01*
X141986566Y-110406133D01*
X141986565Y-110406133D01*
X141914710Y-110396673D01*
X141842857Y-110387213D01*
X141842855Y-110387213D01*
X141699147Y-110406133D01*
X141699143Y-110406134D01*
X141565233Y-110461600D01*
X141450235Y-110549842D01*
X141361993Y-110664840D01*
X141306527Y-110798750D01*
X141306526Y-110798754D01*
X141287606Y-110942462D01*
X140454317Y-110942462D01*
X140437870Y-110906449D01*
X140353037Y-110808545D01*
X140244057Y-110738508D01*
X140244053Y-110738506D01*
X140244052Y-110738506D01*
X140119762Y-110702012D01*
X140119760Y-110702012D01*
X139990216Y-110702012D01*
X139990214Y-110702012D01*
X139865923Y-110738506D01*
X139865920Y-110738507D01*
X139865919Y-110738508D01*
X139814665Y-110771446D01*
X139756938Y-110808545D01*
X139672106Y-110906449D01*
X139672105Y-110906450D01*
X139618290Y-111024286D01*
X139611281Y-111073040D01*
X139582256Y-111136595D01*
X139523477Y-111174369D01*
X139453608Y-111174369D01*
X139441096Y-111169955D01*
X139419539Y-111161026D01*
X139347684Y-111151566D01*
X139275831Y-111142106D01*
X139275829Y-111142106D01*
X139132121Y-111161026D01*
X139132117Y-111161027D01*
X138998207Y-111216493D01*
X138883209Y-111304735D01*
X138794967Y-111419733D01*
X138739501Y-111553643D01*
X138739500Y-111553647D01*
X138721345Y-111691549D01*
X138720580Y-111697356D01*
X138424368Y-111697356D01*
X138401123Y-111641236D01*
X138396812Y-111630828D01*
X138396811Y-111630827D01*
X138396811Y-111630826D01*
X138308571Y-111515830D01*
X138193575Y-111427590D01*
X138193574Y-111427589D01*
X138193572Y-111427588D01*
X138059662Y-111372122D01*
X138059660Y-111372121D01*
X138059659Y-111372121D01*
X137961706Y-111359225D01*
X137915951Y-111353201D01*
X137915949Y-111353201D01*
X137772241Y-111372121D01*
X137772237Y-111372122D01*
X137638327Y-111427588D01*
X137523329Y-111515830D01*
X137435087Y-111630828D01*
X137379621Y-111764738D01*
X137379620Y-111764742D01*
X137360700Y-111908450D01*
X137360700Y-111908451D01*
X137379619Y-112052157D01*
X137379619Y-112052159D01*
X137379620Y-112052160D01*
X137403604Y-112110063D01*
X137411072Y-112179532D01*
X137379796Y-112242011D01*
X137319707Y-112277663D01*
X137249882Y-112275168D01*
X137213558Y-112255891D01*
X137176675Y-112227590D01*
X137176674Y-112227589D01*
X137176672Y-112227588D01*
X137042762Y-112172122D01*
X137042760Y-112172121D01*
X137042759Y-112172121D01*
X136970904Y-112162661D01*
X136899051Y-112153201D01*
X136899049Y-112153201D01*
X136755341Y-112172121D01*
X136755337Y-112172122D01*
X136621427Y-112227588D01*
X136506429Y-112315830D01*
X136418187Y-112430828D01*
X136362721Y-112564738D01*
X136362720Y-112564742D01*
X136343800Y-112708450D01*
X124009514Y-112708450D01*
X124036330Y-112643709D01*
X124055250Y-112500000D01*
X124036330Y-112356291D01*
X123983141Y-112227879D01*
X123980862Y-112222377D01*
X123980861Y-112222376D01*
X123980861Y-112222375D01*
X123892621Y-112107379D01*
X123777625Y-112019139D01*
X123777624Y-112019138D01*
X123777622Y-112019137D01*
X123643712Y-111963671D01*
X123643710Y-111963670D01*
X123643709Y-111963670D01*
X123562831Y-111953022D01*
X123500001Y-111944750D01*
X123499999Y-111944750D01*
X123356291Y-111963670D01*
X123356287Y-111963671D01*
X123222377Y-112019137D01*
X123107379Y-112107379D01*
X123019137Y-112222377D01*
X122963671Y-112356287D01*
X122963670Y-112356291D01*
X122947270Y-112480862D01*
X122944750Y-112500000D01*
X122395988Y-112500000D01*
X122300142Y-112440655D01*
X122300135Y-112440651D01*
X122176151Y-112392620D01*
X122109956Y-112366976D01*
X121909476Y-112329500D01*
X121705524Y-112329500D01*
X121505044Y-112366976D01*
X121505041Y-112366976D01*
X121505041Y-112366977D01*
X121314864Y-112440651D01*
X121314857Y-112440655D01*
X121141460Y-112548017D01*
X121141458Y-112548019D01*
X120990737Y-112685418D01*
X120867827Y-112848178D01*
X120776922Y-113030739D01*
X120776917Y-113030752D01*
X120721102Y-113226917D01*
X120702285Y-113429999D01*
X119500000Y-113429999D01*
X119500000Y-110889999D01*
X120702285Y-110889999D01*
X120702285Y-110890000D01*
X120721102Y-111093082D01*
X120744231Y-111174369D01*
X120776918Y-111289250D01*
X120776920Y-111289254D01*
X120776922Y-111289260D01*
X120867827Y-111471821D01*
X120990737Y-111634581D01*
X121141458Y-111771980D01*
X121141460Y-111771982D01*
X121240641Y-111833392D01*
X121314863Y-111879348D01*
X121505044Y-111953024D01*
X121705524Y-111990500D01*
X121705526Y-111990500D01*
X121909474Y-111990500D01*
X121909476Y-111990500D01*
X122109956Y-111953024D01*
X122225010Y-111908452D01*
X133943800Y-111908452D01*
X133962719Y-112052157D01*
X133962720Y-112052160D01*
X133962721Y-112052164D01*
X134018187Y-112186074D01*
X134018188Y-112186076D01*
X134018189Y-112186077D01*
X134106429Y-112301073D01*
X134221425Y-112389313D01*
X134221426Y-112389313D01*
X134221427Y-112389314D01*
X134251144Y-112401623D01*
X134355341Y-112444782D01*
X134482330Y-112461500D01*
X134499049Y-112463702D01*
X134499050Y-112463702D01*
X134499051Y-112463702D01*
X134514027Y-112461730D01*
X134642759Y-112444782D01*
X134776675Y-112389313D01*
X134891671Y-112301073D01*
X134979911Y-112186077D01*
X135035380Y-112052161D01*
X135054300Y-111908452D01*
X135035380Y-111764743D01*
X134987852Y-111649999D01*
X134979912Y-111630829D01*
X134979911Y-111630828D01*
X134979911Y-111630827D01*
X134891671Y-111515831D01*
X134776675Y-111427591D01*
X134776674Y-111427590D01*
X134776672Y-111427589D01*
X134642762Y-111372123D01*
X134642760Y-111372122D01*
X134642759Y-111372122D01*
X134570904Y-111362662D01*
X134499051Y-111353202D01*
X134499049Y-111353202D01*
X134355341Y-111372122D01*
X134355337Y-111372123D01*
X134221427Y-111427589D01*
X134106429Y-111515831D01*
X134018187Y-111630829D01*
X133962721Y-111764739D01*
X133962720Y-111764742D01*
X133962720Y-111764743D01*
X133943800Y-111908452D01*
X122225010Y-111908452D01*
X122300137Y-111879348D01*
X122473541Y-111771981D01*
X122624264Y-111634579D01*
X122747173Y-111471821D01*
X122838082Y-111289250D01*
X122893897Y-111093083D01*
X122912715Y-110890000D01*
X122909008Y-110849999D01*
X122893897Y-110686917D01*
X122877098Y-110627876D01*
X122838082Y-110490750D01*
X122834805Y-110484169D01*
X122771341Y-110356715D01*
X122747173Y-110308179D01*
X122624264Y-110145421D01*
X122624262Y-110145418D01*
X122473541Y-110008019D01*
X122473539Y-110008017D01*
X122300142Y-109900655D01*
X122300135Y-109900651D01*
X122117914Y-109830059D01*
X122109956Y-109826976D01*
X121909476Y-109789500D01*
X121705524Y-109789500D01*
X121505044Y-109826976D01*
X121505041Y-109826976D01*
X121505041Y-109826977D01*
X121314864Y-109900651D01*
X121314857Y-109900655D01*
X121141460Y-110008017D01*
X121141458Y-110008019D01*
X120990737Y-110145418D01*
X120867827Y-110308178D01*
X120776922Y-110490739D01*
X120776917Y-110490752D01*
X120721102Y-110686917D01*
X120702285Y-110889999D01*
X119500000Y-110889999D01*
X119500000Y-108349999D01*
X120702285Y-108349999D01*
X120702285Y-108350000D01*
X120721102Y-108553082D01*
X120776917Y-108749247D01*
X120776922Y-108749260D01*
X120867827Y-108931821D01*
X120990737Y-109094581D01*
X121141458Y-109231980D01*
X121141460Y-109231982D01*
X121192690Y-109263702D01*
X121314863Y-109339348D01*
X121505044Y-109413024D01*
X121705524Y-109450500D01*
X121705526Y-109450500D01*
X121909474Y-109450500D01*
X121909476Y-109450500D01*
X122109956Y-109413024D01*
X122300137Y-109339348D01*
X122377334Y-109291550D01*
X134960702Y-109291550D01*
X134976694Y-109413022D01*
X134979622Y-109435258D01*
X134979623Y-109435262D01*
X135035089Y-109569172D01*
X135035090Y-109569174D01*
X135035091Y-109569175D01*
X135123331Y-109684171D01*
X135238327Y-109772411D01*
X135372243Y-109827880D01*
X135490765Y-109843484D01*
X135515951Y-109846800D01*
X135515952Y-109846800D01*
X135515953Y-109846800D01*
X135530929Y-109844828D01*
X135659661Y-109827880D01*
X135793577Y-109772411D01*
X135908573Y-109684171D01*
X135996813Y-109569175D01*
X136052282Y-109435259D01*
X136071202Y-109291550D01*
X136070528Y-109286434D01*
X136065045Y-109244782D01*
X136052282Y-109147841D01*
X135996813Y-109013925D01*
X135908573Y-108898929D01*
X135793577Y-108810689D01*
X135793576Y-108810688D01*
X135793574Y-108810687D01*
X135659664Y-108755221D01*
X135659662Y-108755220D01*
X135659661Y-108755220D01*
X135620809Y-108750105D01*
X137336459Y-108750105D01*
X137355157Y-108892131D01*
X137355379Y-108893813D01*
X137355380Y-108893817D01*
X137410846Y-109027727D01*
X137410847Y-109027729D01*
X137410848Y-109027730D01*
X137499088Y-109142726D01*
X137614084Y-109230966D01*
X137614085Y-109230966D01*
X137614086Y-109230967D01*
X137647434Y-109244780D01*
X137748000Y-109286435D01*
X137802287Y-109293582D01*
X137866183Y-109321849D01*
X137904654Y-109380173D01*
X137905485Y-109450038D01*
X137868413Y-109509261D01*
X137805207Y-109539040D01*
X137802294Y-109539458D01*
X137777198Y-109542763D01*
X137777197Y-109542763D01*
X137777194Y-109542764D01*
X137643284Y-109598230D01*
X137528286Y-109686472D01*
X137440044Y-109801470D01*
X137384578Y-109935380D01*
X137384577Y-109935384D01*
X137365657Y-110079092D01*
X137365657Y-110079093D01*
X137384577Y-110222801D01*
X137384578Y-110222805D01*
X137440044Y-110356715D01*
X137440045Y-110356717D01*
X137440046Y-110356718D01*
X137528286Y-110471714D01*
X137643282Y-110559954D01*
X137777198Y-110615423D01*
X137904187Y-110632141D01*
X137920906Y-110634343D01*
X137920907Y-110634343D01*
X137920908Y-110634343D01*
X137935884Y-110632371D01*
X138064616Y-110615423D01*
X138198532Y-110559954D01*
X138313528Y-110471714D01*
X138401768Y-110356718D01*
X138457237Y-110222802D01*
X138469630Y-110128665D01*
X138497896Y-110064770D01*
X138556221Y-110026299D01*
X138626086Y-110025468D01*
X138640010Y-110030286D01*
X138729637Y-110067411D01*
X138856626Y-110084129D01*
X138873345Y-110086331D01*
X138873346Y-110086331D01*
X138873347Y-110086331D01*
X138888323Y-110084359D01*
X139017055Y-110067411D01*
X139150971Y-110011942D01*
X139265967Y-109923702D01*
X139354207Y-109808706D01*
X139409676Y-109674790D01*
X139428596Y-109531081D01*
X139409676Y-109387372D01*
X139372696Y-109298094D01*
X139354208Y-109253458D01*
X139354207Y-109253457D01*
X139354207Y-109253456D01*
X139265967Y-109138460D01*
X139150971Y-109050220D01*
X139150970Y-109050219D01*
X139150968Y-109050218D01*
X139017058Y-108994752D01*
X139017056Y-108994751D01*
X139017055Y-108994751D01*
X138945200Y-108985291D01*
X138873347Y-108975831D01*
X138873345Y-108975831D01*
X138729637Y-108994751D01*
X138591680Y-109051893D01*
X138522211Y-109059361D01*
X138459732Y-109028085D01*
X138424080Y-108967995D01*
X138426445Y-108901801D01*
X138425935Y-108901665D01*
X138426529Y-108899446D01*
X138426575Y-108898170D01*
X138427627Y-108895350D01*
X138428035Y-108893822D01*
X138428039Y-108893814D01*
X138446959Y-108750105D01*
X138446846Y-108749250D01*
X138441475Y-108708451D01*
X138428039Y-108606396D01*
X138372570Y-108472480D01*
X138334598Y-108422994D01*
X138309404Y-108357827D01*
X138323442Y-108289382D01*
X138372255Y-108239392D01*
X138440346Y-108223728D01*
X138467908Y-108228532D01*
X138542725Y-108250499D01*
X138542727Y-108250500D01*
X138542728Y-108250500D01*
X138672273Y-108250500D01*
X138672273Y-108250499D01*
X138796569Y-108214004D01*
X138905549Y-108143967D01*
X138990382Y-108046063D01*
X139044197Y-107928226D01*
X139062633Y-107800000D01*
X139044197Y-107671774D01*
X138990382Y-107553937D01*
X138905549Y-107456033D01*
X138796569Y-107385996D01*
X138796565Y-107385994D01*
X138796564Y-107385994D01*
X138672274Y-107349500D01*
X138672272Y-107349500D01*
X138542728Y-107349500D01*
X138542726Y-107349500D01*
X138418435Y-107385994D01*
X138418432Y-107385995D01*
X138418431Y-107385996D01*
X138367177Y-107418934D01*
X138309450Y-107456033D01*
X138224618Y-107553937D01*
X138224617Y-107553938D01*
X138170802Y-107671774D01*
X138152367Y-107800000D01*
X138170802Y-107928225D01*
X138224620Y-108046067D01*
X138226034Y-108048268D01*
X138226770Y-108050776D01*
X138228302Y-108054130D01*
X138227819Y-108054350D01*
X138245717Y-108115308D01*
X138226031Y-108182346D01*
X138173225Y-108228100D01*
X138104066Y-108238041D01*
X138074266Y-108229866D01*
X138059447Y-108223728D01*
X138035418Y-108213775D01*
X137957943Y-108203575D01*
X137891710Y-108194855D01*
X137891708Y-108194855D01*
X137748000Y-108213775D01*
X137747996Y-108213776D01*
X137614086Y-108269242D01*
X137499088Y-108357484D01*
X137410846Y-108472482D01*
X137355380Y-108606392D01*
X137355379Y-108606396D01*
X137336572Y-108749250D01*
X137336459Y-108750105D01*
X135620809Y-108750105D01*
X135587806Y-108745760D01*
X135515953Y-108736300D01*
X135515951Y-108736300D01*
X135372243Y-108755220D01*
X135372239Y-108755221D01*
X135238329Y-108810687D01*
X135123331Y-108898929D01*
X135035089Y-109013927D01*
X134979623Y-109147837D01*
X134979622Y-109147841D01*
X134961376Y-109286434D01*
X134960702Y-109291550D01*
X122377334Y-109291550D01*
X122473541Y-109231981D01*
X122601622Y-109115219D01*
X122624262Y-109094581D01*
X122624264Y-109094579D01*
X122747173Y-108931821D01*
X122838082Y-108749250D01*
X122893897Y-108553083D01*
X122898861Y-108499511D01*
X132426018Y-108499511D01*
X132440089Y-108606392D01*
X132444938Y-108643219D01*
X132444939Y-108643223D01*
X132500405Y-108777133D01*
X132500406Y-108777135D01*
X132500407Y-108777136D01*
X132588647Y-108892132D01*
X132703643Y-108980372D01*
X132837559Y-109035841D01*
X132959484Y-109051893D01*
X132981267Y-109054761D01*
X132981268Y-109054761D01*
X132981269Y-109054761D01*
X133003052Y-109051893D01*
X133124977Y-109035841D01*
X133258893Y-108980372D01*
X133373889Y-108892132D01*
X133462129Y-108777136D01*
X133517598Y-108643220D01*
X133536518Y-108499511D01*
X133517598Y-108355802D01*
X133468821Y-108238041D01*
X133462130Y-108221888D01*
X133462129Y-108221887D01*
X133462129Y-108221886D01*
X133373889Y-108106890D01*
X133258893Y-108018650D01*
X133258892Y-108018649D01*
X133258890Y-108018648D01*
X133124980Y-107963182D01*
X133124978Y-107963181D01*
X133124977Y-107963181D01*
X133030556Y-107950750D01*
X132981269Y-107944261D01*
X132981267Y-107944261D01*
X132837559Y-107963181D01*
X132837555Y-107963182D01*
X132703645Y-108018648D01*
X132588647Y-108106890D01*
X132500405Y-108221888D01*
X132444939Y-108355798D01*
X132444938Y-108355802D01*
X132429577Y-108472482D01*
X132426018Y-108499511D01*
X122898861Y-108499511D01*
X122912715Y-108350000D01*
X122901382Y-108227700D01*
X122893897Y-108146917D01*
X122876044Y-108084170D01*
X122838082Y-107950750D01*
X122830901Y-107936329D01*
X122763018Y-107800000D01*
X122747173Y-107768179D01*
X122624264Y-107605421D01*
X122624262Y-107605418D01*
X122473541Y-107468019D01*
X122473539Y-107468017D01*
X122300142Y-107360655D01*
X122300135Y-107360651D01*
X122161337Y-107306881D01*
X122109956Y-107286976D01*
X121909476Y-107249500D01*
X121705524Y-107249500D01*
X121505044Y-107286976D01*
X121505041Y-107286976D01*
X121505041Y-107286977D01*
X121314864Y-107360651D01*
X121314857Y-107360655D01*
X121141460Y-107468017D01*
X121141458Y-107468019D01*
X120990737Y-107605418D01*
X120867827Y-107768178D01*
X120776922Y-107950739D01*
X120776917Y-107950752D01*
X120721102Y-108146917D01*
X120702285Y-108349999D01*
X119500000Y-108349999D01*
X119500000Y-105809999D01*
X120702285Y-105809999D01*
X120702285Y-105810000D01*
X120721102Y-106013082D01*
X120776917Y-106209247D01*
X120776922Y-106209260D01*
X120867827Y-106391821D01*
X120990737Y-106554581D01*
X121141458Y-106691980D01*
X121141460Y-106691982D01*
X121213085Y-106736330D01*
X121314863Y-106799348D01*
X121505044Y-106873024D01*
X121705524Y-106910500D01*
X121705526Y-106910500D01*
X121909474Y-106910500D01*
X121909476Y-106910500D01*
X122109956Y-106873024D01*
X122300137Y-106799348D01*
X122473541Y-106691981D01*
X122574439Y-106600000D01*
X130444750Y-106600000D01*
X130462698Y-106736329D01*
X130463670Y-106743708D01*
X130463671Y-106743712D01*
X130519137Y-106877622D01*
X130519138Y-106877624D01*
X130519139Y-106877625D01*
X130607379Y-106992621D01*
X130722375Y-107080861D01*
X130856291Y-107136330D01*
X130983280Y-107153048D01*
X130999999Y-107155250D01*
X131000000Y-107155250D01*
X131000001Y-107155250D01*
X131014977Y-107153278D01*
X131143709Y-107136330D01*
X131277625Y-107080861D01*
X131392621Y-106992621D01*
X131470176Y-106891550D01*
X135543798Y-106891550D01*
X135559047Y-107007379D01*
X135562718Y-107035258D01*
X135562719Y-107035262D01*
X135618185Y-107169172D01*
X135618186Y-107169174D01*
X135618187Y-107169175D01*
X135706427Y-107284171D01*
X135821423Y-107372411D01*
X135821424Y-107372411D01*
X135821425Y-107372412D01*
X135905855Y-107407383D01*
X135955339Y-107427880D01*
X135955347Y-107427881D01*
X135956232Y-107428118D01*
X135956906Y-107428528D01*
X135962848Y-107430990D01*
X135962464Y-107431916D01*
X136015895Y-107464480D01*
X136046428Y-107527325D01*
X136047085Y-107531708D01*
X136048665Y-107543710D01*
X136104132Y-107677622D01*
X136104133Y-107677624D01*
X136104134Y-107677625D01*
X136192374Y-107792621D01*
X136307370Y-107880861D01*
X136441286Y-107936330D01*
X136568275Y-107953048D01*
X136584994Y-107955250D01*
X136584995Y-107955250D01*
X136584996Y-107955250D01*
X136599972Y-107953278D01*
X136728704Y-107936330D01*
X136862620Y-107880861D01*
X136977616Y-107792621D01*
X137065856Y-107677625D01*
X137121325Y-107543709D01*
X137140245Y-107400000D01*
X137121325Y-107256291D01*
X137071636Y-107136329D01*
X137065857Y-107122377D01*
X137065856Y-107122376D01*
X137065856Y-107122375D01*
X136977616Y-107007379D01*
X136862620Y-106919139D01*
X136862619Y-106919138D01*
X136862617Y-106919137D01*
X136728703Y-106863669D01*
X136727791Y-106863425D01*
X136727108Y-106863009D01*
X136721196Y-106860560D01*
X136721578Y-106859637D01*
X136668134Y-106827054D01*
X136637611Y-106764204D01*
X136636957Y-106759836D01*
X136635378Y-106747843D01*
X136635378Y-106747841D01*
X136585689Y-106627879D01*
X136579910Y-106613927D01*
X136579909Y-106613926D01*
X136579909Y-106613925D01*
X136491669Y-106498929D01*
X136376673Y-106410689D01*
X136376672Y-106410688D01*
X136376670Y-106410687D01*
X136242760Y-106355221D01*
X136242758Y-106355220D01*
X136242757Y-106355220D01*
X136155324Y-106343709D01*
X136099049Y-106336300D01*
X136099047Y-106336300D01*
X135955339Y-106355220D01*
X135955335Y-106355221D01*
X135821425Y-106410687D01*
X135706427Y-106498929D01*
X135618185Y-106613927D01*
X135562719Y-106747837D01*
X135562718Y-106747841D01*
X135547469Y-106863670D01*
X135543798Y-106891550D01*
X131470176Y-106891550D01*
X131480861Y-106877625D01*
X131536330Y-106743709D01*
X131555250Y-106600000D01*
X131536330Y-106456291D01*
X131490798Y-106346366D01*
X131480862Y-106322377D01*
X131480861Y-106322376D01*
X131480861Y-106322375D01*
X131392621Y-106207379D01*
X131277625Y-106119139D01*
X131277624Y-106119138D01*
X131277622Y-106119137D01*
X131211019Y-106091550D01*
X133360700Y-106091550D01*
X133377874Y-106222000D01*
X133379620Y-106235258D01*
X133379621Y-106235262D01*
X133435087Y-106369172D01*
X133435088Y-106369174D01*
X133435089Y-106369175D01*
X133523329Y-106484171D01*
X133638325Y-106572411D01*
X133772241Y-106627880D01*
X133899230Y-106644598D01*
X133915949Y-106646800D01*
X133915950Y-106646800D01*
X133915951Y-106646800D01*
X133930927Y-106644828D01*
X134059659Y-106627880D01*
X134193575Y-106572411D01*
X134308571Y-106484171D01*
X134396811Y-106369175D01*
X134452280Y-106235259D01*
X134471200Y-106091550D01*
X134452280Y-105947841D01*
X134396811Y-105813925D01*
X134396810Y-105813924D01*
X134396810Y-105813923D01*
X134326260Y-105721982D01*
X134317126Y-105710078D01*
X134291932Y-105644911D01*
X134305970Y-105576466D01*
X134354784Y-105526476D01*
X134368034Y-105520039D01*
X134462620Y-105480861D01*
X134577616Y-105392621D01*
X134655172Y-105291549D01*
X137943800Y-105291549D01*
X137959776Y-105412900D01*
X137962720Y-105435257D01*
X137962721Y-105435261D01*
X138018187Y-105569171D01*
X138018188Y-105569173D01*
X138018189Y-105569174D01*
X138106429Y-105684170D01*
X138221425Y-105772410D01*
X138355341Y-105827879D01*
X138367336Y-105829458D01*
X138431233Y-105857723D01*
X138469705Y-105916047D01*
X138470926Y-105920298D01*
X138471167Y-105921200D01*
X138526636Y-106055116D01*
X138526637Y-106055118D01*
X138526638Y-106055119D01*
X138614878Y-106170115D01*
X138729874Y-106258355D01*
X138863790Y-106313824D01*
X138990779Y-106330542D01*
X139007498Y-106332744D01*
X139007499Y-106332744D01*
X139007500Y-106332744D01*
X139022476Y-106330772D01*
X139151208Y-106313824D01*
X139285124Y-106258355D01*
X139374821Y-106189527D01*
X139439989Y-106164333D01*
X139508434Y-106178371D01*
X139558424Y-106227184D01*
X139564868Y-106240451D01*
X139618185Y-106369171D01*
X139618187Y-106369175D01*
X139706427Y-106484171D01*
X139821423Y-106572411D01*
X139955339Y-106627880D01*
X140082328Y-106644598D01*
X140099047Y-106646800D01*
X140099048Y-106646800D01*
X140099049Y-106646800D01*
X140114025Y-106644828D01*
X140242757Y-106627880D01*
X140286339Y-106609827D01*
X140355808Y-106602359D01*
X140418287Y-106633634D01*
X140453939Y-106693723D01*
X140453618Y-106747870D01*
X140454736Y-106748018D01*
X140453675Y-106756074D01*
X140453675Y-106756075D01*
X140434755Y-106899784D01*
X140446977Y-106992621D01*
X140453364Y-107041130D01*
X140442599Y-107110166D01*
X140396219Y-107162422D01*
X140328950Y-107181307D01*
X140282974Y-107171878D01*
X140260144Y-107162422D01*
X140242757Y-107155220D01*
X140170902Y-107145760D01*
X140099049Y-107136300D01*
X140099047Y-107136300D01*
X139955339Y-107155220D01*
X139955335Y-107155221D01*
X139821425Y-107210687D01*
X139706427Y-107298929D01*
X139618185Y-107413927D01*
X139562719Y-107547837D01*
X139562718Y-107547841D01*
X139545375Y-107679575D01*
X139543798Y-107691550D01*
X139557104Y-107792621D01*
X139562718Y-107835258D01*
X139562719Y-107835262D01*
X139618185Y-107969172D01*
X139618186Y-107969174D01*
X139618187Y-107969175D01*
X139706427Y-108084171D01*
X139821423Y-108172411D01*
X139821424Y-108172411D01*
X139821425Y-108172412D01*
X139854409Y-108186074D01*
X139955339Y-108227880D01*
X140082328Y-108244598D01*
X140099047Y-108246800D01*
X140099048Y-108246800D01*
X140099049Y-108246800D01*
X140114025Y-108244828D01*
X140242757Y-108227880D01*
X140300665Y-108203893D01*
X140370132Y-108196425D01*
X140432612Y-108227700D01*
X140468264Y-108287789D01*
X140465771Y-108357614D01*
X140446492Y-108393941D01*
X140418189Y-108430826D01*
X140418188Y-108430828D01*
X140362721Y-108564739D01*
X140362720Y-108564743D01*
X140343800Y-108708452D01*
X140356210Y-108802717D01*
X140362720Y-108852160D01*
X140362721Y-108852164D01*
X140418187Y-108986074D01*
X140418188Y-108986076D01*
X140418189Y-108986077D01*
X140506429Y-109101073D01*
X140621425Y-109189313D01*
X140755341Y-109244782D01*
X140882330Y-109261500D01*
X140899049Y-109263702D01*
X140899050Y-109263702D01*
X140899051Y-109263702D01*
X140914027Y-109261730D01*
X141042759Y-109244782D01*
X141156731Y-109197573D01*
X141226199Y-109190105D01*
X141288678Y-109221380D01*
X141324330Y-109281469D01*
X141327121Y-109328320D01*
X141320879Y-109375733D01*
X141320879Y-109375736D01*
X141328715Y-109435259D01*
X141339799Y-109519444D01*
X141339800Y-109519448D01*
X141395266Y-109653358D01*
X141395267Y-109653360D01*
X141395268Y-109653361D01*
X141483508Y-109768357D01*
X141598504Y-109856597D01*
X141732420Y-109912066D01*
X141859409Y-109928784D01*
X141876128Y-109930986D01*
X141876129Y-109930986D01*
X141876130Y-109930986D01*
X141891106Y-109929014D01*
X142019838Y-109912066D01*
X142153754Y-109856597D01*
X142268750Y-109768357D01*
X142356990Y-109653361D01*
X142412459Y-109519445D01*
X142431379Y-109375736D01*
X142420295Y-109291550D01*
X142960702Y-109291550D01*
X142976694Y-109413022D01*
X142979622Y-109435258D01*
X142979623Y-109435262D01*
X143035089Y-109569172D01*
X143035090Y-109569174D01*
X143035091Y-109569175D01*
X143123331Y-109684171D01*
X143238327Y-109772411D01*
X143372243Y-109827880D01*
X143490765Y-109843484D01*
X143515951Y-109846800D01*
X143515952Y-109846800D01*
X143515953Y-109846800D01*
X143530929Y-109844828D01*
X143659661Y-109827880D01*
X143793577Y-109772411D01*
X143908573Y-109684171D01*
X143996813Y-109569175D01*
X144052282Y-109435259D01*
X144071202Y-109291550D01*
X144070528Y-109286434D01*
X144065044Y-109244780D01*
X144052282Y-109147841D01*
X144052281Y-109147839D01*
X144051228Y-109139839D01*
X144061993Y-109070804D01*
X144108373Y-109018548D01*
X144175642Y-108999662D01*
X144190344Y-109000713D01*
X144275616Y-109011939D01*
X144298525Y-109014956D01*
X144298526Y-109014956D01*
X144298527Y-109014956D01*
X144313503Y-109012984D01*
X144442235Y-108996036D01*
X144576151Y-108940567D01*
X144691147Y-108852327D01*
X144779387Y-108737331D01*
X144834856Y-108603415D01*
X144853776Y-108459706D01*
X144834856Y-108315997D01*
X144797876Y-108226719D01*
X144779388Y-108182083D01*
X144779387Y-108182082D01*
X144779387Y-108182081D01*
X144691147Y-108067085D01*
X144576151Y-107978845D01*
X144576150Y-107978844D01*
X144576148Y-107978843D01*
X144442238Y-107923377D01*
X144442236Y-107923376D01*
X144442235Y-107923376D01*
X144370380Y-107913916D01*
X144328878Y-107908452D01*
X145943800Y-107908452D01*
X145962207Y-108048268D01*
X145962720Y-108052160D01*
X145962721Y-108052164D01*
X146018187Y-108186074D01*
X146018188Y-108186076D01*
X146018189Y-108186077D01*
X146106429Y-108301073D01*
X146221425Y-108389313D01*
X146355341Y-108444782D01*
X146482330Y-108461500D01*
X146499049Y-108463702D01*
X146499050Y-108463702D01*
X146499051Y-108463702D01*
X146514027Y-108461730D01*
X146642759Y-108444782D01*
X146776675Y-108389313D01*
X146891671Y-108301073D01*
X146979911Y-108186077D01*
X147035380Y-108052161D01*
X147054300Y-107908452D01*
X147035380Y-107764743D01*
X146979911Y-107630827D01*
X146891671Y-107515831D01*
X146776675Y-107427591D01*
X146776674Y-107427590D01*
X146776672Y-107427589D01*
X146661777Y-107379999D01*
X152052285Y-107379999D01*
X152052285Y-107380000D01*
X152071102Y-107583082D01*
X152126917Y-107779247D01*
X152126922Y-107779260D01*
X152217827Y-107961821D01*
X152340737Y-108124581D01*
X152491458Y-108261980D01*
X152491460Y-108261982D01*
X152578698Y-108315997D01*
X152664863Y-108369348D01*
X152855044Y-108443024D01*
X153055524Y-108480500D01*
X153055526Y-108480500D01*
X153259474Y-108480500D01*
X153259476Y-108480500D01*
X153459956Y-108443024D01*
X153650137Y-108369348D01*
X153823541Y-108261981D01*
X153974264Y-108124579D01*
X154097173Y-107961821D01*
X154188082Y-107779250D01*
X154243897Y-107583083D01*
X154262715Y-107380000D01*
X154260922Y-107360655D01*
X154243897Y-107176917D01*
X154232349Y-107136330D01*
X154188082Y-106980750D01*
X154147766Y-106899785D01*
X154127775Y-106859637D01*
X154097173Y-106798179D01*
X154016975Y-106691980D01*
X153974262Y-106635418D01*
X153823541Y-106498019D01*
X153823539Y-106498017D01*
X153650142Y-106390655D01*
X153650135Y-106390651D01*
X153500658Y-106332744D01*
X153459956Y-106316976D01*
X153259476Y-106279500D01*
X153055524Y-106279500D01*
X152855044Y-106316976D01*
X152855041Y-106316976D01*
X152855041Y-106316977D01*
X152664864Y-106390651D01*
X152664857Y-106390655D01*
X152491460Y-106498017D01*
X152491458Y-106498019D01*
X152340737Y-106635418D01*
X152217827Y-106798178D01*
X152126922Y-106980739D01*
X152126917Y-106980752D01*
X152071102Y-107176917D01*
X152052285Y-107379999D01*
X146661777Y-107379999D01*
X146642762Y-107372123D01*
X146642760Y-107372122D01*
X146642759Y-107372122D01*
X146555660Y-107360655D01*
X146499051Y-107353202D01*
X146499049Y-107353202D01*
X146355341Y-107372122D01*
X146355337Y-107372123D01*
X146221427Y-107427589D01*
X146106429Y-107515831D01*
X146018187Y-107630829D01*
X145962721Y-107764739D01*
X145962720Y-107764743D01*
X145943800Y-107908452D01*
X144328878Y-107908452D01*
X144298527Y-107904456D01*
X144298525Y-107904456D01*
X144154817Y-107923376D01*
X144154813Y-107923377D01*
X144020903Y-107978843D01*
X143905905Y-108067085D01*
X143817663Y-108182083D01*
X143762197Y-108315993D01*
X143762196Y-108315997D01*
X143743276Y-108459705D01*
X143743276Y-108459708D01*
X143763249Y-108611417D01*
X143752483Y-108680452D01*
X143706103Y-108732708D01*
X143638835Y-108751593D01*
X143624125Y-108750541D01*
X143515954Y-108736300D01*
X143515951Y-108736300D01*
X143372243Y-108755220D01*
X143372239Y-108755221D01*
X143238329Y-108810687D01*
X143123331Y-108898929D01*
X143035089Y-109013927D01*
X142979623Y-109147837D01*
X142979622Y-109147841D01*
X142961376Y-109286434D01*
X142960702Y-109291550D01*
X142420295Y-109291550D01*
X142412459Y-109232027D01*
X142358217Y-109101073D01*
X142356991Y-109098113D01*
X142356990Y-109098112D01*
X142356990Y-109098111D01*
X142268750Y-108983115D01*
X142153754Y-108894875D01*
X142153753Y-108894874D01*
X142153751Y-108894873D01*
X142019841Y-108839407D01*
X142019839Y-108839406D01*
X142019838Y-108839406D01*
X141947983Y-108829946D01*
X141876130Y-108820486D01*
X141876128Y-108820486D01*
X141732420Y-108839406D01*
X141618447Y-108886614D01*
X141548978Y-108894082D01*
X141486499Y-108862806D01*
X141450847Y-108802717D01*
X141448057Y-108755869D01*
X141454300Y-108708452D01*
X141435380Y-108564743D01*
X141391873Y-108459706D01*
X141379912Y-108430829D01*
X141379911Y-108430828D01*
X141379911Y-108430827D01*
X141291671Y-108315831D01*
X141176675Y-108227591D01*
X141176674Y-108227590D01*
X141176672Y-108227589D01*
X141042762Y-108172123D01*
X141042760Y-108172122D01*
X141042759Y-108172122D01*
X140970904Y-108162662D01*
X140899051Y-108153202D01*
X140899049Y-108153202D01*
X140755341Y-108172122D01*
X140755340Y-108172122D01*
X140697432Y-108196108D01*
X140627963Y-108203575D01*
X140565484Y-108172300D01*
X140529832Y-108112210D01*
X140532327Y-108042385D01*
X140551602Y-108006064D01*
X140579909Y-107969175D01*
X140635378Y-107835259D01*
X140654298Y-107691550D01*
X140635688Y-107550199D01*
X140646453Y-107481168D01*
X140692833Y-107428912D01*
X140760101Y-107410026D01*
X140806079Y-107419456D01*
X140846296Y-107436114D01*
X140973285Y-107452832D01*
X140990004Y-107455034D01*
X140990005Y-107455034D01*
X140990006Y-107455034D01*
X141004982Y-107453062D01*
X141133714Y-107436114D01*
X141211690Y-107403815D01*
X141281156Y-107396347D01*
X141343636Y-107427622D01*
X141379288Y-107487711D01*
X141378983Y-107539560D01*
X141380681Y-107539784D01*
X141379620Y-107547840D01*
X141379620Y-107547841D01*
X141368694Y-107630829D01*
X141362277Y-107679575D01*
X141360700Y-107691550D01*
X141374006Y-107792621D01*
X141379620Y-107835258D01*
X141379621Y-107835262D01*
X141435087Y-107969172D01*
X141435088Y-107969174D01*
X141435089Y-107969175D01*
X141523329Y-108084171D01*
X141638325Y-108172411D01*
X141638326Y-108172411D01*
X141638327Y-108172412D01*
X141671311Y-108186074D01*
X141772241Y-108227880D01*
X141899230Y-108244598D01*
X141915949Y-108246800D01*
X141915950Y-108246800D01*
X141915951Y-108246800D01*
X141930927Y-108244828D01*
X142059659Y-108227880D01*
X142193575Y-108172411D01*
X142308571Y-108084171D01*
X142396811Y-107969175D01*
X142452280Y-107835259D01*
X142471200Y-107691550D01*
X142452280Y-107547841D01*
X142406002Y-107436114D01*
X142396812Y-107413927D01*
X142396811Y-107413926D01*
X142396811Y-107413925D01*
X142308571Y-107298929D01*
X142193575Y-107210689D01*
X142193574Y-107210688D01*
X142193572Y-107210687D01*
X142059662Y-107155221D01*
X142059660Y-107155220D01*
X142059659Y-107155220D01*
X141987804Y-107145760D01*
X141915951Y-107136300D01*
X141915949Y-107136300D01*
X141772241Y-107155220D01*
X141694265Y-107187518D01*
X141624796Y-107194986D01*
X141562317Y-107163710D01*
X141526665Y-107103621D01*
X141526975Y-107051774D01*
X141525274Y-107051550D01*
X141526646Y-107041130D01*
X141545255Y-106899784D01*
X141544171Y-106891550D01*
X143760702Y-106891550D01*
X143775951Y-107007379D01*
X143779622Y-107035258D01*
X143779623Y-107035262D01*
X143835089Y-107169172D01*
X143835090Y-107169174D01*
X143835091Y-107169175D01*
X143923331Y-107284171D01*
X144038327Y-107372411D01*
X144038328Y-107372411D01*
X144038329Y-107372412D01*
X144082965Y-107390900D01*
X144172243Y-107427880D01*
X144299232Y-107444598D01*
X144315951Y-107446800D01*
X144315952Y-107446800D01*
X144315953Y-107446800D01*
X144330929Y-107444828D01*
X144459661Y-107427880D01*
X144593577Y-107372411D01*
X144708573Y-107284171D01*
X144796813Y-107169175D01*
X144852282Y-107035259D01*
X144871202Y-106891550D01*
X144852282Y-106747841D01*
X144802593Y-106627879D01*
X144796814Y-106613927D01*
X144796813Y-106613926D01*
X144796813Y-106613925D01*
X144708573Y-106498929D01*
X144593577Y-106410689D01*
X144593576Y-106410688D01*
X144593574Y-106410687D01*
X144459664Y-106355221D01*
X144459662Y-106355220D01*
X144459661Y-106355220D01*
X144372228Y-106343709D01*
X144315953Y-106336300D01*
X144315951Y-106336300D01*
X144172243Y-106355220D01*
X144172239Y-106355221D01*
X144038329Y-106410687D01*
X143923331Y-106498929D01*
X143835089Y-106613927D01*
X143779623Y-106747837D01*
X143779622Y-106747841D01*
X143764373Y-106863670D01*
X143760702Y-106891550D01*
X141544171Y-106891550D01*
X141542358Y-106877783D01*
X141553122Y-106808751D01*
X141599501Y-106756494D01*
X141666769Y-106737607D01*
X141681479Y-106738658D01*
X141752569Y-106748018D01*
X141807499Y-106755250D01*
X141807500Y-106755250D01*
X141807501Y-106755250D01*
X141822477Y-106753278D01*
X141951209Y-106736330D01*
X142085125Y-106680861D01*
X142200121Y-106592621D01*
X142288361Y-106477625D01*
X142343830Y-106343709D01*
X142362750Y-106200000D01*
X142362750Y-106199997D01*
X142363596Y-106193573D01*
X142391863Y-106129677D01*
X142450187Y-106091206D01*
X142520052Y-106090375D01*
X142562021Y-106111383D01*
X142607577Y-106146340D01*
X142741493Y-106201809D01*
X142868482Y-106218527D01*
X142885201Y-106220729D01*
X142885202Y-106220729D01*
X142885203Y-106220729D01*
X142900179Y-106218757D01*
X143028911Y-106201809D01*
X143162827Y-106146340D01*
X143277823Y-106058100D01*
X143366063Y-105943104D01*
X143421532Y-105809188D01*
X143440452Y-105665479D01*
X143421532Y-105521770D01*
X143366063Y-105387854D01*
X143277823Y-105272858D01*
X143162827Y-105184618D01*
X143162826Y-105184617D01*
X143162824Y-105184616D01*
X143028914Y-105129150D01*
X143028912Y-105129149D01*
X143028911Y-105129149D01*
X142957056Y-105119689D01*
X142885203Y-105110229D01*
X142885201Y-105110229D01*
X142741488Y-105129149D01*
X142733638Y-105131253D01*
X142733031Y-105128990D01*
X142675501Y-105135171D01*
X142613024Y-105103891D01*
X142584733Y-105064654D01*
X142540384Y-104967543D01*
X142540382Y-104967541D01*
X142540382Y-104967540D01*
X142455549Y-104869636D01*
X142346569Y-104799599D01*
X142346565Y-104799597D01*
X142346564Y-104799597D01*
X142222274Y-104763103D01*
X142222272Y-104763103D01*
X142092728Y-104763103D01*
X142092726Y-104763103D01*
X141968435Y-104799597D01*
X141968432Y-104799598D01*
X141968431Y-104799599D01*
X141917177Y-104832537D01*
X141859450Y-104869636D01*
X141774618Y-104967540D01*
X141774617Y-104967541D01*
X141720802Y-105085378D01*
X141718303Y-105093890D01*
X141716342Y-105093314D01*
X141692153Y-105146267D01*
X141633371Y-105184035D01*
X141563501Y-105184027D01*
X141504727Y-105146247D01*
X141491060Y-105127051D01*
X141488361Y-105122376D01*
X141488361Y-105122375D01*
X141400121Y-105007379D01*
X141332014Y-104955118D01*
X141290814Y-104898693D01*
X141286659Y-104828947D01*
X141320872Y-104768026D01*
X141382589Y-104735274D01*
X141407493Y-104732745D01*
X141407496Y-104732744D01*
X141407500Y-104732745D01*
X141551209Y-104713825D01*
X141685125Y-104658356D01*
X141800121Y-104570116D01*
X141860409Y-104491548D01*
X144343800Y-104491548D01*
X144343800Y-104491549D01*
X144362720Y-104635257D01*
X144362721Y-104635261D01*
X144418187Y-104769171D01*
X144418188Y-104769173D01*
X144418189Y-104769174D01*
X144506429Y-104884170D01*
X144621425Y-104972410D01*
X144755341Y-105027879D01*
X144870825Y-105043083D01*
X144899049Y-105046799D01*
X144899050Y-105046799D01*
X144899051Y-105046799D01*
X144914027Y-105044827D01*
X145042759Y-105027879D01*
X145176675Y-104972410D01*
X145291671Y-104884170D01*
X145325565Y-104839999D01*
X152052285Y-104839999D01*
X152052285Y-104840000D01*
X152071102Y-105043082D01*
X152126917Y-105239247D01*
X152126922Y-105239260D01*
X152217827Y-105421821D01*
X152340737Y-105584581D01*
X152459801Y-105693121D01*
X152488341Y-105719139D01*
X152491458Y-105721980D01*
X152491460Y-105721982D01*
X152572905Y-105772410D01*
X152664863Y-105829348D01*
X152855044Y-105903024D01*
X153055524Y-105940500D01*
X153055526Y-105940500D01*
X153259474Y-105940500D01*
X153259476Y-105940500D01*
X153459956Y-105903024D01*
X153650137Y-105829348D01*
X153823541Y-105721981D01*
X153974264Y-105584579D01*
X154097173Y-105421821D01*
X154168975Y-105277622D01*
X154184317Y-105246812D01*
X154231819Y-105195575D01*
X154299482Y-105178153D01*
X154365823Y-105200078D01*
X154409778Y-105254389D01*
X154415092Y-105269989D01*
X154424067Y-105303485D01*
X154424070Y-105303492D01*
X154523899Y-105517578D01*
X154659394Y-105711082D01*
X154826417Y-105878105D01*
X155019921Y-106013600D01*
X155234007Y-106113429D01*
X155234016Y-106113433D01*
X155273083Y-106123901D01*
X155332744Y-106160266D01*
X155363273Y-106223113D01*
X155354979Y-106292488D01*
X155310493Y-106346366D01*
X155285784Y-106359302D01*
X155204873Y-106390647D01*
X155204857Y-106390655D01*
X155031460Y-106498017D01*
X155031458Y-106498019D01*
X154880737Y-106635418D01*
X154757827Y-106798178D01*
X154666922Y-106980739D01*
X154666917Y-106980752D01*
X154611102Y-107176917D01*
X154592285Y-107379999D01*
X154592285Y-107380000D01*
X154611102Y-107583082D01*
X154666917Y-107779247D01*
X154666922Y-107779260D01*
X154757827Y-107961821D01*
X154880737Y-108124581D01*
X155031458Y-108261980D01*
X155031460Y-108261982D01*
X155118698Y-108315997D01*
X155204863Y-108369348D01*
X155395044Y-108443024D01*
X155595524Y-108480500D01*
X155595526Y-108480500D01*
X155799474Y-108480500D01*
X155799476Y-108480500D01*
X155999956Y-108443024D01*
X156190137Y-108369348D01*
X156363541Y-108261981D01*
X156514264Y-108124579D01*
X156637173Y-107961821D01*
X156728082Y-107779250D01*
X156783897Y-107583083D01*
X156802715Y-107380000D01*
X156800922Y-107360655D01*
X156783897Y-107176917D01*
X156772349Y-107136330D01*
X156728082Y-106980750D01*
X156687766Y-106899785D01*
X156667775Y-106859637D01*
X156637173Y-106798179D01*
X156556975Y-106691980D01*
X156514262Y-106635418D01*
X156365714Y-106500000D01*
X158802223Y-106500000D01*
X158814070Y-106635421D01*
X158821293Y-106717975D01*
X158821293Y-106717979D01*
X158877922Y-106929322D01*
X158877924Y-106929326D01*
X158877925Y-106929330D01*
X158907438Y-106992620D01*
X158970397Y-107127638D01*
X158989710Y-107155220D01*
X159095902Y-107306877D01*
X159250623Y-107461598D01*
X159429861Y-107587102D01*
X159628170Y-107679575D01*
X159839523Y-107736207D01*
X160022426Y-107752208D01*
X160057498Y-107755277D01*
X160057500Y-107755277D01*
X160057502Y-107755277D01*
X160085754Y-107752805D01*
X160275477Y-107736207D01*
X160486830Y-107679575D01*
X160685139Y-107587102D01*
X160864377Y-107461598D01*
X161019098Y-107306877D01*
X161144602Y-107127639D01*
X161237075Y-106929330D01*
X161293707Y-106717977D01*
X161312777Y-106500000D01*
X165302223Y-106500000D01*
X165314070Y-106635421D01*
X165321293Y-106717975D01*
X165321293Y-106717979D01*
X165377922Y-106929322D01*
X165377924Y-106929326D01*
X165377925Y-106929330D01*
X165407438Y-106992620D01*
X165470397Y-107127638D01*
X165489710Y-107155220D01*
X165595902Y-107306877D01*
X165750623Y-107461598D01*
X165929861Y-107587102D01*
X166128170Y-107679575D01*
X166339523Y-107736207D01*
X166522426Y-107752208D01*
X166557498Y-107755277D01*
X166557500Y-107755277D01*
X166557502Y-107755277D01*
X166585754Y-107752805D01*
X166775477Y-107736207D01*
X166986830Y-107679575D01*
X167185139Y-107587102D01*
X167364377Y-107461598D01*
X167519098Y-107306877D01*
X167644602Y-107127639D01*
X167737075Y-106929330D01*
X167793707Y-106717977D01*
X167812777Y-106500000D01*
X167812683Y-106498929D01*
X167805684Y-106418923D01*
X167793707Y-106282023D01*
X167757351Y-106146340D01*
X167737077Y-106070677D01*
X167737076Y-106070676D01*
X167737075Y-106070670D01*
X167644602Y-105872362D01*
X167644600Y-105872359D01*
X167644599Y-105872357D01*
X167519099Y-105693124D01*
X167453582Y-105627607D01*
X167364377Y-105538402D01*
X167217071Y-105435257D01*
X167185138Y-105412897D01*
X167085984Y-105366661D01*
X166986830Y-105320425D01*
X166986826Y-105320424D01*
X166986822Y-105320422D01*
X166775477Y-105263793D01*
X166557502Y-105244723D01*
X166557498Y-105244723D01*
X166412182Y-105257436D01*
X166339523Y-105263793D01*
X166339520Y-105263793D01*
X166128177Y-105320422D01*
X166128168Y-105320426D01*
X165929861Y-105412898D01*
X165929857Y-105412900D01*
X165750621Y-105538402D01*
X165595902Y-105693121D01*
X165470400Y-105872357D01*
X165470398Y-105872361D01*
X165377926Y-106070668D01*
X165377922Y-106070677D01*
X165321293Y-106282020D01*
X165321293Y-106282023D01*
X165319930Y-106297607D01*
X165302317Y-106498929D01*
X165302223Y-106500000D01*
X161312777Y-106500000D01*
X161312683Y-106498929D01*
X161305684Y-106418923D01*
X161293707Y-106282023D01*
X161257351Y-106146340D01*
X161237077Y-106070677D01*
X161237076Y-106070676D01*
X161237075Y-106070670D01*
X161144602Y-105872362D01*
X161144600Y-105872359D01*
X161144599Y-105872357D01*
X161019099Y-105693124D01*
X160953582Y-105627607D01*
X160864377Y-105538402D01*
X160717071Y-105435257D01*
X160685138Y-105412897D01*
X160585984Y-105366661D01*
X160486830Y-105320425D01*
X160486826Y-105320424D01*
X160486822Y-105320422D01*
X160275477Y-105263793D01*
X160057502Y-105244723D01*
X160057498Y-105244723D01*
X159912182Y-105257436D01*
X159839523Y-105263793D01*
X159839520Y-105263793D01*
X159628177Y-105320422D01*
X159628168Y-105320426D01*
X159429861Y-105412898D01*
X159429857Y-105412900D01*
X159250621Y-105538402D01*
X159095902Y-105693121D01*
X158970400Y-105872357D01*
X158970398Y-105872361D01*
X158877926Y-106070668D01*
X158877922Y-106070677D01*
X158821293Y-106282020D01*
X158821293Y-106282023D01*
X158819930Y-106297607D01*
X158802317Y-106498929D01*
X158802223Y-106500000D01*
X156365714Y-106500000D01*
X156363541Y-106498019D01*
X156363539Y-106498017D01*
X156190142Y-106390655D01*
X156190135Y-106390651D01*
X156109215Y-106359303D01*
X156053813Y-106316730D01*
X156030223Y-106250963D01*
X156045934Y-106182883D01*
X156095958Y-106134104D01*
X156121917Y-106123901D01*
X156160981Y-106113434D01*
X156160992Y-106113429D01*
X156375078Y-106013600D01*
X156568582Y-105878105D01*
X156735605Y-105711082D01*
X156871100Y-105517578D01*
X156970929Y-105303492D01*
X156970933Y-105303483D01*
X157014738Y-105140000D01*
X156101644Y-105140000D01*
X156163425Y-105032993D01*
X156197500Y-104905826D01*
X156197500Y-104774174D01*
X156163425Y-104647007D01*
X156101644Y-104540000D01*
X157014738Y-104540000D01*
X157014738Y-104539999D01*
X156970933Y-104376516D01*
X156970929Y-104376507D01*
X156871100Y-104162422D01*
X156871099Y-104162420D01*
X156735613Y-103968926D01*
X156735608Y-103968920D01*
X156568582Y-103801894D01*
X156375078Y-103666399D01*
X156160992Y-103566570D01*
X156160977Y-103566564D01*
X156121914Y-103556097D01*
X156062254Y-103519732D01*
X156031726Y-103456885D01*
X156040021Y-103387509D01*
X156084507Y-103333632D01*
X156109210Y-103320698D01*
X156190137Y-103289348D01*
X156363541Y-103181981D01*
X156514264Y-103044579D01*
X156637173Y-102881821D01*
X156728082Y-102699250D01*
X156783897Y-102503083D01*
X156802715Y-102300000D01*
X156800922Y-102280655D01*
X156783897Y-102096917D01*
X156776924Y-102072409D01*
X156756320Y-101999994D01*
X158552359Y-101999994D01*
X158552359Y-102000005D01*
X158572885Y-102247729D01*
X158572887Y-102247738D01*
X158633912Y-102488717D01*
X158733765Y-102716362D01*
X158733767Y-102716366D01*
X158806121Y-102827113D01*
X159518769Y-102114466D01*
X159544982Y-102212292D01*
X159617390Y-102337708D01*
X159719792Y-102440110D01*
X159845208Y-102512518D01*
X159943033Y-102538730D01*
X159227204Y-103254557D01*
X159227205Y-103254558D01*
X159234263Y-103260051D01*
X159234269Y-103260056D01*
X159452885Y-103378364D01*
X159452896Y-103378369D01*
X159688006Y-103459083D01*
X159933207Y-103500000D01*
X160181793Y-103500000D01*
X160426993Y-103459083D01*
X160662103Y-103378369D01*
X160662114Y-103378364D01*
X160880731Y-103260055D01*
X160880735Y-103260053D01*
X160887793Y-103254558D01*
X160887793Y-103254557D01*
X160171966Y-102538730D01*
X160269792Y-102512518D01*
X160395208Y-102440110D01*
X160497610Y-102337708D01*
X160570018Y-102212292D01*
X160596230Y-102114466D01*
X161308877Y-102827114D01*
X161381233Y-102716364D01*
X161481087Y-102488717D01*
X161542112Y-102247738D01*
X161542114Y-102247729D01*
X161562641Y-102000005D01*
X161562641Y-101999994D01*
X165052359Y-101999994D01*
X165052359Y-102000005D01*
X165072885Y-102247729D01*
X165072887Y-102247738D01*
X165133912Y-102488717D01*
X165233765Y-102716362D01*
X165233767Y-102716366D01*
X165306121Y-102827113D01*
X166018769Y-102114466D01*
X166044982Y-102212292D01*
X166117390Y-102337708D01*
X166219792Y-102440110D01*
X166345208Y-102512518D01*
X166443033Y-102538730D01*
X165727204Y-103254557D01*
X165727205Y-103254558D01*
X165734263Y-103260051D01*
X165734269Y-103260056D01*
X165952885Y-103378364D01*
X165952896Y-103378369D01*
X166188006Y-103459083D01*
X166433207Y-103500000D01*
X166681793Y-103500000D01*
X166926993Y-103459083D01*
X167162103Y-103378369D01*
X167162114Y-103378364D01*
X167380731Y-103260055D01*
X167380735Y-103260053D01*
X167387793Y-103254558D01*
X167387793Y-103254557D01*
X166671966Y-102538730D01*
X166769792Y-102512518D01*
X166895208Y-102440110D01*
X166997610Y-102337708D01*
X167070018Y-102212292D01*
X167096230Y-102114466D01*
X167808877Y-102827114D01*
X167881233Y-102716364D01*
X167981087Y-102488717D01*
X168042112Y-102247738D01*
X168042114Y-102247729D01*
X168062641Y-102000005D01*
X168062641Y-101999994D01*
X168042114Y-101752270D01*
X168042112Y-101752261D01*
X167981087Y-101511282D01*
X167881232Y-101283632D01*
X167808877Y-101172884D01*
X167096230Y-101885532D01*
X167070018Y-101787708D01*
X166997610Y-101662292D01*
X166895208Y-101559890D01*
X166769792Y-101487482D01*
X166671967Y-101461269D01*
X167387793Y-100745441D01*
X167387793Y-100745440D01*
X167380736Y-100739947D01*
X167380731Y-100739944D01*
X167162114Y-100621635D01*
X167162103Y-100621630D01*
X166926993Y-100540916D01*
X166681793Y-100500000D01*
X166433207Y-100500000D01*
X166188006Y-100540916D01*
X165952896Y-100621630D01*
X165952885Y-100621635D01*
X165734270Y-100739943D01*
X165734262Y-100739948D01*
X165727204Y-100745440D01*
X166443033Y-101461269D01*
X166345208Y-101487482D01*
X166219792Y-101559890D01*
X166117390Y-101662292D01*
X166044982Y-101787708D01*
X166018769Y-101885533D01*
X165306121Y-101172885D01*
X165233767Y-101283634D01*
X165133911Y-101511282D01*
X165072887Y-101752261D01*
X165072885Y-101752270D01*
X165052359Y-101999994D01*
X161562641Y-101999994D01*
X161542114Y-101752270D01*
X161542112Y-101752261D01*
X161481087Y-101511282D01*
X161381232Y-101283632D01*
X161308877Y-101172884D01*
X160596230Y-101885532D01*
X160570018Y-101787708D01*
X160497610Y-101662292D01*
X160395208Y-101559890D01*
X160269792Y-101487482D01*
X160171967Y-101461269D01*
X160887793Y-100745441D01*
X160887793Y-100745440D01*
X160880736Y-100739947D01*
X160880731Y-100739944D01*
X160662114Y-100621635D01*
X160662103Y-100621630D01*
X160426993Y-100540916D01*
X160181793Y-100500000D01*
X159933207Y-100500000D01*
X159688006Y-100540916D01*
X159452896Y-100621630D01*
X159452885Y-100621635D01*
X159234270Y-100739943D01*
X159234262Y-100739948D01*
X159227204Y-100745440D01*
X159943033Y-101461269D01*
X159845208Y-101487482D01*
X159719792Y-101559890D01*
X159617390Y-101662292D01*
X159544982Y-101787708D01*
X159518769Y-101885533D01*
X158806121Y-101172885D01*
X158733767Y-101283634D01*
X158633911Y-101511282D01*
X158572887Y-101752261D01*
X158572885Y-101752270D01*
X158552359Y-101999994D01*
X156756320Y-101999994D01*
X156728082Y-101900750D01*
X156637173Y-101718179D01*
X156514264Y-101555421D01*
X156514262Y-101555418D01*
X156363541Y-101418019D01*
X156363539Y-101418017D01*
X156190142Y-101310655D01*
X156190135Y-101310651D01*
X156083650Y-101269399D01*
X155999956Y-101236976D01*
X155799476Y-101199500D01*
X155595524Y-101199500D01*
X155395044Y-101236976D01*
X155395041Y-101236976D01*
X155395041Y-101236977D01*
X155204864Y-101310651D01*
X155204857Y-101310655D01*
X155031460Y-101418017D01*
X155031458Y-101418019D01*
X154880737Y-101555418D01*
X154757827Y-101718178D01*
X154666922Y-101900739D01*
X154666917Y-101900752D01*
X154611102Y-102096917D01*
X154592285Y-102299999D01*
X154592285Y-102300000D01*
X154611102Y-102503082D01*
X154666917Y-102699247D01*
X154666922Y-102699260D01*
X154757827Y-102881821D01*
X154880737Y-103044581D01*
X155031458Y-103181980D01*
X155031460Y-103181982D01*
X155077821Y-103210687D01*
X155204863Y-103289348D01*
X155285783Y-103320696D01*
X155341185Y-103363269D01*
X155364776Y-103429035D01*
X155349065Y-103497116D01*
X155299042Y-103545895D01*
X155273086Y-103556097D01*
X155234019Y-103566565D01*
X155234007Y-103566570D01*
X155019922Y-103666399D01*
X155019920Y-103666400D01*
X154826426Y-103801886D01*
X154826420Y-103801891D01*
X154659391Y-103968920D01*
X154659386Y-103968926D01*
X154523900Y-104162420D01*
X154523899Y-104162422D01*
X154424070Y-104376507D01*
X154424068Y-104376511D01*
X154415092Y-104410011D01*
X154378726Y-104469671D01*
X154315879Y-104500199D01*
X154246503Y-104491904D01*
X154192626Y-104447418D01*
X154184317Y-104433188D01*
X154128557Y-104321207D01*
X154097173Y-104258179D01*
X154009169Y-104141643D01*
X153974262Y-104095418D01*
X153823541Y-103958019D01*
X153823539Y-103958017D01*
X153650142Y-103850655D01*
X153650135Y-103850651D01*
X153524269Y-103801891D01*
X153459956Y-103776976D01*
X153259476Y-103739500D01*
X153055524Y-103739500D01*
X152855044Y-103776976D01*
X152855041Y-103776976D01*
X152855041Y-103776977D01*
X152664864Y-103850651D01*
X152664857Y-103850655D01*
X152491460Y-103958017D01*
X152491458Y-103958019D01*
X152340737Y-104095418D01*
X152217827Y-104258178D01*
X152126922Y-104440739D01*
X152126917Y-104440752D01*
X152071102Y-104636917D01*
X152052285Y-104839999D01*
X145325565Y-104839999D01*
X145379911Y-104769174D01*
X145435380Y-104635258D01*
X145454300Y-104491549D01*
X145435380Y-104347840D01*
X145398241Y-104258178D01*
X145379912Y-104213926D01*
X145379911Y-104213925D01*
X145379911Y-104213924D01*
X145291671Y-104098928D01*
X145176675Y-104010688D01*
X145176674Y-104010687D01*
X145176672Y-104010686D01*
X145150873Y-104000000D01*
X147944750Y-104000000D01*
X147958223Y-104102339D01*
X147963670Y-104143708D01*
X147963671Y-104143712D01*
X148019137Y-104277622D01*
X148019138Y-104277624D01*
X148019139Y-104277625D01*
X148107379Y-104392621D01*
X148222375Y-104480861D01*
X148222376Y-104480861D01*
X148222377Y-104480862D01*
X148266322Y-104499064D01*
X148356291Y-104536330D01*
X148483280Y-104553048D01*
X148499999Y-104555250D01*
X148500000Y-104555250D01*
X148500001Y-104555250D01*
X148514977Y-104553278D01*
X148643709Y-104536330D01*
X148777625Y-104480861D01*
X148892621Y-104392621D01*
X148980861Y-104277625D01*
X149036330Y-104143709D01*
X149055250Y-104000000D01*
X149036330Y-103856291D01*
X148980861Y-103722375D01*
X148892621Y-103607379D01*
X148777625Y-103519139D01*
X148777624Y-103519138D01*
X148777622Y-103519137D01*
X148643712Y-103463671D01*
X148643710Y-103463670D01*
X148643709Y-103463670D01*
X148571854Y-103454210D01*
X148500001Y-103444750D01*
X148499999Y-103444750D01*
X148356291Y-103463670D01*
X148356287Y-103463671D01*
X148222377Y-103519137D01*
X148107379Y-103607379D01*
X148019137Y-103722377D01*
X147963671Y-103856287D01*
X147963670Y-103856291D01*
X147950646Y-103955220D01*
X147944750Y-104000000D01*
X145150873Y-104000000D01*
X145042762Y-103955220D01*
X145042760Y-103955219D01*
X145042759Y-103955219D01*
X144970904Y-103945759D01*
X144899051Y-103936299D01*
X144899049Y-103936299D01*
X144755341Y-103955219D01*
X144755337Y-103955220D01*
X144621427Y-104010686D01*
X144506429Y-104098928D01*
X144418187Y-104213926D01*
X144362721Y-104347836D01*
X144362720Y-104347840D01*
X144343800Y-104491548D01*
X141860409Y-104491548D01*
X141888361Y-104455120D01*
X141943830Y-104321204D01*
X141959058Y-104205536D01*
X141987323Y-104141643D01*
X142045647Y-104103171D01*
X142115512Y-104102339D01*
X142157480Y-104123346D01*
X142221422Y-104172411D01*
X142221423Y-104172411D01*
X142221424Y-104172412D01*
X142233696Y-104177495D01*
X142355338Y-104227880D01*
X142482327Y-104244598D01*
X142499046Y-104246800D01*
X142499047Y-104246800D01*
X142499048Y-104246800D01*
X142514024Y-104244828D01*
X142642756Y-104227880D01*
X142776672Y-104172411D01*
X142891668Y-104084171D01*
X142979908Y-103969175D01*
X143035377Y-103835259D01*
X143054297Y-103691550D01*
X143035377Y-103547841D01*
X142986167Y-103429035D01*
X142979909Y-103413927D01*
X142979908Y-103413926D01*
X142979908Y-103413925D01*
X142891668Y-103298929D01*
X142776672Y-103210689D01*
X142776671Y-103210688D01*
X142776669Y-103210687D01*
X142642759Y-103155221D01*
X142642757Y-103155220D01*
X142642756Y-103155220D01*
X142570901Y-103145760D01*
X142499048Y-103136300D01*
X142499046Y-103136300D01*
X142355338Y-103155220D01*
X142355334Y-103155221D01*
X142221424Y-103210687D01*
X142106426Y-103298929D01*
X142018184Y-103413927D01*
X141962718Y-103547837D01*
X141962717Y-103547841D01*
X141947489Y-103663506D01*
X141919222Y-103727402D01*
X141860898Y-103765873D01*
X141791033Y-103766704D01*
X141749064Y-103745696D01*
X141685125Y-103696634D01*
X141685123Y-103696633D01*
X141551212Y-103641166D01*
X141551210Y-103641165D01*
X141551209Y-103641165D01*
X141472686Y-103630827D01*
X141407501Y-103622245D01*
X141407499Y-103622245D01*
X141263791Y-103641165D01*
X141263787Y-103641166D01*
X141129877Y-103696632D01*
X141014879Y-103784874D01*
X140926637Y-103899872D01*
X140871171Y-104033782D01*
X140871170Y-104033786D01*
X140852958Y-104172121D01*
X140852250Y-104177495D01*
X140862872Y-104258179D01*
X140871170Y-104321203D01*
X140871171Y-104321207D01*
X140926637Y-104455117D01*
X140926638Y-104455119D01*
X140926639Y-104455120D01*
X141014879Y-104570116D01*
X141082985Y-104622376D01*
X141124186Y-104678802D01*
X141128341Y-104748548D01*
X141094128Y-104809469D01*
X141032411Y-104842221D01*
X141007506Y-104844749D01*
X140863791Y-104863670D01*
X140863787Y-104863671D01*
X140729877Y-104919137D01*
X140666794Y-104967543D01*
X140624496Y-105000000D01*
X140614874Y-105007383D01*
X140609133Y-105013125D01*
X140608221Y-105012213D01*
X140558502Y-105048519D01*
X140516552Y-105055830D01*
X140403100Y-105055830D01*
X140278809Y-105092324D01*
X140278806Y-105092325D01*
X140278805Y-105092326D01*
X140235253Y-105120315D01*
X140169824Y-105162363D01*
X140084992Y-105260267D01*
X140084991Y-105260268D01*
X140031176Y-105378104D01*
X140018950Y-105463142D01*
X139989925Y-105526697D01*
X139943665Y-105560055D01*
X139821422Y-105610689D01*
X139731725Y-105679516D01*
X139666556Y-105704710D01*
X139598111Y-105690671D01*
X139548121Y-105641857D01*
X139541678Y-105628592D01*
X139488361Y-105499871D01*
X139488360Y-105499870D01*
X139488360Y-105499869D01*
X139400120Y-105384873D01*
X139285124Y-105296633D01*
X139285123Y-105296632D01*
X139285121Y-105296631D01*
X139151209Y-105241164D01*
X139143119Y-105240099D01*
X139139206Y-105239583D01*
X139075311Y-105211316D01*
X139036841Y-105152991D01*
X139035619Y-105148735D01*
X139035381Y-105147848D01*
X139035380Y-105147840D01*
X139001741Y-105066626D01*
X138979912Y-105013926D01*
X138979911Y-105013925D01*
X138979911Y-105013924D01*
X138891671Y-104898928D01*
X138776675Y-104810688D01*
X138776674Y-104810687D01*
X138776672Y-104810686D01*
X138642762Y-104755220D01*
X138642760Y-104755219D01*
X138642759Y-104755219D01*
X138570904Y-104745759D01*
X138499051Y-104736299D01*
X138499049Y-104736299D01*
X138355341Y-104755219D01*
X138355337Y-104755220D01*
X138221427Y-104810686D01*
X138106429Y-104898928D01*
X138018187Y-105013926D01*
X137962721Y-105147836D01*
X137962720Y-105147840D01*
X137945634Y-105277622D01*
X137943800Y-105291549D01*
X134655172Y-105291549D01*
X134665856Y-105277625D01*
X134721325Y-105143709D01*
X134740245Y-105000000D01*
X134721325Y-104856291D01*
X134676046Y-104746976D01*
X134665857Y-104722377D01*
X134665856Y-104722376D01*
X134665856Y-104722375D01*
X134655171Y-104708450D01*
X136343799Y-104708450D01*
X136361743Y-104844749D01*
X136362719Y-104852158D01*
X136362720Y-104852162D01*
X136418186Y-104986072D01*
X136418187Y-104986074D01*
X136418188Y-104986075D01*
X136506428Y-105101071D01*
X136621424Y-105189311D01*
X136755340Y-105244780D01*
X136872981Y-105260268D01*
X136899048Y-105263700D01*
X136899049Y-105263700D01*
X136899050Y-105263700D01*
X136914026Y-105261728D01*
X137042758Y-105244780D01*
X137176674Y-105189311D01*
X137291670Y-105101071D01*
X137379910Y-104986075D01*
X137435379Y-104852159D01*
X137454299Y-104708450D01*
X137435379Y-104564741D01*
X137393515Y-104463670D01*
X137379911Y-104430827D01*
X137379910Y-104430826D01*
X137379910Y-104430825D01*
X137291670Y-104315829D01*
X137176674Y-104227589D01*
X137176673Y-104227588D01*
X137176671Y-104227587D01*
X137042761Y-104172121D01*
X137042759Y-104172120D01*
X137042758Y-104172120D01*
X136969081Y-104162420D01*
X136899050Y-104153200D01*
X136899048Y-104153200D01*
X136755340Y-104172120D01*
X136755336Y-104172121D01*
X136621426Y-104227587D01*
X136506428Y-104315829D01*
X136418186Y-104430827D01*
X136362720Y-104564737D01*
X136362719Y-104564741D01*
X136353217Y-104636917D01*
X136343799Y-104708450D01*
X134655171Y-104708450D01*
X134597027Y-104632676D01*
X134571834Y-104567509D01*
X134585872Y-104499064D01*
X134634686Y-104449074D01*
X134647930Y-104442639D01*
X134776675Y-104389313D01*
X134891671Y-104301073D01*
X134979911Y-104186077D01*
X135035380Y-104052161D01*
X135054300Y-103908452D01*
X135035380Y-103764743D01*
X134993447Y-103663506D01*
X134979912Y-103630829D01*
X134979911Y-103630828D01*
X134979911Y-103630827D01*
X134891671Y-103515831D01*
X134776675Y-103427591D01*
X134776674Y-103427590D01*
X134776672Y-103427589D01*
X134642762Y-103372123D01*
X134642760Y-103372122D01*
X134642759Y-103372122D01*
X134570904Y-103362662D01*
X134499051Y-103353202D01*
X134499049Y-103353202D01*
X134355341Y-103372122D01*
X134355337Y-103372123D01*
X134221427Y-103427589D01*
X134106429Y-103515831D01*
X134018187Y-103630829D01*
X133962721Y-103764739D01*
X133962720Y-103764743D01*
X133944930Y-103899872D01*
X133943800Y-103908452D01*
X133957772Y-104014581D01*
X133962720Y-104052160D01*
X133962721Y-104052164D01*
X134018188Y-104186075D01*
X134018189Y-104186077D01*
X134087016Y-104275774D01*
X134112210Y-104340943D01*
X134098172Y-104409388D01*
X134049358Y-104459377D01*
X134036092Y-104465821D01*
X133907372Y-104519137D01*
X133792374Y-104607379D01*
X133704132Y-104722377D01*
X133648666Y-104856287D01*
X133648665Y-104856291D01*
X133634019Y-104967540D01*
X133629745Y-105000000D01*
X133645856Y-105122376D01*
X133648665Y-105143708D01*
X133648666Y-105143712D01*
X133704133Y-105277623D01*
X133704134Y-105277626D01*
X133783817Y-105381469D01*
X133809012Y-105446638D01*
X133794974Y-105515083D01*
X133746160Y-105565073D01*
X133732895Y-105571517D01*
X133638326Y-105610688D01*
X133523329Y-105698929D01*
X133435087Y-105813927D01*
X133379621Y-105947837D01*
X133379620Y-105947841D01*
X133364371Y-106063670D01*
X133360700Y-106091550D01*
X131211019Y-106091550D01*
X131143712Y-106063671D01*
X131143710Y-106063670D01*
X131143709Y-106063670D01*
X131071854Y-106054210D01*
X131000001Y-106044750D01*
X130999999Y-106044750D01*
X130856291Y-106063670D01*
X130856287Y-106063671D01*
X130722377Y-106119137D01*
X130607379Y-106207379D01*
X130519137Y-106322377D01*
X130463671Y-106456287D01*
X130463670Y-106456291D01*
X130445722Y-106592620D01*
X130444750Y-106600000D01*
X122574439Y-106600000D01*
X122624264Y-106554579D01*
X122747173Y-106391821D01*
X122838082Y-106209250D01*
X122893897Y-106013083D01*
X122912715Y-105810000D01*
X122893897Y-105606917D01*
X122838082Y-105410750D01*
X122832729Y-105400000D01*
X122778727Y-105291548D01*
X122747173Y-105228179D01*
X122665718Y-105120315D01*
X122624262Y-105065418D01*
X122473541Y-104928019D01*
X122473539Y-104928017D01*
X122300142Y-104820655D01*
X122300135Y-104820651D01*
X122205046Y-104783814D01*
X122109956Y-104746976D01*
X121909476Y-104709500D01*
X121705524Y-104709500D01*
X121505044Y-104746976D01*
X121505041Y-104746976D01*
X121505041Y-104746977D01*
X121314864Y-104820651D01*
X121314857Y-104820655D01*
X121141460Y-104928017D01*
X121141458Y-104928019D01*
X120990737Y-105065418D01*
X120867827Y-105228178D01*
X120776922Y-105410739D01*
X120776917Y-105410752D01*
X120721102Y-105606917D01*
X120702285Y-105809999D01*
X119500000Y-105809999D01*
X119500000Y-103269999D01*
X120702285Y-103269999D01*
X120702285Y-103270000D01*
X120721102Y-103473082D01*
X120776917Y-103669247D01*
X120776922Y-103669260D01*
X120867827Y-103851821D01*
X120990737Y-104014581D01*
X121141458Y-104151980D01*
X121141460Y-104151982D01*
X121196521Y-104186074D01*
X121314863Y-104259348D01*
X121505044Y-104333024D01*
X121705524Y-104370500D01*
X121705526Y-104370500D01*
X121909474Y-104370500D01*
X121909476Y-104370500D01*
X122109956Y-104333024D01*
X122300137Y-104259348D01*
X122473541Y-104151981D01*
X122624264Y-104014579D01*
X122747173Y-103851821D01*
X122838082Y-103669250D01*
X122893897Y-103473083D01*
X122912715Y-103270000D01*
X122911793Y-103260055D01*
X122893897Y-103066917D01*
X122884889Y-103035257D01*
X122843999Y-102891547D01*
X139543800Y-102891547D01*
X139543800Y-102891548D01*
X139562720Y-103035256D01*
X139562721Y-103035260D01*
X139618187Y-103169170D01*
X139618188Y-103169172D01*
X139618189Y-103169173D01*
X139706429Y-103284169D01*
X139821425Y-103372409D01*
X139955341Y-103427878D01*
X140082330Y-103444596D01*
X140099049Y-103446798D01*
X140099050Y-103446798D01*
X140099051Y-103446798D01*
X140114606Y-103444750D01*
X140242759Y-103427878D01*
X140376675Y-103372409D01*
X140491671Y-103284169D01*
X140579911Y-103169173D01*
X140635380Y-103035257D01*
X140654300Y-102891548D01*
X140635380Y-102747839D01*
X140579911Y-102613923D01*
X140491671Y-102498927D01*
X140376675Y-102410687D01*
X140376674Y-102410686D01*
X140376672Y-102410685D01*
X140242762Y-102355219D01*
X140242760Y-102355218D01*
X140242759Y-102355218D01*
X140170904Y-102345758D01*
X140099051Y-102336298D01*
X140099049Y-102336298D01*
X139955341Y-102355218D01*
X139955337Y-102355219D01*
X139821427Y-102410685D01*
X139706429Y-102498927D01*
X139618187Y-102613925D01*
X139562721Y-102747835D01*
X139562720Y-102747839D01*
X139543800Y-102891547D01*
X122843999Y-102891547D01*
X122838082Y-102870750D01*
X122816353Y-102827113D01*
X122753592Y-102701071D01*
X122747173Y-102688179D01*
X122670068Y-102586075D01*
X122624262Y-102525418D01*
X122473541Y-102388019D01*
X122473539Y-102388017D01*
X122345033Y-102308450D01*
X137360701Y-102308450D01*
X137375948Y-102424264D01*
X137379621Y-102452158D01*
X137379622Y-102452162D01*
X137435088Y-102586072D01*
X137435089Y-102586074D01*
X137435090Y-102586075D01*
X137523330Y-102701071D01*
X137638326Y-102789311D01*
X137772242Y-102844780D01*
X137899231Y-102861498D01*
X137915950Y-102863700D01*
X137915951Y-102863700D01*
X137915952Y-102863700D01*
X137930928Y-102861728D01*
X138059660Y-102844780D01*
X138193576Y-102789311D01*
X138308572Y-102701071D01*
X138396812Y-102586075D01*
X138452281Y-102452159D01*
X138471201Y-102308450D01*
X145360701Y-102308450D01*
X145375948Y-102424264D01*
X145379621Y-102452158D01*
X145379622Y-102452162D01*
X145435088Y-102586072D01*
X145435089Y-102586074D01*
X145435090Y-102586075D01*
X145523330Y-102701071D01*
X145638326Y-102789311D01*
X145772242Y-102844780D01*
X145899231Y-102861498D01*
X145915950Y-102863700D01*
X145915951Y-102863700D01*
X145915952Y-102863700D01*
X145930928Y-102861728D01*
X146059660Y-102844780D01*
X146193576Y-102789311D01*
X146308572Y-102701071D01*
X146396812Y-102586075D01*
X146452281Y-102452159D01*
X146471201Y-102308450D01*
X146452281Y-102164741D01*
X146396812Y-102030825D01*
X146308572Y-101915829D01*
X146193576Y-101827589D01*
X146193575Y-101827588D01*
X146193573Y-101827587D01*
X146059663Y-101772121D01*
X146059661Y-101772120D01*
X146059660Y-101772120D01*
X145987805Y-101762660D01*
X145915952Y-101753200D01*
X145915950Y-101753200D01*
X145772242Y-101772120D01*
X145772238Y-101772121D01*
X145638328Y-101827587D01*
X145523330Y-101915829D01*
X145435088Y-102030827D01*
X145379622Y-102164737D01*
X145379621Y-102164741D01*
X145361814Y-102299999D01*
X145360701Y-102308450D01*
X138471201Y-102308450D01*
X138452281Y-102164741D01*
X138396812Y-102030825D01*
X138308572Y-101915829D01*
X138193576Y-101827589D01*
X138193575Y-101827588D01*
X138193573Y-101827587D01*
X138059663Y-101772121D01*
X138059661Y-101772120D01*
X138059660Y-101772120D01*
X137987805Y-101762660D01*
X137915952Y-101753200D01*
X137915950Y-101753200D01*
X137772242Y-101772120D01*
X137772238Y-101772121D01*
X137638328Y-101827587D01*
X137523330Y-101915829D01*
X137435088Y-102030827D01*
X137379622Y-102164737D01*
X137379621Y-102164741D01*
X137361814Y-102299999D01*
X137360701Y-102308450D01*
X122345033Y-102308450D01*
X122300142Y-102280655D01*
X122300135Y-102280651D01*
X122123678Y-102212292D01*
X122109956Y-102206976D01*
X121909476Y-102169500D01*
X121705524Y-102169500D01*
X121505044Y-102206976D01*
X121505041Y-102206976D01*
X121505041Y-102206977D01*
X121314864Y-102280651D01*
X121314857Y-102280655D01*
X121141460Y-102388017D01*
X121141458Y-102388019D01*
X120990737Y-102525418D01*
X120867827Y-102688178D01*
X120776922Y-102870739D01*
X120776917Y-102870752D01*
X120721102Y-103066917D01*
X120702285Y-103269999D01*
X119500000Y-103269999D01*
X119500000Y-100729999D01*
X120702285Y-100729999D01*
X120702285Y-100730000D01*
X120721102Y-100933082D01*
X120776917Y-101129247D01*
X120776922Y-101129260D01*
X120867827Y-101311821D01*
X120990737Y-101474581D01*
X121141458Y-101611980D01*
X121141460Y-101611982D01*
X121222714Y-101662292D01*
X121314863Y-101719348D01*
X121505044Y-101793024D01*
X121705524Y-101830500D01*
X121705526Y-101830500D01*
X121909474Y-101830500D01*
X121909476Y-101830500D01*
X122109956Y-101793024D01*
X122300137Y-101719348D01*
X122473541Y-101611981D01*
X122624264Y-101474579D01*
X122661462Y-101425321D01*
X152057000Y-101425321D01*
X152057000Y-103174678D01*
X152071532Y-103247735D01*
X152071533Y-103247739D01*
X152079760Y-103260051D01*
X152126899Y-103330601D01*
X152189472Y-103372410D01*
X152209760Y-103385966D01*
X152209764Y-103385967D01*
X152282821Y-103400499D01*
X152282824Y-103400500D01*
X152282826Y-103400500D01*
X154032176Y-103400500D01*
X154032177Y-103400499D01*
X154105240Y-103385966D01*
X154188101Y-103330601D01*
X154243466Y-103247740D01*
X154258000Y-103174674D01*
X154258000Y-101425326D01*
X154258000Y-101425323D01*
X154257999Y-101425321D01*
X154243467Y-101352264D01*
X154243466Y-101352260D01*
X154188101Y-101269399D01*
X154105240Y-101214034D01*
X154105239Y-101214033D01*
X154105235Y-101214032D01*
X154032177Y-101199500D01*
X154032174Y-101199500D01*
X152282826Y-101199500D01*
X152282823Y-101199500D01*
X152209764Y-101214032D01*
X152209760Y-101214033D01*
X152126899Y-101269399D01*
X152071533Y-101352260D01*
X152071532Y-101352264D01*
X152057000Y-101425321D01*
X122661462Y-101425321D01*
X122747173Y-101311821D01*
X122838082Y-101129250D01*
X122893897Y-100933083D01*
X122912715Y-100730000D01*
X122893897Y-100526917D01*
X122838082Y-100330750D01*
X122747173Y-100148179D01*
X122624264Y-99985421D01*
X122624262Y-99985418D01*
X122473541Y-99848019D01*
X122473539Y-99848017D01*
X122300142Y-99740655D01*
X122300135Y-99740651D01*
X122137444Y-99677625D01*
X122109956Y-99666976D01*
X121909476Y-99629500D01*
X121705524Y-99629500D01*
X121505044Y-99666976D01*
X121505041Y-99666976D01*
X121505041Y-99666977D01*
X121314864Y-99740651D01*
X121314857Y-99740655D01*
X121141460Y-99848017D01*
X121141458Y-99848019D01*
X120990737Y-99985418D01*
X120867827Y-100148178D01*
X120776922Y-100330739D01*
X120776917Y-100330752D01*
X120721102Y-100526917D01*
X120702285Y-100729999D01*
X119500000Y-100729999D01*
X119500000Y-98189999D01*
X120702285Y-98189999D01*
X120702285Y-98190000D01*
X120721102Y-98393082D01*
X120776917Y-98589247D01*
X120776922Y-98589260D01*
X120867827Y-98771821D01*
X120990737Y-98934581D01*
X121141458Y-99071980D01*
X121141460Y-99071982D01*
X121222848Y-99122375D01*
X121314863Y-99179348D01*
X121505044Y-99253024D01*
X121705524Y-99290500D01*
X121705526Y-99290500D01*
X121909474Y-99290500D01*
X121909476Y-99290500D01*
X122109956Y-99253024D01*
X122300137Y-99179348D01*
X122473541Y-99071981D01*
X122552502Y-98999999D01*
X125944750Y-98999999D01*
X125944750Y-99000000D01*
X125963670Y-99143708D01*
X125963671Y-99143712D01*
X126019137Y-99277622D01*
X126019138Y-99277624D01*
X126019139Y-99277625D01*
X126107379Y-99392621D01*
X126222375Y-99480861D01*
X126356291Y-99536330D01*
X126483280Y-99553048D01*
X126499999Y-99555250D01*
X126500000Y-99555250D01*
X126500001Y-99555250D01*
X126514977Y-99553278D01*
X126643709Y-99536330D01*
X126777625Y-99480861D01*
X126883005Y-99400000D01*
X138217935Y-99400000D01*
X138235883Y-99536329D01*
X138236855Y-99543708D01*
X138236856Y-99543712D01*
X138292322Y-99677622D01*
X138292323Y-99677624D01*
X138292324Y-99677625D01*
X138380564Y-99792621D01*
X138495560Y-99880861D01*
X138629476Y-99936330D01*
X138756465Y-99953048D01*
X138773184Y-99955250D01*
X138773185Y-99955250D01*
X138773186Y-99955250D01*
X138788162Y-99953278D01*
X138916894Y-99936330D01*
X139050810Y-99880861D01*
X139165806Y-99792621D01*
X139254046Y-99677625D01*
X139309515Y-99543709D01*
X139328435Y-99400000D01*
X139309515Y-99256291D01*
X139254046Y-99122375D01*
X139165806Y-99007379D01*
X139156188Y-98999999D01*
X141944750Y-98999999D01*
X141944750Y-99000000D01*
X141963670Y-99143708D01*
X141963671Y-99143712D01*
X142019137Y-99277622D01*
X142019138Y-99277624D01*
X142019139Y-99277625D01*
X142107379Y-99392621D01*
X142222375Y-99480861D01*
X142356291Y-99536330D01*
X142483280Y-99553048D01*
X142499999Y-99555250D01*
X142500000Y-99555250D01*
X142500001Y-99555250D01*
X142514977Y-99553278D01*
X142643709Y-99536330D01*
X142777625Y-99480861D01*
X142892621Y-99392621D01*
X142980861Y-99277625D01*
X143036330Y-99143709D01*
X143055250Y-99000000D01*
X143055250Y-98999999D01*
X147444750Y-98999999D01*
X147444750Y-99000000D01*
X147463670Y-99143708D01*
X147463671Y-99143712D01*
X147519137Y-99277622D01*
X147519138Y-99277624D01*
X147519139Y-99277625D01*
X147607379Y-99392621D01*
X147722375Y-99480861D01*
X147856291Y-99536330D01*
X147983280Y-99553048D01*
X147999999Y-99555250D01*
X148000000Y-99555250D01*
X148000001Y-99555250D01*
X148014977Y-99553278D01*
X148143709Y-99536330D01*
X148277625Y-99480861D01*
X148392621Y-99392621D01*
X148480861Y-99277625D01*
X148536330Y-99143709D01*
X148555250Y-99000000D01*
X148536330Y-98856291D01*
X148480861Y-98722375D01*
X148392621Y-98607379D01*
X148277625Y-98519139D01*
X148277624Y-98519138D01*
X148277622Y-98519137D01*
X148143712Y-98463671D01*
X148143710Y-98463670D01*
X148143709Y-98463670D01*
X148071854Y-98454210D01*
X148000001Y-98444750D01*
X147999999Y-98444750D01*
X147856291Y-98463670D01*
X147856287Y-98463671D01*
X147722377Y-98519137D01*
X147607379Y-98607379D01*
X147519137Y-98722377D01*
X147463671Y-98856287D01*
X147463670Y-98856291D01*
X147444750Y-98999999D01*
X143055250Y-98999999D01*
X143036330Y-98856291D01*
X142980861Y-98722375D01*
X142892621Y-98607379D01*
X142777625Y-98519139D01*
X142777624Y-98519138D01*
X142777622Y-98519137D01*
X142643712Y-98463671D01*
X142643710Y-98463670D01*
X142643709Y-98463670D01*
X142571854Y-98454210D01*
X142500001Y-98444750D01*
X142499999Y-98444750D01*
X142356291Y-98463670D01*
X142356287Y-98463671D01*
X142222377Y-98519137D01*
X142107379Y-98607379D01*
X142019137Y-98722377D01*
X141963671Y-98856287D01*
X141963670Y-98856291D01*
X141944750Y-98999999D01*
X139156188Y-98999999D01*
X139050810Y-98919139D01*
X139050809Y-98919138D01*
X139050807Y-98919137D01*
X138916897Y-98863671D01*
X138916895Y-98863670D01*
X138916894Y-98863670D01*
X138845039Y-98854210D01*
X138773186Y-98844750D01*
X138773184Y-98844750D01*
X138629476Y-98863670D01*
X138629472Y-98863671D01*
X138495562Y-98919137D01*
X138380564Y-99007379D01*
X138292322Y-99122377D01*
X138236856Y-99256287D01*
X138236855Y-99256291D01*
X138218907Y-99392620D01*
X138217935Y-99400000D01*
X126883005Y-99400000D01*
X126892621Y-99392621D01*
X126980861Y-99277625D01*
X127036330Y-99143709D01*
X127055250Y-99000000D01*
X127036330Y-98856291D01*
X126980861Y-98722375D01*
X126892621Y-98607379D01*
X126777625Y-98519139D01*
X126777624Y-98519138D01*
X126777622Y-98519137D01*
X126643712Y-98463671D01*
X126643710Y-98463670D01*
X126643709Y-98463670D01*
X126571854Y-98454210D01*
X126500001Y-98444750D01*
X126499999Y-98444750D01*
X126356291Y-98463670D01*
X126356287Y-98463671D01*
X126222377Y-98519137D01*
X126107379Y-98607379D01*
X126019137Y-98722377D01*
X125963671Y-98856287D01*
X125963670Y-98856291D01*
X125944750Y-98999999D01*
X122552502Y-98999999D01*
X122624264Y-98934579D01*
X122747173Y-98771821D01*
X122838082Y-98589250D01*
X122893897Y-98393083D01*
X122912715Y-98190000D01*
X122893897Y-97986917D01*
X122838082Y-97790750D01*
X122747173Y-97608179D01*
X122624264Y-97445421D01*
X122624262Y-97445418D01*
X122473541Y-97308019D01*
X122473539Y-97308017D01*
X122300142Y-97200655D01*
X122300135Y-97200651D01*
X122205046Y-97163814D01*
X122109956Y-97126976D01*
X121909476Y-97089500D01*
X121705524Y-97089500D01*
X121505044Y-97126976D01*
X121505041Y-97126976D01*
X121505041Y-97126977D01*
X121314864Y-97200651D01*
X121314857Y-97200655D01*
X121141460Y-97308017D01*
X121141458Y-97308019D01*
X120990737Y-97445418D01*
X120867827Y-97608178D01*
X120776922Y-97790739D01*
X120776917Y-97790752D01*
X120721102Y-97986917D01*
X120702285Y-98189999D01*
X119500000Y-98189999D01*
X119500000Y-95649999D01*
X120702285Y-95649999D01*
X120702285Y-95650000D01*
X120721102Y-95853082D01*
X120776917Y-96049247D01*
X120776922Y-96049260D01*
X120867827Y-96231821D01*
X120990737Y-96394581D01*
X121141458Y-96531980D01*
X121141460Y-96531982D01*
X121240641Y-96593392D01*
X121314863Y-96639348D01*
X121505044Y-96713024D01*
X121705524Y-96750500D01*
X121705526Y-96750500D01*
X121909474Y-96750500D01*
X121909476Y-96750500D01*
X122109956Y-96713024D01*
X122300137Y-96639348D01*
X122473541Y-96531981D01*
X122508624Y-96499999D01*
X139944750Y-96499999D01*
X139944750Y-96500000D01*
X139963670Y-96643708D01*
X139963671Y-96643712D01*
X140019137Y-96777622D01*
X140019138Y-96777624D01*
X140019139Y-96777625D01*
X140107379Y-96892621D01*
X140222375Y-96980861D01*
X140356291Y-97036330D01*
X140483280Y-97053048D01*
X140499999Y-97055250D01*
X140500000Y-97055250D01*
X140500001Y-97055250D01*
X140514977Y-97053278D01*
X140643709Y-97036330D01*
X140777625Y-96980861D01*
X140892621Y-96892621D01*
X140980861Y-96777625D01*
X141036330Y-96643709D01*
X141055250Y-96500000D01*
X141036330Y-96356291D01*
X140980861Y-96222375D01*
X140892621Y-96107379D01*
X140777625Y-96019139D01*
X140777624Y-96019138D01*
X140777622Y-96019137D01*
X140643712Y-95963671D01*
X140643710Y-95963670D01*
X140643709Y-95963670D01*
X140571854Y-95954210D01*
X140500001Y-95944750D01*
X140499999Y-95944750D01*
X140356291Y-95963670D01*
X140356287Y-95963671D01*
X140222377Y-96019137D01*
X140107379Y-96107379D01*
X140019137Y-96222377D01*
X139963671Y-96356287D01*
X139963670Y-96356291D01*
X139944750Y-96499999D01*
X122508624Y-96499999D01*
X122624264Y-96394579D01*
X122747173Y-96231821D01*
X122838082Y-96049250D01*
X122893897Y-95853083D01*
X122912715Y-95650000D01*
X122893897Y-95446917D01*
X122838082Y-95250750D01*
X122747173Y-95068179D01*
X122624264Y-94905421D01*
X122624262Y-94905418D01*
X122473541Y-94768019D01*
X122473539Y-94768017D01*
X122300142Y-94660655D01*
X122300135Y-94660651D01*
X122205046Y-94623814D01*
X122109956Y-94586976D01*
X121909476Y-94549500D01*
X121705524Y-94549500D01*
X121505044Y-94586976D01*
X121505041Y-94586976D01*
X121505041Y-94586977D01*
X121314864Y-94660651D01*
X121314857Y-94660655D01*
X121141460Y-94768017D01*
X121141458Y-94768019D01*
X120990737Y-94905418D01*
X120867827Y-95068178D01*
X120776922Y-95250739D01*
X120776917Y-95250752D01*
X120721102Y-95446917D01*
X120702285Y-95649999D01*
X119500000Y-95649999D01*
X119500000Y-93109999D01*
X120702285Y-93109999D01*
X120702285Y-93110000D01*
X120721102Y-93313082D01*
X120776917Y-93509247D01*
X120776922Y-93509260D01*
X120867827Y-93691821D01*
X120990737Y-93854581D01*
X121141458Y-93991980D01*
X121141460Y-93991982D01*
X121240641Y-94053392D01*
X121314863Y-94099348D01*
X121505044Y-94173024D01*
X121705524Y-94210500D01*
X121705526Y-94210500D01*
X121909474Y-94210500D01*
X121909476Y-94210500D01*
X122109956Y-94173024D01*
X122300137Y-94099348D01*
X122473541Y-93991981D01*
X122624264Y-93854579D01*
X122747173Y-93691821D01*
X122838082Y-93509250D01*
X122893897Y-93313083D01*
X122912715Y-93110000D01*
X122893897Y-92906917D01*
X122838082Y-92710750D01*
X122747173Y-92528179D01*
X122624264Y-92365421D01*
X122624262Y-92365418D01*
X122473541Y-92228019D01*
X122473539Y-92228017D01*
X122300142Y-92120655D01*
X122300135Y-92120651D01*
X122205046Y-92083814D01*
X122109956Y-92046976D01*
X121909476Y-92009500D01*
X121705524Y-92009500D01*
X121505044Y-92046976D01*
X121505041Y-92046976D01*
X121505041Y-92046977D01*
X121314864Y-92120651D01*
X121314857Y-92120655D01*
X121141460Y-92228017D01*
X121141458Y-92228019D01*
X120990737Y-92365418D01*
X120867827Y-92528178D01*
X120776922Y-92710739D01*
X120776917Y-92710752D01*
X120721102Y-92906917D01*
X120702285Y-93109999D01*
X119500000Y-93109999D01*
X119500000Y-90569999D01*
X120702285Y-90569999D01*
X120702285Y-90570000D01*
X120721102Y-90773082D01*
X120776917Y-90969247D01*
X120776922Y-90969260D01*
X120867827Y-91151821D01*
X120990737Y-91314581D01*
X121141458Y-91451980D01*
X121141460Y-91451982D01*
X121240641Y-91513392D01*
X121314863Y-91559348D01*
X121505044Y-91633024D01*
X121705524Y-91670500D01*
X121705526Y-91670500D01*
X121909474Y-91670500D01*
X121909476Y-91670500D01*
X122109956Y-91633024D01*
X122300137Y-91559348D01*
X122473541Y-91451981D01*
X122624264Y-91314579D01*
X122747173Y-91151821D01*
X122838082Y-90969250D01*
X122893897Y-90773083D01*
X122912715Y-90570000D01*
X122893897Y-90366917D01*
X122838082Y-90170750D01*
X122747173Y-89988179D01*
X122624264Y-89825421D01*
X122624262Y-89825418D01*
X122473541Y-89688019D01*
X122473539Y-89688017D01*
X122300142Y-89580655D01*
X122300135Y-89580651D01*
X122199313Y-89541593D01*
X122109956Y-89506976D01*
X121909476Y-89469500D01*
X121705524Y-89469500D01*
X121505044Y-89506976D01*
X121505041Y-89506976D01*
X121505041Y-89506977D01*
X121314864Y-89580651D01*
X121314857Y-89580655D01*
X121141460Y-89688017D01*
X121141458Y-89688019D01*
X120990737Y-89825418D01*
X120867827Y-89988178D01*
X120776922Y-90170739D01*
X120776917Y-90170752D01*
X120721102Y-90366917D01*
X120702285Y-90569999D01*
X119500000Y-90569999D01*
X119500000Y-88029999D01*
X120702285Y-88029999D01*
X120702285Y-88030000D01*
X120721102Y-88233082D01*
X120776917Y-88429247D01*
X120776922Y-88429260D01*
X120867827Y-88611821D01*
X120990737Y-88774581D01*
X121141458Y-88911980D01*
X121141460Y-88911982D01*
X121240641Y-88973392D01*
X121314863Y-89019348D01*
X121505044Y-89093024D01*
X121705524Y-89130500D01*
X121705526Y-89130500D01*
X121909474Y-89130500D01*
X121909476Y-89130500D01*
X122109956Y-89093024D01*
X122300137Y-89019348D01*
X122473541Y-88911981D01*
X122624264Y-88774579D01*
X122747173Y-88611821D01*
X122763019Y-88579997D01*
X145852223Y-88579997D01*
X145852223Y-88580002D01*
X145871293Y-88797975D01*
X145871293Y-88797979D01*
X145927922Y-89009322D01*
X145927924Y-89009326D01*
X145927925Y-89009330D01*
X145966951Y-89093022D01*
X146020397Y-89207638D01*
X146020398Y-89207639D01*
X146145902Y-89386877D01*
X146300623Y-89541598D01*
X146479861Y-89667102D01*
X146678170Y-89759575D01*
X146889523Y-89816207D01*
X147072426Y-89832208D01*
X147107498Y-89835277D01*
X147107500Y-89835277D01*
X147107502Y-89835277D01*
X147135754Y-89832805D01*
X147325477Y-89816207D01*
X147536830Y-89759575D01*
X147735139Y-89667102D01*
X147914377Y-89541598D01*
X148069098Y-89386877D01*
X148194602Y-89207639D01*
X148287075Y-89009330D01*
X148343707Y-88797977D01*
X148362777Y-88580000D01*
X148362777Y-88579997D01*
X152352223Y-88579997D01*
X152352223Y-88580002D01*
X152371293Y-88797975D01*
X152371293Y-88797979D01*
X152427922Y-89009322D01*
X152427924Y-89009326D01*
X152427925Y-89009330D01*
X152466951Y-89093022D01*
X152520397Y-89207638D01*
X152520398Y-89207639D01*
X152645902Y-89386877D01*
X152800623Y-89541598D01*
X152979861Y-89667102D01*
X153178170Y-89759575D01*
X153389523Y-89816207D01*
X153572426Y-89832208D01*
X153607498Y-89835277D01*
X153607500Y-89835277D01*
X153607502Y-89835277D01*
X153635754Y-89832805D01*
X153825477Y-89816207D01*
X154036830Y-89759575D01*
X154235139Y-89667102D01*
X154414377Y-89541598D01*
X154569098Y-89386877D01*
X154694602Y-89207639D01*
X154787075Y-89009330D01*
X154843707Y-88797977D01*
X154862777Y-88580000D01*
X154843707Y-88362023D01*
X154787075Y-88150670D01*
X154694602Y-87952362D01*
X154694600Y-87952359D01*
X154694599Y-87952357D01*
X154569099Y-87773124D01*
X154569096Y-87773121D01*
X154414377Y-87618402D01*
X154235139Y-87492898D01*
X154235140Y-87492898D01*
X154235138Y-87492897D01*
X154135984Y-87446661D01*
X154036830Y-87400425D01*
X154036826Y-87400424D01*
X154036822Y-87400422D01*
X153825477Y-87343793D01*
X153607502Y-87324723D01*
X153607498Y-87324723D01*
X153462182Y-87337436D01*
X153389523Y-87343793D01*
X153389520Y-87343793D01*
X153178177Y-87400422D01*
X153178168Y-87400426D01*
X152979861Y-87492898D01*
X152979857Y-87492900D01*
X152800621Y-87618402D01*
X152645902Y-87773121D01*
X152520400Y-87952357D01*
X152520398Y-87952361D01*
X152427926Y-88150668D01*
X152427922Y-88150677D01*
X152371293Y-88362020D01*
X152371293Y-88362024D01*
X152352223Y-88579997D01*
X148362777Y-88579997D01*
X148343707Y-88362023D01*
X148287075Y-88150670D01*
X148194602Y-87952362D01*
X148194600Y-87952359D01*
X148194599Y-87952357D01*
X148069099Y-87773124D01*
X148069096Y-87773121D01*
X147914377Y-87618402D01*
X147735139Y-87492898D01*
X147735140Y-87492898D01*
X147735138Y-87492897D01*
X147635984Y-87446661D01*
X147536830Y-87400425D01*
X147536826Y-87400424D01*
X147536822Y-87400422D01*
X147325477Y-87343793D01*
X147107502Y-87324723D01*
X147107498Y-87324723D01*
X146962182Y-87337436D01*
X146889523Y-87343793D01*
X146889520Y-87343793D01*
X146678177Y-87400422D01*
X146678168Y-87400426D01*
X146479861Y-87492898D01*
X146479857Y-87492900D01*
X146300621Y-87618402D01*
X146145902Y-87773121D01*
X146020400Y-87952357D01*
X146020398Y-87952361D01*
X145927926Y-88150668D01*
X145927922Y-88150677D01*
X145871293Y-88362020D01*
X145871293Y-88362024D01*
X145852223Y-88579997D01*
X122763019Y-88579997D01*
X122838082Y-88429250D01*
X122893897Y-88233083D01*
X122912715Y-88030000D01*
X122905520Y-87952357D01*
X122893897Y-87826917D01*
X122878591Y-87773123D01*
X122838082Y-87630750D01*
X122831933Y-87618402D01*
X122769440Y-87492897D01*
X122747173Y-87448179D01*
X122688204Y-87370091D01*
X122624262Y-87285418D01*
X122473541Y-87148019D01*
X122473539Y-87148017D01*
X122300142Y-87040655D01*
X122300135Y-87040651D01*
X122205046Y-87003814D01*
X122109956Y-86966976D01*
X121909476Y-86929500D01*
X121705524Y-86929500D01*
X121505044Y-86966976D01*
X121505041Y-86966976D01*
X121505041Y-86966977D01*
X121314864Y-87040651D01*
X121314857Y-87040655D01*
X121141460Y-87148017D01*
X121141458Y-87148019D01*
X120990737Y-87285418D01*
X120867827Y-87448178D01*
X120776922Y-87630739D01*
X120776917Y-87630752D01*
X120721102Y-87826917D01*
X120702285Y-88029999D01*
X119500000Y-88029999D01*
X119500000Y-85489999D01*
X120702285Y-85489999D01*
X120702285Y-85490000D01*
X120721102Y-85693082D01*
X120776917Y-85889247D01*
X120776922Y-85889260D01*
X120867827Y-86071821D01*
X120990737Y-86234581D01*
X121141458Y-86371980D01*
X121141460Y-86371982D01*
X121240641Y-86433392D01*
X121314863Y-86479348D01*
X121505044Y-86553024D01*
X121705524Y-86590500D01*
X121705526Y-86590500D01*
X121909474Y-86590500D01*
X121909476Y-86590500D01*
X122109956Y-86553024D01*
X122300137Y-86479348D01*
X122473541Y-86371981D01*
X122624264Y-86234579D01*
X122747173Y-86071821D01*
X122838082Y-85889250D01*
X122893897Y-85693083D01*
X122912715Y-85490000D01*
X122893897Y-85286917D01*
X122838082Y-85090750D01*
X122813607Y-85041598D01*
X122793772Y-85001764D01*
X122747173Y-84908179D01*
X122624264Y-84745421D01*
X122624262Y-84745418D01*
X122473541Y-84608019D01*
X122473539Y-84608017D01*
X122300142Y-84500655D01*
X122300135Y-84500651D01*
X122205046Y-84463814D01*
X122109956Y-84426976D01*
X121909476Y-84389500D01*
X121705524Y-84389500D01*
X121505044Y-84426976D01*
X121505041Y-84426976D01*
X121505041Y-84426977D01*
X121314864Y-84500651D01*
X121314857Y-84500655D01*
X121141460Y-84608017D01*
X121141458Y-84608019D01*
X120990737Y-84745418D01*
X120867827Y-84908178D01*
X120776922Y-85090739D01*
X120776917Y-85090752D01*
X120721102Y-85286917D01*
X120702285Y-85489999D01*
X119500000Y-85489999D01*
X119500000Y-84079997D01*
X145852223Y-84079997D01*
X145852223Y-84080002D01*
X145871293Y-84297975D01*
X145871293Y-84297979D01*
X145927922Y-84509322D01*
X145927924Y-84509326D01*
X145927925Y-84509330D01*
X145973944Y-84608017D01*
X146020397Y-84707638D01*
X146020398Y-84707639D01*
X146145902Y-84886877D01*
X146300623Y-85041598D01*
X146479861Y-85167102D01*
X146678170Y-85259575D01*
X146889523Y-85316207D01*
X147072426Y-85332208D01*
X147107498Y-85335277D01*
X147107500Y-85335277D01*
X147107502Y-85335277D01*
X147135754Y-85332805D01*
X147325477Y-85316207D01*
X147536830Y-85259575D01*
X147735139Y-85167102D01*
X147914377Y-85041598D01*
X148069098Y-84886877D01*
X148194602Y-84707639D01*
X148287075Y-84509330D01*
X148343707Y-84297977D01*
X148362777Y-84080000D01*
X148362777Y-84079997D01*
X152352223Y-84079997D01*
X152352223Y-84080002D01*
X152371293Y-84297975D01*
X152371293Y-84297979D01*
X152427922Y-84509322D01*
X152427924Y-84509326D01*
X152427925Y-84509330D01*
X152473944Y-84608017D01*
X152520397Y-84707638D01*
X152520398Y-84707639D01*
X152645902Y-84886877D01*
X152800623Y-85041598D01*
X152979861Y-85167102D01*
X153178170Y-85259575D01*
X153389523Y-85316207D01*
X153572426Y-85332208D01*
X153607498Y-85335277D01*
X153607500Y-85335277D01*
X153607502Y-85335277D01*
X153635754Y-85332805D01*
X153825477Y-85316207D01*
X154036830Y-85259575D01*
X154235139Y-85167102D01*
X154414377Y-85041598D01*
X154569098Y-84886877D01*
X154694602Y-84707639D01*
X154787075Y-84509330D01*
X154843707Y-84297977D01*
X154862777Y-84080000D01*
X154843707Y-83862023D01*
X154787075Y-83650670D01*
X154694602Y-83452362D01*
X154694600Y-83452359D01*
X154694599Y-83452357D01*
X154569099Y-83273124D01*
X154569096Y-83273121D01*
X154414377Y-83118402D01*
X154235139Y-82992898D01*
X154235140Y-82992898D01*
X154235138Y-82992897D01*
X154135984Y-82946661D01*
X154036830Y-82900425D01*
X154036826Y-82900424D01*
X154036822Y-82900422D01*
X153825477Y-82843793D01*
X153607502Y-82824723D01*
X153607498Y-82824723D01*
X153462182Y-82837436D01*
X153389523Y-82843793D01*
X153389520Y-82843793D01*
X153178177Y-82900422D01*
X153178168Y-82900426D01*
X152979861Y-82992898D01*
X152979857Y-82992900D01*
X152800621Y-83118402D01*
X152645902Y-83273121D01*
X152520400Y-83452357D01*
X152520398Y-83452361D01*
X152427926Y-83650668D01*
X152427922Y-83650677D01*
X152371293Y-83862020D01*
X152371293Y-83862024D01*
X152352223Y-84079997D01*
X148362777Y-84079997D01*
X148343707Y-83862023D01*
X148287075Y-83650670D01*
X148194602Y-83452362D01*
X148194600Y-83452359D01*
X148194599Y-83452357D01*
X148069099Y-83273124D01*
X148069096Y-83273121D01*
X147914377Y-83118402D01*
X147735139Y-82992898D01*
X147735140Y-82992898D01*
X147735138Y-82992897D01*
X147635984Y-82946661D01*
X147536830Y-82900425D01*
X147536826Y-82900424D01*
X147536822Y-82900422D01*
X147325477Y-82843793D01*
X147107502Y-82824723D01*
X147107498Y-82824723D01*
X146962182Y-82837436D01*
X146889523Y-82843793D01*
X146889520Y-82843793D01*
X146678177Y-82900422D01*
X146678168Y-82900426D01*
X146479861Y-82992898D01*
X146479857Y-82992900D01*
X146300621Y-83118402D01*
X146145902Y-83273121D01*
X146020400Y-83452357D01*
X146020398Y-83452361D01*
X145927926Y-83650668D01*
X145927922Y-83650677D01*
X145871293Y-83862020D01*
X145871293Y-83862024D01*
X145852223Y-84079997D01*
X119500000Y-84079997D01*
X119500000Y-82949999D01*
X120702285Y-82949999D01*
X120702285Y-82950000D01*
X120721102Y-83153082D01*
X120776917Y-83349247D01*
X120776922Y-83349260D01*
X120867827Y-83531821D01*
X120990737Y-83694581D01*
X121141458Y-83831980D01*
X121141460Y-83831982D01*
X121189980Y-83862024D01*
X121314863Y-83939348D01*
X121505044Y-84013024D01*
X121705524Y-84050500D01*
X121705526Y-84050500D01*
X121909474Y-84050500D01*
X121909476Y-84050500D01*
X122109956Y-84013024D01*
X122300137Y-83939348D01*
X122473541Y-83831981D01*
X122624264Y-83694579D01*
X122747173Y-83531821D01*
X122838082Y-83349250D01*
X122893897Y-83153083D01*
X122912715Y-82950000D01*
X122893897Y-82746917D01*
X122838082Y-82550750D01*
X122747173Y-82368179D01*
X122624264Y-82205421D01*
X122624262Y-82205418D01*
X122473541Y-82068019D01*
X122473539Y-82068017D01*
X122300142Y-81960655D01*
X122300135Y-81960651D01*
X122205046Y-81923814D01*
X122109956Y-81886976D01*
X121909476Y-81849500D01*
X121705524Y-81849500D01*
X121505044Y-81886976D01*
X121505041Y-81886976D01*
X121505041Y-81886977D01*
X121314864Y-81960651D01*
X121314857Y-81960655D01*
X121141460Y-82068017D01*
X121141458Y-82068019D01*
X120990737Y-82205418D01*
X120867827Y-82368178D01*
X120776922Y-82550739D01*
X120776917Y-82550752D01*
X120721102Y-82746917D01*
X120702285Y-82949999D01*
X119500000Y-82949999D01*
X119500000Y-80409999D01*
X120702285Y-80409999D01*
X120702285Y-80410000D01*
X120721102Y-80613082D01*
X120776917Y-80809247D01*
X120776922Y-80809260D01*
X120867827Y-80991821D01*
X120990737Y-81154581D01*
X121141458Y-81291980D01*
X121141460Y-81291982D01*
X121240641Y-81353392D01*
X121314863Y-81399348D01*
X121505044Y-81473024D01*
X121705524Y-81510500D01*
X121705526Y-81510500D01*
X121909474Y-81510500D01*
X121909476Y-81510500D01*
X122109956Y-81473024D01*
X122300137Y-81399348D01*
X122473541Y-81291981D01*
X122624264Y-81154579D01*
X122747173Y-80991821D01*
X122838082Y-80809250D01*
X122893897Y-80613083D01*
X122912715Y-80410000D01*
X122893897Y-80206917D01*
X122838082Y-80010750D01*
X122747173Y-79828179D01*
X122624264Y-79665421D01*
X122624262Y-79665418D01*
X122473541Y-79528019D01*
X122473539Y-79528017D01*
X122300142Y-79420655D01*
X122300135Y-79420651D01*
X122205046Y-79383814D01*
X122109956Y-79346976D01*
X121909476Y-79309500D01*
X121705524Y-79309500D01*
X121505044Y-79346976D01*
X121505041Y-79346976D01*
X121505041Y-79346977D01*
X121314864Y-79420651D01*
X121314857Y-79420655D01*
X121141460Y-79528017D01*
X121141458Y-79528019D01*
X120990737Y-79665418D01*
X120867827Y-79828178D01*
X120776922Y-80010739D01*
X120776917Y-80010752D01*
X120721102Y-80206917D01*
X120702285Y-80409999D01*
X119500000Y-80409999D01*
X119500000Y-77869999D01*
X120702285Y-77869999D01*
X120702285Y-77870000D01*
X120721102Y-78073082D01*
X120776917Y-78269247D01*
X120776922Y-78269260D01*
X120867827Y-78451821D01*
X120990737Y-78614581D01*
X121141458Y-78751980D01*
X121141460Y-78751982D01*
X121240641Y-78813392D01*
X121314863Y-78859348D01*
X121505044Y-78933024D01*
X121705524Y-78970500D01*
X121705526Y-78970500D01*
X121909474Y-78970500D01*
X121909476Y-78970500D01*
X122109956Y-78933024D01*
X122300137Y-78859348D01*
X122473541Y-78751981D01*
X122624264Y-78614579D01*
X122747173Y-78451821D01*
X122838082Y-78269250D01*
X122893897Y-78073083D01*
X122912715Y-77870000D01*
X122912715Y-77869999D01*
X125352285Y-77869999D01*
X125352285Y-77870000D01*
X125371102Y-78073082D01*
X125426917Y-78269247D01*
X125426922Y-78269260D01*
X125517827Y-78451821D01*
X125640737Y-78614581D01*
X125791458Y-78751980D01*
X125791460Y-78751982D01*
X125890641Y-78813392D01*
X125964863Y-78859348D01*
X126155044Y-78933024D01*
X126355524Y-78970500D01*
X126355526Y-78970500D01*
X126559474Y-78970500D01*
X126559476Y-78970500D01*
X126759956Y-78933024D01*
X126950137Y-78859348D01*
X127123541Y-78751981D01*
X127274264Y-78614579D01*
X127397173Y-78451821D01*
X127488082Y-78269250D01*
X127543897Y-78073083D01*
X127562715Y-77870000D01*
X127543897Y-77666917D01*
X127488082Y-77470750D01*
X127397173Y-77288179D01*
X127274264Y-77125421D01*
X127274262Y-77125418D01*
X127123541Y-76988019D01*
X127123539Y-76988017D01*
X126950142Y-76880655D01*
X126950135Y-76880651D01*
X126855046Y-76843814D01*
X126759956Y-76806976D01*
X126559476Y-76769500D01*
X126355524Y-76769500D01*
X126155044Y-76806976D01*
X126155041Y-76806976D01*
X126155041Y-76806977D01*
X125964864Y-76880651D01*
X125964857Y-76880655D01*
X125791460Y-76988017D01*
X125791458Y-76988019D01*
X125640737Y-77125418D01*
X125517827Y-77288178D01*
X125426922Y-77470739D01*
X125426917Y-77470752D01*
X125371102Y-77666917D01*
X125352285Y-77869999D01*
X122912715Y-77869999D01*
X122893897Y-77666917D01*
X122838082Y-77470750D01*
X122747173Y-77288179D01*
X122624264Y-77125421D01*
X122624262Y-77125418D01*
X122473541Y-76988019D01*
X122473539Y-76988017D01*
X122300142Y-76880655D01*
X122300135Y-76880651D01*
X122205046Y-76843814D01*
X122109956Y-76806976D01*
X121909476Y-76769500D01*
X121705524Y-76769500D01*
X121505044Y-76806976D01*
X121505041Y-76806976D01*
X121505041Y-76806977D01*
X121314864Y-76880651D01*
X121314857Y-76880655D01*
X121141460Y-76988017D01*
X121141458Y-76988019D01*
X120990737Y-77125418D01*
X120867827Y-77288178D01*
X120776922Y-77470739D01*
X120776917Y-77470752D01*
X120721102Y-77666917D01*
X120702285Y-77869999D01*
X119500000Y-77869999D01*
X119500000Y-74455321D01*
X120707000Y-74455321D01*
X120707000Y-76204678D01*
X120721532Y-76277735D01*
X120721533Y-76277739D01*
X120721534Y-76277740D01*
X120776899Y-76360601D01*
X120859760Y-76415966D01*
X120859764Y-76415967D01*
X120932821Y-76430499D01*
X120932824Y-76430500D01*
X120932826Y-76430500D01*
X122682176Y-76430500D01*
X122682177Y-76430499D01*
X122755240Y-76415966D01*
X122838101Y-76360601D01*
X122893466Y-76277740D01*
X122908000Y-76204674D01*
X122908000Y-74455326D01*
X122908000Y-74455323D01*
X122907999Y-74455321D01*
X125357000Y-74455321D01*
X125357000Y-76204678D01*
X125371532Y-76277735D01*
X125371533Y-76277739D01*
X125371534Y-76277740D01*
X125426899Y-76360601D01*
X125509760Y-76415966D01*
X125509764Y-76415967D01*
X125582821Y-76430499D01*
X125582824Y-76430500D01*
X125582826Y-76430500D01*
X127332176Y-76430500D01*
X127332177Y-76430499D01*
X127405240Y-76415966D01*
X127488101Y-76360601D01*
X127543466Y-76277740D01*
X127558000Y-76204674D01*
X127558000Y-76005321D01*
X146567000Y-76005321D01*
X146567000Y-79054678D01*
X146581532Y-79127735D01*
X146581533Y-79127739D01*
X146581534Y-79127740D01*
X146636899Y-79210601D01*
X146719760Y-79265966D01*
X146719764Y-79265967D01*
X146792821Y-79280499D01*
X146792824Y-79280500D01*
X146792826Y-79280500D01*
X149842176Y-79280500D01*
X149842177Y-79280499D01*
X149915240Y-79265966D01*
X149998101Y-79210601D01*
X150053466Y-79127740D01*
X150068000Y-79054674D01*
X150068000Y-77529998D01*
X151392391Y-77529998D01*
X151392391Y-77530001D01*
X151412800Y-77815362D01*
X151473609Y-78094895D01*
X151573591Y-78362958D01*
X151710691Y-78614038D01*
X151710696Y-78614046D01*
X151787110Y-78716124D01*
X151787111Y-78716124D01*
X152691557Y-77811678D01*
X152723997Y-77889995D01*
X152807170Y-78014472D01*
X152913028Y-78120330D01*
X153037505Y-78203503D01*
X153115820Y-78235942D01*
X152211374Y-79140387D01*
X152211375Y-79140388D01*
X152313453Y-79216803D01*
X152313461Y-79216808D01*
X152564542Y-79353908D01*
X152564541Y-79353908D01*
X152832604Y-79453890D01*
X153112137Y-79514699D01*
X153397499Y-79535109D01*
X153397501Y-79535109D01*
X153682862Y-79514699D01*
X153962395Y-79453890D01*
X154230458Y-79353908D01*
X154481538Y-79216808D01*
X154481539Y-79216808D01*
X154583624Y-79140387D01*
X153679178Y-78235942D01*
X153757495Y-78203503D01*
X153881972Y-78120330D01*
X153987830Y-78014472D01*
X154071003Y-77889995D01*
X154103442Y-77811678D01*
X155007887Y-78716124D01*
X155084308Y-78614039D01*
X155084308Y-78614038D01*
X155221408Y-78362958D01*
X155321390Y-78094895D01*
X155382199Y-77815362D01*
X155402609Y-77530001D01*
X155402609Y-77529998D01*
X155382199Y-77244637D01*
X155321390Y-76965104D01*
X155221408Y-76697041D01*
X155084308Y-76445961D01*
X155084303Y-76445953D01*
X155007888Y-76343875D01*
X155007887Y-76343874D01*
X154103442Y-77248320D01*
X154071003Y-77170005D01*
X153987830Y-77045528D01*
X153881972Y-76939670D01*
X153757495Y-76856497D01*
X153679178Y-76824057D01*
X154583624Y-75919611D01*
X154583624Y-75919610D01*
X154481546Y-75843196D01*
X154481538Y-75843191D01*
X154230457Y-75706091D01*
X154230458Y-75706091D01*
X153962395Y-75606109D01*
X153682862Y-75545300D01*
X153397501Y-75524891D01*
X153397499Y-75524891D01*
X153112137Y-75545300D01*
X152832604Y-75606109D01*
X152564541Y-75706091D01*
X152313461Y-75843191D01*
X152211375Y-75919611D01*
X153115821Y-76824057D01*
X153037505Y-76856497D01*
X152913028Y-76939670D01*
X152807170Y-77045528D01*
X152723997Y-77170005D01*
X152691557Y-77248321D01*
X151787111Y-76343875D01*
X151710691Y-76445961D01*
X151573591Y-76697041D01*
X151473609Y-76965104D01*
X151412800Y-77244637D01*
X151392391Y-77529998D01*
X150068000Y-77529998D01*
X150068000Y-76005326D01*
X150068000Y-76005323D01*
X150067999Y-76005321D01*
X150053467Y-75932264D01*
X150053466Y-75932260D01*
X150045014Y-75919610D01*
X149998101Y-75849399D01*
X149915240Y-75794034D01*
X149915239Y-75794033D01*
X149915235Y-75794032D01*
X149842177Y-75779500D01*
X149842174Y-75779500D01*
X146792826Y-75779500D01*
X146792823Y-75779500D01*
X146719764Y-75794032D01*
X146719760Y-75794033D01*
X146636899Y-75849399D01*
X146581533Y-75932260D01*
X146581532Y-75932264D01*
X146567000Y-76005321D01*
X127558000Y-76005321D01*
X127558000Y-74455326D01*
X127558000Y-74455323D01*
X127557999Y-74455321D01*
X127543467Y-74382264D01*
X127543466Y-74382260D01*
X127488101Y-74299399D01*
X127405240Y-74244034D01*
X127405239Y-74244033D01*
X127405235Y-74244032D01*
X127332177Y-74229500D01*
X127332174Y-74229500D01*
X125582826Y-74229500D01*
X125582823Y-74229500D01*
X125509764Y-74244032D01*
X125509760Y-74244033D01*
X125426899Y-74299399D01*
X125371533Y-74382260D01*
X125371532Y-74382264D01*
X125357000Y-74455321D01*
X122907999Y-74455321D01*
X122893467Y-74382264D01*
X122893466Y-74382260D01*
X122838101Y-74299399D01*
X122755240Y-74244034D01*
X122755239Y-74244033D01*
X122755235Y-74244032D01*
X122682177Y-74229500D01*
X122682174Y-74229500D01*
X120932826Y-74229500D01*
X120932823Y-74229500D01*
X120859764Y-74244032D01*
X120859760Y-74244033D01*
X120776899Y-74299399D01*
X120721533Y-74382260D01*
X120721532Y-74382264D01*
X120707000Y-74455321D01*
X119500000Y-74455321D01*
X119500000Y-73124000D01*
X119519685Y-73056961D01*
X119572489Y-73011206D01*
X119624000Y-73000000D01*
X169876000Y-73000000D01*
X169943039Y-73019685D01*
G37*
%TD.AperFunction*%
%TD*%
M02*
